<?xml version="1.0" encoding="UTF-8" standalone="no"?>
<!-- Created with Inkscape (http://www.inkscape.org/) -->

<svg
   version="1.1"
   id="svg2"
   xml:space="preserve"
   width="634.94666"
   height="225.16"
   viewBox="0 0 634.94666 225.16"
   sodipodi:docname="APRMLogo_English_Colour.eps"
   xmlns:inkscape="http://www.inkscape.org/namespaces/inkscape"
   xmlns:sodipodi="http://sodipodi.sourceforge.net/DTD/sodipodi-0.dtd"
   xmlns="http://www.w3.org/2000/svg"
   xmlns:svg="http://www.w3.org/2000/svg"><defs
     id="defs6"><clipPath
       clipPathUnits="userSpaceOnUse"
       id="clipPath338"><path
         d="M 1562.14,196.27 H 148.574 V 1540.06 H 1562.14 Z"
         id="path336" /></clipPath><clipPath
       clipPathUnits="userSpaceOnUse"
       id="clipPath344"><path
         d="m 852.363,160.949 c -347.226,0 -628.707,289.473 -628.707,646.547 0,357.074 281.481,646.554 628.707,646.554 347.227,0 628.707,-289.48 628.707,-646.554 0,-357.074 -281.48,-646.547 -628.707,-646.547 z m 0,1358.401 c -382.293,0 -692.207,-318.71 -692.207,-711.854 0,-393.137 309.914,-711.8476 692.207,-711.8476 382.297,0 692.207,318.7106 692.207,711.8476 0,393.144 -309.91,711.854 -692.207,711.854 z"
         id="path342" /></clipPath><clipPath
       clipPathUnits="userSpaceOnUse"
       id="clipPath372"><path
         d="m 1417.79,809.359 c 0,-322.847 -254.63,-584.57 -568.724,-584.57 -314.097,0 -568.722,261.723 -568.722,584.57 0,322.851 254.625,584.571 568.722,584.571 314.094,0 568.724,-261.72 568.724,-584.571 z"
         id="path370" /></clipPath></defs><sodipodi:namedview
     id="namedview4"
     pagecolor="#ffffff"
     bordercolor="#666666"
     borderopacity="1.0"
     inkscape:pageshadow="2"
     inkscape:pageopacity="0.0"
     inkscape:pagecheckerboard="0" /><g
     id="g8"
     inkscape:groupmode="layer"
     inkscape:label="ink_ext_XXXXXX"
     transform="matrix(1.3333333,0,0,-1.3333333,0,225.16)"><g
       id="g10"
       transform="scale(0.1)"><path
         d="m 2048.26,461.52 -43.05,142.808 h -0.71 L 1961.8,461.52 Z m -29.05,167.32 78.76,-252.731 h -23.46 l -20.3,66.512 h -99.06 l -19.95,-66.512 h -22.41 l 79.82,252.731 h 26.6"
         style="fill:#921935;fill-opacity:1;fill-rule:nonzero;stroke:none"
         id="path12" /><path
         d="M 2134.35,536.078 H 2106 v 16.801 h 28.35 v 29.762 c 0,16.789 2.45,47.597 45.15,47.597 3.16,0 6.65,-0.699 11.91,-1.398 v -17.5 h -15.75 c -20.31,0 -20.31,-18.211 -20.31,-28.352 v -30.109 h 35.71 v -16.801 h -35.71 V 376.109 h -21 v 159.969"
         style="fill:#921935;fill-opacity:1;fill-rule:nonzero;stroke:none"
         id="path14" /><path
         d="m 2236.91,529.078 h 0.69 c 8.75,16.801 27.3,27.313 48.66,27.313 v -21.36 c -29.75,2.449 -49.35,-15.402 -49.35,-45.16 V 376.109 h -21.01 v 176.77 h 21.01 v -23.801"
         style="fill:#921935;fill-opacity:1;fill-rule:nonzero;stroke:none"
         id="path16" /><path
         d="m 2315.3,376.109 v 176.77 h 21 v -176.77 z m -2.45,226.129 v 26.602 h 25.9 v -26.602 h -25.9"
         style="fill:#921935;fill-opacity:1;fill-rule:nonzero;stroke:none"
         id="path18" /><path
         d="m 2461.26,502.129 c 1.05,22.051 -7,37.449 -31.16,37.449 -12.95,0 -23.8,-7.348 -28.35,-20.297 -2.8,-8.051 -4.9,-32.211 -4.9,-55.66 0,-31.851 0,-74.211 32.56,-74.211 27.64,0 31.15,17.5 32.19,38.86 h 21.01 c 1.75,-47.61 -31.86,-55.649 -48.3,-55.649 -59.87,0 -59.87,47.238 -59.87,91 0,17.5 0.71,45.16 5.26,58.457 9.1,25.203 29.05,34.313 53.2,34.313 30.46,0 51.11,-17.161 49.36,-54.262 h -21"
         style="fill:#921935;fill-opacity:1;fill-rule:nonzero;stroke:none"
         id="path20" /><path
         d="m 2605.11,466.422 c -30.11,-1.051 -75.61,2.457 -75.61,-40.602 0,-19.949 10.15,-36.41 31.86,-36.41 24.15,0 43.75,21.699 43.75,44.809 z m 1.4,-68.613 h -0.7 c -11.2,-16.797 -28.36,-25.188 -50.06,-25.188 -31.5,0 -48.65,21.34 -48.65,52.141 0,61.968 62.31,55.66 98.01,58.457 v 14.711 c 0,25.898 -7.71,41.648 -35.7,41.648 -19.25,0 -34.66,-9.449 -34.66,-30.449 h -22.41 c 1.76,33.949 28.01,47.262 58.81,47.262 17.86,0 54.96,-1.762 54.96,-46.922 V 420.57 c 0,-12.601 0,-23.8 2.1,-44.461 h -21.7 v 21.7"
         style="fill:#921935;fill-opacity:1;fill-rule:nonzero;stroke:none"
         id="path22" /><path
         d="m 2688.05,376.109 h -21 v 176.77 h 21 V 531.18 h 0.7 c 10.15,14.699 23.8,25.211 42.71,25.211 43.75,0 48.3,-32.563 48.3,-55.672 v -124.61 h -21 V 499.68 c 0,20.648 -8.06,39.898 -32.56,39.898 -18.89,0 -38.15,-12.949 -38.15,-52.508 V 376.109"
         style="fill:#921935;fill-opacity:1;fill-rule:nonzero;stroke:none"
         id="path24" /><path
         d="m 2916.59,512.629 h 41.66 c 23.45,0 38.5,11.199 38.5,50.75 0,43.051 -18.55,46.562 -38.85,46.562 h -41.31 z m -22.4,116.211 h 69.31 c 21,0 55.65,-2.809 55.65,-61.25 0,-50.762 -16.44,-73.871 -59.85,-73.871 h -42.71 v -117.61 h -22.4 V 628.84"
         style="fill:#921935;fill-opacity:1;fill-rule:nonzero;stroke:none"
         id="path26" /><path
         d="m 3141.3,476.922 c 0,39.199 -6.3,62.656 -39.9,62.656 -33.61,0 -39.9,-23.457 -39.9,-62.656 z m -79.8,-16.793 v -13.66 c 0,-24.5 6.65,-57.059 39.9,-57.059 26.25,0 39.21,16.809 38.86,40.61 h 22.05 c -2.46,-42.711 -25.56,-57.399 -60.91,-57.399 -30.45,0 -60.91,12.238 -60.91,65.801 v 43.406 c 0,51.102 21.36,74.563 60.91,74.563 60.91,0 60.91,-43.762 60.91,-96.262 H 3061.5"
         style="fill:#921935;fill-opacity:1;fill-rule:nonzero;stroke:none"
         id="path28" /><path
         d="m 3293.2,476.922 c 0,39.199 -6.29,62.656 -39.9,62.656 -33.6,0 -39.91,-23.457 -39.91,-62.656 z m -79.81,-16.793 v -13.66 c 0,-24.5 6.65,-57.059 39.91,-57.059 26.25,0 39.2,16.809 38.85,40.61 h 22.05 c -2.45,-42.711 -25.55,-57.399 -60.9,-57.399 -30.46,0 -60.91,12.238 -60.91,65.801 v 43.406 c 0,51.102 21.35,74.563 60.91,74.563 60.9,0 60.9,-43.762 60.9,-96.262 h -100.81"
         style="fill:#921935;fill-opacity:1;fill-rule:nonzero;stroke:none"
         id="path30" /><path
         d="m 3371.24,529.078 h 0.7 c 8.75,16.801 27.31,27.313 48.66,27.313 v -21.36 c -29.76,2.449 -49.36,-15.402 -49.36,-45.16 V 376.109 h -20.99 v 176.77 h 20.99 v -23.801"
         style="fill:#921935;fill-opacity:1;fill-rule:nonzero;stroke:none"
         id="path32" /><path
         d="m 3541.69,517.531 h 36.41 c 33.6,0 49.35,8.75 49.35,51.098 0,34.66 -13.65,41.312 -39.91,41.312 h -45.85 z m 0,-18.91 V 376.109 h -22.4 V 628.84 h 69.66 c 48.65,0 60.9,-16.11 60.9,-60.559 0,-31.5 -5.25,-52.5 -39.2,-60.203 v -0.707 c 35.35,-7.34 37.45,-11.543 37.45,-101.851 0,-9.809 1.75,-19.598 2.45,-29.411 h -21.35 c -2.1,7.36 -3.15,49.36 -3.51,63.012 -0.34,10.848 7.01,59.5 -41.65,59.5 h -42.35"
         style="fill:#921935;fill-opacity:1;fill-rule:nonzero;stroke:none"
         id="path34" /><path
         d="m 3784.59,476.922 c 0,39.199 -6.3,62.656 -39.9,62.656 -33.6,0 -39.9,-23.457 -39.9,-62.656 z m -79.8,-16.793 v -13.66 c 0,-24.5 6.65,-57.059 39.9,-57.059 26.26,0 39.21,16.809 38.86,40.61 h 22.05 c -2.45,-42.711 -25.55,-57.399 -60.91,-57.399 -30.45,0 -60.9,12.238 -60.9,65.801 v 43.406 c 0,51.102 21.35,74.563 60.9,74.563 60.91,0 60.91,-43.762 60.91,-96.262 h -100.81"
         style="fill:#921935;fill-opacity:1;fill-rule:nonzero;stroke:none"
         id="path36" /><path
         d="m 3887.48,402.711 h 0.7 l 43.06,150.168 h 20.3 l -52.51,-176.77 h -24.15 l -52.51,176.77 h 22.76 l 42.35,-150.168"
         style="fill:#921935;fill-opacity:1;fill-rule:nonzero;stroke:none"
         id="path38" /><path
         d="m 3979.88,376.109 v 176.77 h 21.01 v -176.77 z m -2.45,226.129 v 26.602 h 25.91 v -26.602 h -25.91"
         style="fill:#921935;fill-opacity:1;fill-rule:nonzero;stroke:none"
         id="path40" /><path
         d="m 4143.34,476.922 c 0,39.199 -6.3,62.656 -39.9,62.656 -33.6,0 -39.9,-23.457 -39.9,-62.656 z m -79.8,-16.793 v -13.66 c 0,-24.5 6.65,-57.059 39.9,-57.059 26.26,0 39.21,16.809 38.86,40.61 h 22.05 c -2.45,-42.711 -25.55,-57.399 -60.91,-57.399 -30.45,0 -60.9,12.238 -60.9,65.801 v 43.406 c 0,51.102 21.35,74.563 60.9,74.563 60.91,0 60.91,-43.762 60.91,-96.262 h -100.81"
         style="fill:#921935;fill-opacity:1;fill-rule:nonzero;stroke:none"
         id="path42" /><path
         d="m 4181.12,552.879 h 22.41 l 39.56,-154.719 h 0.69 l 37.46,154.719 h 25.9 l 39.21,-154.719 h 0.69 l 39.56,154.719 h 21 l -48.65,-176.77 h -26.25 l -38.86,151.219 h -0.7 l -37.1,-151.219 h -26.25 l -48.67,176.77"
         style="fill:#921935;fill-opacity:1;fill-rule:nonzero;stroke:none"
         id="path44" /><path
         d="M 1933.1,6.10938 V 258.84 h 38.15 l 74.56,-228.2306 h 0.7 l 73.51,228.2306 h 35.7 V 6.10938 h -22.4 V 237.141 h -0.7 L 2058.41,6.10938 h -25.9 L 1956.2,237.141 h -0.7 V 6.10938 h -22.4"
         style="fill:#921935;fill-opacity:1;fill-rule:nonzero;stroke:none"
         id="path46" /><path
         d="m 2294.66,106.922 c 0,39.199 -6.3,62.66 -39.9,62.66 -33.61,0 -39.92,-23.461 -39.92,-62.66 z M 2214.84,90.1289 V 76.4688 c 0,-24.5 6.66,-57.0586 39.92,-57.0586 26.25,0 39.2,16.8086 38.84,40.6093 h 22.06 c -2.46,-42.7109 -25.55,-57.39841 -60.9,-57.39841 -30.46,0 -60.91,12.23831 -60.91,65.80081 v 43.4061 c 0,51.102 21.35,74.563 60.91,74.563 60.9,0 60.9,-43.762 60.9,-96.2621 h -100.82"
         style="fill:#921935;fill-opacity:1;fill-rule:nonzero;stroke:none"
         id="path48" /><path
         d="m 2429.05,132.129 c 1.06,22.051 -7,37.453 -31.15,37.453 -12.95,0 -23.8,-7.352 -28.35,-20.301 -2.8,-8.051 -4.9,-32.211 -4.9,-55.6599 0,-31.8516 0,-74.2109 32.55,-74.2109 27.65,0 31.15,17.5 32.21,38.8593 h 21 c 1.75,-47.6093 -31.85,-55.64841 -48.31,-55.64841 -59.85,0 -59.85,47.23831 -59.85,91.00001 0,17.4999 0.69,45.1599 5.24,58.4609 9.1,25.199 29.05,34.309 53.21,34.309 30.45,0 51.11,-17.161 49.36,-54.262 h -21.01"
         style="fill:#921935;fill-opacity:1;fill-rule:nonzero;stroke:none"
         id="path50" /><path
         d="M 2482.95,6.10938 V 258.84 h 21 v -97.66 h 0.7 c 10.15,14.699 23.8,25.211 42.7,25.211 43.75,0 48.31,-32.563 48.31,-55.672 V 6.10938 h -21 V 129.68 c 0,20.648 -8.06,39.902 -32.56,39.902 -18.9,0 -38.15,-12.953 -38.15,-52.512 V 6.10938 h -21"
         style="fill:#921935;fill-opacity:1;fill-rule:nonzero;stroke:none"
         id="path52" /><path
         d="m 2724.81,96.4219 c -30.11,-1.0508 -75.61,2.457 -75.61,-40.6016 0,-19.9492 10.15,-36.4101 31.86,-36.4101 24.15,0 43.75,21.6992 43.75,44.8086 z m 1.39,-68.6133 h -0.69 c -11.2,-16.7969 -28.36,-25.18751 -50.06,-25.18751 -31.5,0 -48.65,21.33981 -48.65,52.14061 0,61.9683 62.3,55.6603 98.01,58.4573 v 14.711 c 0,25.898 -7.71,41.652 -35.71,41.652 -19.25,0 -34.66,-9.453 -34.66,-30.453 h -22.4 c 1.76,33.949 28.01,47.262 58.81,47.262 17.85,0 54.96,-1.762 54.96,-46.922 V 50.5703 c 0,-12.6015 0,-23.8008 2.1,-44.46092 H 2726.2 V 27.8086"
         style="fill:#921935;fill-opacity:1;fill-rule:nonzero;stroke:none"
         id="path54" /><path
         d="m 2807.75,6.10938 h -21 V 182.879 h 21 V 161.18 h 0.7 c 10.14,14.699 23.8,25.211 42.7,25.211 43.75,0 48.3,-32.563 48.3,-55.672 V 6.10938 h -20.99 V 129.68 c 0,20.648 -8.06,39.902 -32.56,39.902 -18.9,0 -38.15,-12.953 -38.15,-52.512 V 6.10938"
         style="fill:#921935;fill-opacity:1;fill-rule:nonzero;stroke:none"
         id="path56" /><path
         d="M 2945.65,6.10938 V 182.879 h 21 V 6.10938 Z m -2.46,226.12862 v 26.602 h 25.91 v -26.602 h -25.91"
         style="fill:#921935;fill-opacity:1;fill-rule:nonzero;stroke:none"
         id="path58" /><path
         d="m 3059.76,2.62109 c -38.16,0 -53.21,18.53911 -52.86,56.00001 h 21.35 c 0,-24.1602 5.6,-40.25 32.55,-40.25 20.3,0 30.11,11.5391 30.11,31.1484 0,46.1993 -79.46,34.3008 -79.46,92.7505 0,32.558 22.4,44.121 53.21,44.121 35,0 46.2,-24.161 46.2,-51.121 h -20.65 c -1.05,22.402 -7.01,34.312 -30.8,34.312 -15.05,0 -26.96,-9.812 -26.96,-25.562 0,-44.0981 79.46,-32.192 79.46,-91.3481 0,-33.2617 -19.25,-50.05081 -52.15,-50.05081"
         style="fill:#921935;fill-opacity:1;fill-rule:nonzero;stroke:none"
         id="path60" /><path
         d="m 3166.14,6.10938 h -20.99 V 183.23 h 18.89 v -22.05 h 0.71 c 8.4,14.351 22.4,25.211 42,25.211 18.2,0 34.31,-10.161 40.25,-27.661 8.75,17.5 23.81,27.661 43.41,27.661 29.41,0 44.81,-20.313 45.86,-48.672 V 6.10938 h -21.01 V 132.48 c -0.35,17.5 -6.65,37.102 -27.3,37.102 -26.6,0 -36.75,-26.602 -36.75,-49.711 V 6.10938 h -21 V 132.48 c -0.36,17.5 -6.65,37.102 -27.31,37.102 -26.6,0 -36.76,-26.602 -36.76,-49.711 V 6.10938"
         style="fill:#921935;fill-opacity:1;fill-rule:nonzero;stroke:none"
         id="path62" /><path
         d="m 1483.89,50.6094 h -7.79 v 2.8125 h 18.98 v -2.8125 h -7.84 V 27.7813 h -3.35 v 22.8281"
         style="fill:#921935;fill-opacity:1;fill-rule:nonzero;stroke:none"
         id="path64" /><path
         d="m 1519.55,39.0391 c -0.19,3.582 -0.42,7.8828 -0.38,11.082 h -0.11 c -0.88,-3.0117 -1.94,-6.2109 -3.24,-9.75 l -4.53,-12.4414 h -2.51 l -4.14,12.2187 c -1.22,3.6133 -2.25,6.9219 -2.97,9.9727 h -0.08 c -0.07,-3.1992 -0.27,-7.5 -0.49,-11.3398 l -0.69,-11 h -3.16 l 1.79,25.6406 h 4.23 l 4.37,-12.4024 c 1.07,-3.1601 1.94,-5.9687 2.59,-8.6406 h 0.11 c 0.65,2.5899 1.56,5.4024 2.7,8.6406 l 4.57,12.4024 h 4.22 l 1.6,-25.6406 h -3.23 l -0.65,11.2578"
         style="fill:#921935;fill-opacity:1;fill-rule:nonzero;stroke:none"
         id="path66" /><path
         d="m 1500.87,73.0391 c -18.79,0 -34.08,-15.2891 -34.08,-34.0899 0,-18.789 15.29,-34.07811 34.08,-34.07811 18.8,0 34.09,15.28911 34.09,34.07811 0,18.8008 -15.29,34.0899 -34.09,34.0899 z m 0,-71.67972 c -20.73,0 -37.59,16.85942 -37.59,37.58982 0,20.7305 16.86,37.6016 37.59,37.6016 20.73,0 37.6,-16.8711 37.6,-37.6016 0,-20.7304 -16.87,-37.58982 -37.6,-37.58982"
         style="fill:#921935;fill-opacity:1;fill-rule:nonzero;stroke:none"
         id="path68" /><path
         d="m 1483.89,50.6094 h -7.79 v 2.8125 h 18.98 v -2.8125 h -7.84 V 27.7813 h -3.35 v 22.8281"
         style="fill:#921935;fill-opacity:1;fill-rule:nonzero;stroke:none"
         id="path70" /><path
         d="m 1519.55,39.0391 c -0.19,3.582 -0.42,7.8828 -0.38,11.082 h -0.11 c -0.88,-3.0117 -1.94,-6.2109 -3.24,-9.75 l -4.53,-12.4414 h -2.51 l -4.14,12.2187 c -1.22,3.6133 -2.25,6.9219 -2.97,9.9727 h -0.08 c -0.07,-3.1992 -0.27,-7.5 -0.49,-11.3398 l -0.69,-11 h -3.16 l 1.79,25.6406 h 4.23 l 4.37,-12.4024 c 1.07,-3.1601 1.94,-5.9687 2.59,-8.6406 h 0.11 c 0.65,2.5899 1.56,5.4024 2.7,8.6406 l 4.57,12.4024 h 4.22 l 1.6,-25.6406 h -3.23 l -0.65,11.2578"
         style="fill:#921935;fill-opacity:1;fill-rule:nonzero;stroke:none"
         id="path72" /><path
         d="m 1500.87,73.0391 c -18.79,0 -34.08,-15.2891 -34.08,-34.0899 0,-18.789 15.29,-34.07811 34.08,-34.07811 18.8,0 34.09,15.28911 34.09,34.07811 0,18.8008 -15.29,34.0899 -34.09,34.0899 z m 0,-71.67972 c -20.73,0 -37.59,16.85942 -37.59,37.58982 0,20.7305 16.86,37.6016 37.59,37.6016 20.73,0 37.6,-16.8711 37.6,-37.6016 0,-20.7304 -16.87,-37.58982 -37.6,-37.58982"
         style="fill:#921935;fill-opacity:1;fill-rule:nonzero;stroke:none"
         id="path74" /><path
         d="m 258.348,1292.02 c 4.785,0 7.179,4.78 7.179,7.18 0,4.78 -4.785,9.56 -7.179,7.17 l -40.664,-4.78 v -7.18 c 15.648,4.89 27.808,0.28 40.664,-2.39"
         style="fill:#0c744c;fill-opacity:1;fill-rule:nonzero;stroke:none"
         id="path76" /><path
         d="m 241.602,1268.09 c 4.785,0 7.179,4.79 7.179,7.18 0,4.78 -2.394,7.18 -7.179,7.18 l -40.664,-7.18 v -7.18 c 15.554,6.1 27.988,2.07 40.664,0"
         style="fill:#0c744c;fill-opacity:1;fill-rule:nonzero;stroke:none"
         id="path78" /><path
         d="m 227.254,1244.16 c 4.781,0 7.176,4.79 7.176,7.18 0,4.79 -4.789,7.18 -9.575,7.18 l -40.664,-9.57 2.391,-4.79 c 16.125,6.19 28.066,2.06 40.672,0"
         style="fill:#0c744c;fill-opacity:1;fill-rule:nonzero;stroke:none"
         id="path80" /><path
         d="m 210.508,1217.85 c 4.781,0 7.176,2.39 7.176,7.17 -2.395,4.79 -4.782,7.18 -9.571,7.18 l -40.664,-11.96 2.395,-4.79 c 14.316,4.48 28.769,2.84 40.664,2.4"
         style="fill:#0c744c;fill-opacity:1;fill-rule:nonzero;stroke:none"
         id="path82" /><path
         d="m 196.156,1191.53 c 2.391,0 4.782,4.78 4.782,9.57 0,2.39 -4.782,4.78 -9.567,4.78 l -38.273,-16.75 2.39,-4.78 c 14.465,6.1 27.239,8.64 40.668,7.18"
         style="fill:#0c744c;fill-opacity:1;fill-rule:nonzero;stroke:none"
         id="path84" /><path
         d="m 177.016,1160.43 c 2.394,0 4.785,4.78 4.785,7.17 0,4.79 -4.785,7.17 -9.571,7.17 l -38.273,-16.74 2.395,-4.78 c 14.464,6.09 27.234,8.64 40.664,7.18"
         style="fill:#0c744c;fill-opacity:1;fill-rule:nonzero;stroke:none"
         id="path86" /><path
         d="m 165.055,1131.71 c 4.789,0 7.175,4.79 4.789,9.58 0,2.38 -4.789,4.78 -9.574,4.78 l -38.27,-14.36 2.391,-7.17 c 14.297,6.12 27.363,8.62 40.664,7.17"
         style="fill:#0c744c;fill-opacity:1;fill-rule:nonzero;stroke:none"
         id="path88" /><path
         d="m 155.488,1103 c 4.782,2.39 7.176,4.78 4.782,9.57 0,4.79 -4.782,7.18 -9.567,4.79 L 112.43,1103 l 2.394,-4.79 c 14.274,4.78 26.699,6.59 40.664,4.79"
         style="fill:#0c744c;fill-opacity:1;fill-rule:nonzero;stroke:none"
         id="path90" /><path
         d="m 145.922,1076.68 c 2.391,2.39 4.781,7.18 2.391,11.96 0,2.4 -4.79,4.79 -9.571,4.79 l -35.883,-19.14 2.399,-4.79 c 14.414,6.06 26.387,8.74 40.664,7.18"
         style="fill:#0c744c;fill-opacity:1;fill-rule:nonzero;stroke:none"
         id="path92" /><path
         d="m 133.957,1045.58 c 4.785,0 7.18,4.78 4.785,9.56 0,2.4 -4.785,4.79 -9.566,2.4 l -35.883,-19.14 2.3906,-4.78 c 12.5004,6.65 26.5784,9.24 38.2734,11.96"
         style="fill:#0c744c;fill-opacity:1;fill-rule:nonzero;stroke:none"
         id="path94" /><path
         d="m 124.391,1012.08 c 4.785,0 7.179,4.78 4.785,9.57 -2.391,2.39 -4.785,4.79 -9.571,4.79 l -35.8784,-21.54 2.3906,-4.78 c 12.5,6.65 26.5738,9.24 38.2738,11.96"
         style="fill:#0c744c;fill-opacity:1;fill-rule:nonzero;stroke:none"
         id="path96" /><path
         d="m 279.879,1315.95 c 2.394,0 7.176,2.39 7.176,7.17 0,4.79 -4.782,7.18 -9.567,7.18 l -40.668,-7.18 v -4.78 c 17.078,4.7 30.067,0.19 43.059,-2.39"
         style="fill:#0c744c;fill-opacity:1;fill-rule:nonzero;stroke:none"
         id="path98" /><path
         d="m 299.016,1339.87 c 2.39,0 7.175,2.4 7.175,7.18 -2.39,4.78 -4.785,7.18 -9.57,7.18 l -40.66,-7.18 v -4.78 c 16.246,2.74 29.367,2.36 43.055,-2.4"
         style="fill:#0c744c;fill-opacity:1;fill-rule:nonzero;stroke:none"
         id="path100" /><path
         d="m 320.547,1361.41 c 4.781,0 7.172,4.78 7.172,9.56 0,2.4 -2.391,7.18 -7.172,7.18 l -40.668,-7.18 v -4.78 c 15.223,3.42 27.844,-1.55 40.668,-4.78 v 0"
         style="fill:#0c744c;fill-opacity:1;fill-rule:nonzero;stroke:none"
         id="path102" /><path
         d="m 337.285,1387.72 c 4.785,2.39 7.18,4.79 7.18,9.57 0,4.79 -4.785,7.18 -9.57,7.18 l -38.274,-11.96 v -7.18 c 15.121,7.65 27.848,3.92 40.664,2.39"
         style="fill:#0c744c;fill-opacity:1;fill-rule:nonzero;stroke:none"
         id="path104" /><path
         d="m 284.66,1421.22 c 0,4.78 -4.781,7.18 -9.566,4.78 -4.785,0 -7.18,-4.78 -4.785,-9.57 l 14.351,-38.28 4.785,2.4 c -5.859,14.15 -4.691,27.61 -4.785,40.67"
         style="fill:#0c744c;fill-opacity:1;fill-rule:nonzero;stroke:none"
         id="path106" /><path
         d="m 263.133,1404.47 c 0,2.39 -4.785,4.79 -9.57,4.79 -2.391,0 -4.782,-4.79 -4.782,-9.58 l 14.352,-38.27 h 4.781 c -4.601,15.09 -6.516,29.34 -4.781,43.06"
         style="fill:#0c744c;fill-opacity:1;fill-rule:nonzero;stroke:none"
         id="path108" /><path
         d="m 241.602,1382.94 c 0,4.78 -4.782,7.17 -9.567,4.78 -4.781,0 -7.18,-4.78 -4.781,-9.57 l 19.133,-45.46 h 4.785 c -7.758,16.81 -8.285,34.47 -9.57,50.25"
         style="fill:#0c744c;fill-opacity:1;fill-rule:nonzero;stroke:none"
         id="path110" /><path
         d="m 222.469,1361.41 c -2.395,4.78 -7.18,7.17 -9.567,7.17 -4.789,-2.39 -7.179,-4.79 -7.179,-9.57 l 19.132,-47.85 4.786,2.39 c -9.731,16.66 -7.559,33.39 -7.172,47.86"
         style="fill:#0c744c;fill-opacity:1;fill-rule:nonzero;stroke:none"
         id="path112" /><path
         d="m 203.328,1342.27 c 0,4.78 -4.781,4.78 -9.566,4.78 -2.391,-2.4 -4.785,-4.78 -4.785,-9.57 l 21.531,-45.46 h 4.781 c -7.559,17.28 -13.035,33.76 -11.961,50.25"
         style="fill:#0c744c;fill-opacity:1;fill-rule:nonzero;stroke:none"
         id="path114" /><path
         d="m 181.801,1315.95 c -2.391,2.39 -4.785,4.78 -9.571,4.78 -4.781,-2.39 -7.175,-7.18 -4.781,-11.97 l 21.528,-45.46 4.785,2.4 c -7.442,17.46 -13.106,32.69 -11.961,50.25"
         style="fill:#0c744c;fill-opacity:1;fill-rule:nonzero;stroke:none"
         id="path116" /><path
         d="m 162.664,1287.23 c 0,4.79 -4.781,4.79 -9.566,4.79 -2.395,-2.4 -4.785,-7.18 -4.785,-9.57 l 21.531,-45.47 4.781,2.4 c -7.801,16.56 -13.012,31.99 -11.961,47.85"
         style="fill:#0c744c;fill-opacity:1;fill-rule:nonzero;stroke:none"
         id="path118" /><path
         d="m 145.922,1263.3 c 0,2.4 -4.785,4.79 -9.57,2.4 -2.395,0 -4.782,-4.79 -2.395,-9.57 l 23.926,-43.07 4.781,2.39 c -7.992,16.08 -14.66,31.63 -16.742,47.85"
         style="fill:#0c744c;fill-opacity:1;fill-rule:nonzero;stroke:none"
         id="path120" /><path
         d="m 133.137,1237.08 c -2.395,4.78 -7.18,4.78 -9.567,4.78 -4.785,-2.39 -7.179,-7.18 -4.785,-11.96 l 23.918,-43.07 7.18,2.4 c -9.961,16.59 -17.238,31.26 -16.746,47.85"
         style="fill:#0c744c;fill-opacity:1;fill-rule:nonzero;stroke:none"
         id="path122" /><path
         d="m 114.824,1210.67 c -2.394,2.39 -7.179,4.78 -9.566,2.39 -4.785,-2.39 -4.785,-7.18 -2.399,-11.96 l 28.711,-40.67 4.782,2.38 c -10.164,16.01 -18.739,30.98 -21.528,47.86"
         style="fill:#0c744c;fill-opacity:1;fill-rule:nonzero;stroke:none"
         id="path124" /><path
         d="m 102.859,1181.96 c -2.386,2.39 -7.1754,4.78 -9.566,2.39 -4.7813,-2.39 -7.1758,-7.18 -4.7813,-9.58 l 28.6993,-43.06 4.789,2.4 c -9.102,15.64 -16.684,31.15 -19.141,47.85"
         style="fill:#0c744c;fill-opacity:1;fill-rule:nonzero;stroke:none"
         id="path126" /><path
         d="m 90.8984,1160.43 c -2.3867,2.38 -7.1718,4.78 -9.5664,2.38 -4.7812,-2.38 -4.7812,-7.17 -2.3867,-11.96 l 31.0937,-38.28 4.785,2.39 c -11.453,15.01 -20.8592,29.1 -23.9256,45.47"
         style="fill:#0c744c;fill-opacity:1;fill-rule:nonzero;stroke:none"
         id="path128" /><path
         d="m 78.9453,1136.5 c -2.3945,4.79 -7.1797,4.79 -9.5742,2.39 -4.7852,-2.39 -4.7852,-7.18 -2.3906,-9.57 l 33.4925,-38.28 4.785,2.39 c -13.0392,12.8 -20.0822,29.72 -26.3127,43.07"
         style="fill:#0c744c;fill-opacity:1;fill-rule:nonzero;stroke:none"
         id="path130" /><path
         d="m 71.7656,1112.57 c -2.3945,2.39 -7.1797,2.39 -9.5664,0 -4.7851,-2.39 -4.7851,-7.18 -2.3945,-9.57 l 31.0937,-38.28 4.7852,2.39 c -11.4883,15.17 -20.8008,28.79 -23.918,45.46"
         style="fill:#0c744c;fill-opacity:1;fill-rule:nonzero;stroke:none"
         id="path132" /><path
         d="m 59.8047,1079.07 c -2.3906,4.79 -7.1797,4.79 -11.9609,2.39 -2.3907,-2.39 -2.3907,-7.17 0,-11.96 l 33.4882,-35.88 4.7852,4.78 c -13.2969,11.9 -20.1211,27.99 -26.3125,40.67"
         style="fill:#0c744c;fill-opacity:1;fill-rule:nonzero;stroke:none"
         id="path134" /><path
         d="m 50.2344,1050.36 c -2.3906,2.4 -7.1758,2.4 -9.5664,0 -2.3946,-2.39 -4.7813,-7.18 -2.3946,-9.57 l 35.8789,-38.28 4.793,4.79 c -12.082,13.58 -22.3242,26.81 -28.7109,43.06"
         style="fill:#0c744c;fill-opacity:1;fill-rule:nonzero;stroke:none"
         id="path136" /><path
         d="m 43.0586,1012.08 c -4.7852,2.39 -9.5664,4.78 -11.9609,0 -2.3907,-2.39 -2.3907,-7.18 0,-9.57 l 35.8828,-35.889 4.7851,4.785 c -13.9062,13.137 -24.9804,24.68 -28.707,40.674"
         style="fill:#0c744c;fill-opacity:1;fill-rule:nonzero;stroke:none"
         id="path138" /><path
         d="m 38.2734,971.406 c -2.3867,2.391 -7.1757,4.782 -11.9609,0 -2.3906,-2.394 -2.3906,-7.179 0,-9.574 l 35.8867,-35.883 4.7813,4.781 c -14.2617,11.61 -21.9492,27.997 -28.7071,40.676"
         style="fill:#0c744c;fill-opacity:1;fill-rule:nonzero;stroke:none"
         id="path140" /><path
         d="m 31.0977,925.949 c -2.3907,2.387 -7.1758,2.387 -11.9571,0 -2.3945,-2.398 -2.3945,-7.179 0,-9.574 l 35.8789,-35.891 4.7852,2.395 c -13.7305,14.101 -24.8984,26.434 -28.707,43.07"
         style="fill:#0c744c;fill-opacity:1;fill-rule:nonzero;stroke:none"
         id="path142" /><path
         d="m 26.3125,880.484 c -2.3906,2.395 -7.1719,4.789 -9.5664,0 -2.3906,-2.39 -4.7852,-7.175 0,-9.57 l 35.8789,-33.496 4.7891,2.391 c -13.1875,12.605 -24.5039,24.968 -31.1016,40.675"
         style="fill:#0c744c;fill-opacity:1;fill-rule:nonzero;stroke:none"
         id="path144" /><path
         d="m 26.3125,835.023 c -4.7852,4.786 -9.5664,4.786 -11.957,2.395 -2.3946,-4.781 -2.3946,-9.57 0,-11.961 l 38.2695,-31.109 4.7891,2.394 c -15.0703,10.242 -23.5586,25.793 -31.1016,38.281"
         style="fill:#0c744c;fill-opacity:1;fill-rule:nonzero;stroke:none"
         id="path146" /><path
         d="m 23.9219,794.348 c -4.7813,2.394 -9.5664,2.394 -11.961,0 -2.39449,-4.782 -2.39449,-9.567 2.3946,-11.961 l 43.0586,-26.317 2.3906,4.782 c -15.4336,8.394 -25.8516,21.871 -35.8828,33.496 v 0"
         style="fill:#0c744c;fill-opacity:1;fill-rule:nonzero;stroke:none"
         id="path148" /><path
         d="m 26.3125,751.285 c -4.7852,2.391 -9.5664,0 -11.957,-2.394 -2.3946,-4.778 0,-9.567 2.3906,-11.961 l 45.4531,-21.532 2.3867,4.782 c -17.1601,8.765 -30.3789,15.879 -38.2734,31.105"
         style="fill:#0c744c;fill-opacity:1;fill-rule:nonzero;stroke:none"
         id="path150" /><path
         d="m 31.0977,708.215 c -4.7852,2.394 -9.5704,0 -11.9571,-2.395 -2.3945,-4.789 0,-9.566 2.3867,-11.961 l 45.4532,-21.531 2.3906,4.781 c -17.1563,8.77 -30.3828,15.883 -38.2734,31.106"
         style="fill:#0c744c;fill-opacity:1;fill-rule:nonzero;stroke:none"
         id="path152" /><path
         d="m 35.8867,665.16 c -4.789,2.379 -9.5742,0 -11.9648,-2.398 0,-4.793 0,-9.582 4.7851,-9.582 l 47.8438,-16.739 2.3945,4.778 c -16.5469,6.152 -32.2617,12.929 -43.0586,23.941"
         style="fill:#0c744c;fill-opacity:1;fill-rule:nonzero;stroke:none"
         id="path154" /><path
         d="m 40.668,631.648 c -4.7813,2.403 -9.5703,0 -9.5703,-4.777 -2.3907,-2.402 0,-7.191 2.3945,-9.57 l 47.8398,-16.75 2.3946,4.789 c -16.3711,7.269 -31.3321,14.039 -43.0586,26.308"
         style="fill:#0c744c;fill-opacity:1;fill-rule:nonzero;stroke:none"
         id="path156" /><path
         d="m 47.8438,600.551 c -4.7852,2.39 -7.1758,0 -9.5704,-4.789 -2.3867,-2.403 0,-7.184 2.3946,-9.571 l 47.8437,-16.75 2.3867,4.789 c -16.3632,7.29 -31.3242,14.051 -43.0546,26.321"
         style="fill:#0c744c;fill-opacity:1;fill-rule:nonzero;stroke:none"
         id="path158" /><path
         d="m 55.0195,574.23 c -4.7851,2.391 -9.5664,0 -11.9609,-2.402 0,-4.789 0,-9.558 2.3945,-11.957 l 55.0199,-28.699 4.785,4.777 C 86.5898,547.98 66.3516,558.219 55.0195,574.23"
         style="fill:#0c744c;fill-opacity:1;fill-rule:nonzero;stroke:none"
         id="path160" /><path
         d="m 117.211,976.188 c 4.789,2.398 4.789,7.179 4.789,11.964 -2.395,2.395 -7.176,4.789 -11.961,2.395 l -43.0585,-26.32 2.3906,-4.782 c 15.3242,11.332 32.9839,13.739 47.8399,16.743"
         style="fill:#0c744c;fill-opacity:1;fill-rule:nonzero;stroke:none"
         id="path162" /><path
         d="m 110.039,940.305 c 2.391,2.386 4.785,7.172 2.391,9.566 -2.391,4.781 -7.172,4.781 -9.571,2.395 l -40.6598,-31.11 2.3867,-4.781 c 15.0039,11.449 29.0899,20.863 45.4531,23.93"
         style="fill:#0c744c;fill-opacity:1;fill-rule:nonzero;stroke:none"
         id="path164" /><path
         d="m 107.645,899.629 c 4.785,2.387 4.785,7.172 2.394,9.566 -2.394,4.789 -7.18,4.789 -9.566,2.395 l -40.6683,-31.106 2.3945,-4.785 c 15,11.449 29.086,20.867 45.4458,23.93"
         style="fill:#0c744c;fill-opacity:1;fill-rule:nonzero;stroke:none"
         id="path166" /><path
         d="m 102.859,858.953 c 4.786,2.391 4.786,7.18 2.399,11.961 -2.399,2.395 -7.1799,2.395 -11.965,0 l -35.8789,-33.496 2.3906,-4.781 c 12.7891,13.035 29.7226,20.078 43.0543,26.316"
         style="fill:#0c744c;fill-opacity:1;fill-rule:nonzero;stroke:none"
         id="path168" /><path
         d="m 100.473,818.277 c 4.785,2.391 4.785,7.18 2.386,9.571 -2.386,4.789 -7.1754,4.789 -9.566,2.39 l -38.2735,-35.89 4.7852,-4.782 c 12.2305,11.848 27.0195,20.325 40.6683,28.711"
         style="fill:#0c744c;fill-opacity:1;fill-rule:nonzero;stroke:none"
         id="path170" /><path
         d="m 102.859,782.387 c 4.786,2.394 4.786,7.179 0,11.961 -2.386,2.394 -7.1754,2.394 -9.566,0 l -33.4883,-38.278 4.7812,-4.785 c 10.3711,15.438 26.2735,23.856 38.2731,31.102"
         style="fill:#0c744c;fill-opacity:1;fill-rule:nonzero;stroke:none"
         id="path172" /><path
         d="m 105.258,748.891 c 2.387,2.394 2.387,7.179 0,11.961 -2.399,2.394 -7.1799,2.394 -9.5744,0 l -33.4844,-38.282 2.3867,-4.777 c 13.2227,15.004 24.0782,26.906 40.6721,31.098"
         style="fill:#0c744c;fill-opacity:1;fill-rule:nonzero;stroke:none"
         id="path174" /><path
         d="m 107.645,710.609 c 2.394,2.395 2.394,7.184 0,9.571 -2.387,4.789 -7.172,2.39 -11.9614,0 l -28.7031,-40.68 4.7851,-2.391 c 9.7071,14.309 23.5782,23.993 35.8794,33.5"
         style="fill:#0c744c;fill-opacity:1;fill-rule:nonzero;stroke:none"
         id="path176" /><path
         d="m 114.824,677.109 c 2.387,4.789 2.387,9.582 0,11.973 -4.785,2.395 -9.566,2.395 -11.965,-2.391 l -26.3082,-43.07 4.7812,-2.402 c 8.2578,15.34 22.445,26.359 33.492,35.89"
         style="fill:#0c744c;fill-opacity:1;fill-rule:nonzero;stroke:none"
         id="path178" /><path
         d="m 133.957,600.551 c 2.395,4.789 2.395,9.578 -2.387,11.961 -2.394,2.386 -7.179,2.386 -9.57,-2.383 l -26.3164,-43.09 4.7894,-2.379 c 9.742,15.981 18.316,28.488 33.484,35.891"
         style="fill:#0c744c;fill-opacity:1;fill-rule:nonzero;stroke:none"
         id="path180" /><path
         d="m 150.703,564.66 c 2.395,4.781 0,9.57 -2.39,11.961 -4.79,2.399 -9.571,0 -11.961,-2.391 l -23.922,-50.242 4.781,-2.398 c 9.609,18.43 17.176,34.121 33.492,43.07"
         style="fill:#0c744c;fill-opacity:1;fill-rule:nonzero;stroke:none"
         id="path182" /><path
         d="m 124.391,643.621 c 2.394,4.77 0,9.559 -2.391,11.957 -4.789,2.391 -9.57,0 -9.57,-2.398 l -26.3128,-50.239 4.7812,-2.39 c 7.6797,17.871 21.8396,31.219 33.4926,43.07"
         style="fill:#0c744c;fill-opacity:1;fill-rule:nonzero;stroke:none"
         id="path184" /><path
         d="M 315.758,1418.82 C 172.23,1277.66 81.332,1107.78 55.0195,923.551 28.707,736.93 69.3711,547.91 172.23,378.039 c 2.395,-4.789 7.18,-4.789 11.961,-2.398 4.786,2.398 4.786,7.179 2.391,9.57 C 86.1172,552.699 45.4531,736.93 71.7656,921.156 98.0781,1100.61 184.191,1270.48 325.328,1406.86 c 4.785,2.4 4.785,7.18 0,11.96 -2.394,2.4 -7.176,2.4 -9.57,0"
         style="fill:#0c744c;fill-opacity:1;fill-rule:nonzero;stroke:none"
         id="path186" /><path
         d="m 1440.05,1292.02 c -4.78,0 -7.17,4.78 -7.17,7.18 0,4.78 2.39,9.56 7.17,7.17 l 40.66,-4.78 v -7.18 c -15.65,4.89 -27.81,0.28 -40.66,-2.39"
         style="fill:#0c744c;fill-opacity:1;fill-rule:nonzero;stroke:none"
         id="path188" /><path
         d="m 1456.8,1268.09 c -4.79,0 -7.18,4.79 -7.18,7.18 0,4.78 2.39,7.18 7.18,7.18 l 40.66,-7.18 v -7.18 c -15.56,6.1 -27.98,2.07 -40.66,0"
         style="fill:#0c744c;fill-opacity:1;fill-rule:nonzero;stroke:none"
         id="path190" /><path
         d="m 1471.14,1244.16 c -4.78,0 -7.18,4.79 -7.18,7.18 0,4.79 4.79,7.18 9.58,7.18 l 40.66,-9.57 -2.39,-4.79 c -16.12,6.19 -28.06,2.06 -40.67,0"
         style="fill:#0c744c;fill-opacity:1;fill-rule:nonzero;stroke:none"
         id="path192" /><path
         d="m 1487.88,1217.85 c -4.77,0 -7.17,2.39 -7.17,7.17 2.4,4.79 4.78,7.18 9.57,7.18 l 40.66,-11.96 -2.39,-4.79 c -14.31,4.48 -28.76,2.84 -40.67,2.4"
         style="fill:#0c744c;fill-opacity:1;fill-rule:nonzero;stroke:none"
         id="path194" /><path
         d="m 1502.24,1191.53 c -2.38,0 -7.17,4.78 -4.78,9.57 0,2.39 4.78,4.78 9.56,4.78 l 38.28,-16.75 -2.38,-4.78 c -14.48,6.1 -27.25,8.64 -40.68,7.18"
         style="fill:#0c744c;fill-opacity:1;fill-rule:nonzero;stroke:none"
         id="path196" /><path
         d="m 1521.39,1160.43 c -2.4,0 -7.19,4.78 -4.79,7.17 0,4.79 4.79,7.17 9.56,7.17 l 38.29,-16.74 -2.4,-4.78 c -14.46,6.09 -27.23,8.64 -40.66,7.18 v 0"
         style="fill:#0c744c;fill-opacity:1;fill-rule:nonzero;stroke:none"
         id="path198" /><path
         d="m 1533.34,1131.71 c -4.79,0 -7.18,4.79 -4.79,9.58 0,2.38 4.79,4.78 9.58,4.78 l 38.27,-14.36 -2.4,-7.17 c -14.3,6.12 -27.35,8.62 -40.66,7.17"
         style="fill:#0c744c;fill-opacity:1;fill-rule:nonzero;stroke:none"
         id="path200" /><path
         d="m 1542.92,1103 c -4.79,2.39 -7.19,4.78 -4.79,9.57 0,4.79 4.79,7.18 9.56,4.79 l 38.28,-14.36 -2.39,-4.79 c -14.27,4.78 -26.71,6.59 -40.66,4.79"
         style="fill:#0c744c;fill-opacity:1;fill-rule:nonzero;stroke:none"
         id="path202" /><path
         d="m 1552.47,1076.68 c -2.39,2.39 -4.78,7.18 -2.39,11.96 0,2.4 4.79,4.79 9.58,4.79 l 35.87,-19.14 -2.39,-4.79 c -14.42,6.06 -26.39,8.74 -40.67,7.18 v 0"
         style="fill:#0c744c;fill-opacity:1;fill-rule:nonzero;stroke:none"
         id="path204" /><path
         d="m 1562.05,1045.58 c -2.39,0 -4.79,4.78 -2.39,9.56 0,2.4 4.79,4.79 9.56,2.4 l 35.89,-19.14 -2.4,-4.78 c -13.78,6.31 -27,10.63 -40.66,11.96 v 0"
         style="fill:#0c744c;fill-opacity:1;fill-rule:nonzero;stroke:none"
         id="path206" /><path
         d="m 1575.74,1009.49 c -4.79,0 -8.91,7.37 -6.52,12.16 2.39,2.39 4.78,4.79 9.57,4.79 l 35.87,-21.54 -2.38,-4.78 c -12.5,6.65 -24.85,6.65 -36.54,9.37 v 0"
         style="fill:#0c744c;fill-opacity:1;fill-rule:nonzero;stroke:none"
         id="path208" /><path
         d="m 1418.52,1315.95 c -2.39,0 -7.17,2.39 -7.17,7.17 0,4.79 4.78,7.18 9.55,7.18 l 40.68,-7.18 v -4.78 c -17.08,4.7 -30.06,0.19 -43.06,-2.39"
         style="fill:#0c744c;fill-opacity:1;fill-rule:nonzero;stroke:none"
         id="path210" /><path
         d="m 1399.37,1339.87 c -2.38,0 -7.16,2.4 -7.16,7.18 0,4.78 4.78,7.18 9.56,7.18 l 40.66,-7.18 v -4.78 c -17.07,4.69 -30.06,0.18 -43.06,-2.4"
         style="fill:#0c744c;fill-opacity:1;fill-rule:nonzero;stroke:none"
         id="path212" /><path
         d="m 1377.84,1361.41 c -4.77,0 -9.55,4.78 -7.16,9.56 0,2.4 2.39,7.18 7.16,7.18 l 40.68,-7.18 v -4.78 c -15.23,3.42 -27.84,-1.55 -40.68,-4.78 v 0"
         style="fill:#0c744c;fill-opacity:1;fill-rule:nonzero;stroke:none"
         id="path214" /><path
         d="m 1361.1,1387.72 c -4.78,2.39 -7.17,4.79 -7.17,9.57 0,4.79 4.78,7.18 9.57,7.18 l 38.27,-11.96 v -7.18 c -15.12,7.65 -27.85,3.92 -40.67,2.39"
         style="fill:#0c744c;fill-opacity:1;fill-rule:nonzero;stroke:none"
         id="path216" /><path
         d="m 1400.4,1416.42 c -1.14,4.65 2.94,8.1 8.15,6.92 4.65,1.14 8.1,-2.94 6.93,-8.16 l -4.84,-40.59 -5.21,1.18 c 2.31,15.15 -2.02,27.94 -5.03,40.65"
         style="fill:#0c744c;fill-opacity:1;fill-rule:nonzero;stroke:none"
         id="path218" /><path
         d="m 1435.27,1404.47 c 0,2.39 4.78,4.79 9.56,4.79 2.39,0 4.79,-4.79 4.79,-9.58 l -14.35,-38.27 h -4.79 c 4.6,15.09 6.5,29.34 4.79,43.06"
         style="fill:#0c744c;fill-opacity:1;fill-rule:nonzero;stroke:none"
         id="path220" /><path
         d="m 1456.8,1382.94 c 0,4.78 4.78,7.17 9.56,4.78 4.78,0 4.78,-4.78 4.78,-9.57 l -19.13,-45.46 h -4.79 c 7.87,16.83 8.38,35.68 9.58,50.25"
         style="fill:#0c744c;fill-opacity:1;fill-rule:nonzero;stroke:none"
         id="path222" /><path
         d="m 1475.93,1361.41 c 2.4,4.78 4.78,7.17 9.56,7.17 4.79,-2.39 7.18,-4.79 7.18,-9.57 l -19.13,-47.85 -4.79,2.39 c 9.7,17.08 7.56,33.47 7.18,47.86"
         style="fill:#0c744c;fill-opacity:1;fill-rule:nonzero;stroke:none"
         id="path224" /><path
         d="m 1495.07,1342.27 c 0,4.78 4.79,4.78 9.57,4.78 2.38,-2.4 4.77,-4.78 4.77,-9.57 l -21.53,-45.46 h -4.77 c 7.56,17.28 13.04,33.76 11.96,50.25 v 0"
         style="fill:#0c744c;fill-opacity:1;fill-rule:nonzero;stroke:none"
         id="path226" /><path
         d="m 1516.6,1315.95 c 2.39,2.39 4.79,4.78 9.56,4.78 4.78,-2.39 7.18,-7.18 4.78,-11.97 -2.39,-2.39 -4.78,-4.78 -7.17,-4.78 l -14.36,-40.68 -4.77,2.4 14.35,40.67 c -2.39,2.39 -4.79,4.79 -2.39,9.58"
         style="fill:#0c744c;fill-opacity:1;fill-rule:nonzero;stroke:none"
         id="path228" /><path
         d="m 1535.73,1287.23 c 0,4.79 4.79,4.79 9.57,4.79 2.39,-2.4 4.78,-7.18 4.78,-9.57 l -21.53,-45.47 -7.16,2.4 c 8.88,16.58 15.12,31.64 14.34,47.85"
         style="fill:#0c744c;fill-opacity:1;fill-rule:nonzero;stroke:none"
         id="path230" /><path
         d="m 1552.47,1263.3 c 0,2.4 4.79,4.79 9.58,2.4 2.4,0 4.78,-4.79 2.4,-9.57 l -23.93,-43.07 -4.79,2.39 c 8,16.08 14.66,31.63 16.74,47.85 v 0"
         style="fill:#0c744c;fill-opacity:1;fill-rule:nonzero;stroke:none"
         id="path232" /><path
         d="m 1569.22,1232.2 c 2.39,4.78 7.18,4.78 9.57,4.78 4.79,-2.38 7.18,-7.17 4.79,-11.96 l -23.92,-43.06 -7.19,2.39 c 9.97,16.6 17.25,31.26 16.75,47.85 v 0"
         style="fill:#0c744c;fill-opacity:1;fill-rule:nonzero;stroke:none"
         id="path234" /><path
         d="m 1583.58,1210.67 c 2.39,2.39 7.17,4.78 9.56,2.39 4.78,-2.39 4.78,-7.18 2.39,-11.96 l -28.7,-40.67 -4.78,2.38 c 10.17,16.01 18.74,30.98 21.53,47.86 v 0"
         style="fill:#0c744c;fill-opacity:1;fill-rule:nonzero;stroke:none"
         id="path236" /><path
         d="m 1595.53,1181.96 c 2.39,2.39 7.18,4.78 9.58,2.39 4.78,-2.39 4.78,-7.18 4.78,-9.58 l -28.71,-43.06 -4.78,2.4 c 9.1,15.64 16.69,31.15 19.13,47.85 v 0"
         style="fill:#0c744c;fill-opacity:1;fill-rule:nonzero;stroke:none"
         id="path238" /><path
         d="m 1607.5,1160.43 c 2.39,2.38 7.16,4.78 9.56,2.38 4.79,-2.38 4.79,-7.17 2.39,-11.96 l -31.09,-38.28 -4.78,2.39 c 11.44,15.01 20.85,29.1 23.92,45.47"
         style="fill:#0c744c;fill-opacity:1;fill-rule:nonzero;stroke:none"
         id="path240" /><path
         d="m 1619.45,1136.5 c 2.4,4.79 7.19,4.79 9.58,2.39 4.78,-2.39 4.78,-7.18 2.38,-9.57 l -33.49,-38.28 -4.78,2.39 c 13.04,12.8 20.08,29.72 26.31,43.07"
         style="fill:#0c744c;fill-opacity:1;fill-rule:nonzero;stroke:none"
         id="path242" /><path
         d="m 1626.64,1112.57 c 2.39,2.39 7.17,2.39 9.55,0 4.79,-2.39 4.79,-7.18 2.4,-9.57 l -31.09,-38.28 -4.79,2.39 c 11.48,15.17 20.8,28.79 23.93,45.46 v 0"
         style="fill:#0c744c;fill-opacity:1;fill-rule:nonzero;stroke:none"
         id="path244" /><path
         d="m 1638.59,1079.07 c 2.39,4.79 7.18,4.79 11.97,2.39 2.38,-2.39 2.38,-7.17 0,-11.96 l -33.5,-35.88 -4.78,4.78 c 13.3,11.9 20.12,27.99 26.31,40.67"
         style="fill:#0c744c;fill-opacity:1;fill-rule:nonzero;stroke:none"
         id="path246" /><path
         d="m 1648.17,1050.36 c 2.39,2.4 7.17,2.4 9.55,0 2.4,-2.39 4.79,-7.18 2.4,-9.57 l -35.88,-38.28 -4.79,4.79 c 12.08,13.58 22.33,26.81 28.72,43.06 v 0"
         style="fill:#0c744c;fill-opacity:1;fill-rule:nonzero;stroke:none"
         id="path248" /><path
         d="m 1655.34,1012.08 c 2.38,2.39 7.17,4.78 11.96,0 2.4,-2.39 2.4,-7.18 0,-9.57 l -35.89,-35.889 -4.77,4.785 c 13.9,13.137 24.98,24.68 28.7,40.674 v 0"
         style="fill:#0c744c;fill-opacity:1;fill-rule:nonzero;stroke:none"
         id="path250" /><path
         d="m 1660.12,971.406 c 2.39,2.391 7.18,4.782 11.97,0 2.38,-2.394 2.38,-7.179 0,-9.574 l -35.9,-35.883 -4.78,4.781 c 14.27,11.61 21.96,27.997 28.71,40.676 v 0"
         style="fill:#0c744c;fill-opacity:1;fill-rule:nonzero;stroke:none"
         id="path252" /><path
         d="m 1667.3,925.949 c 2.4,2.387 7.17,2.387 11.95,0 2.4,-2.398 2.4,-7.179 0,-9.574 l -35.87,-35.891 -4.79,2.395 c 13.73,14.101 24.91,26.434 28.71,43.07"
         style="fill:#0c744c;fill-opacity:1;fill-rule:nonzero;stroke:none"
         id="path254" /><path
         d="m 1672.09,880.484 c 2.38,2.395 7.16,4.789 9.56,0 2.39,-2.39 4.78,-7.175 0,-9.57 l -35.88,-33.496 -4.79,2.391 c 13.2,12.605 24.51,24.968 31.11,40.675"
         style="fill:#0c744c;fill-opacity:1;fill-rule:nonzero;stroke:none"
         id="path256" /><path
         d="m 1672.09,835.023 c 4.78,4.786 9.56,4.786 11.95,2.395 2.39,-4.781 2.39,-9.57 0,-11.961 l -38.27,-31.109 -4.79,2.394 c 15.31,10.098 24.3,27.02 31.11,38.281"
         style="fill:#0c744c;fill-opacity:1;fill-rule:nonzero;stroke:none"
         id="path258" /><path
         d="m 1674.47,794.348 c 4.78,2.394 9.57,2.394 11.96,0 2.4,-4.782 0,-9.567 -2.39,-11.961 l -43.06,-26.317 -4.79,4.782 c 16.28,8.14 27.64,21.851 38.28,33.496 v 0"
         style="fill:#0c744c;fill-opacity:1;fill-rule:nonzero;stroke:none"
         id="path260" /><path
         d="m 1672.09,751.285 c 4.78,2.391 9.56,0 11.95,-2.394 2.39,-4.778 0,-9.567 -2.39,-11.961 l -45.46,-21.532 -2.38,4.782 c 17.16,8.765 30.38,15.879 38.28,31.105 v 0"
         style="fill:#0c744c;fill-opacity:1;fill-rule:nonzero;stroke:none"
         id="path262" /><path
         d="m 1667.3,708.215 c 4.79,2.394 9.57,0 11.95,-2.395 0,-4.789 0,-9.566 -2.38,-11.961 l -45.46,-21.531 -4.77,4.781 c 18.31,8.871 32.44,15.871 40.66,31.106 v 0 0"
         style="fill:#0c744c;fill-opacity:1;fill-rule:nonzero;stroke:none"
         id="path264" /><path
         d="m 1662.51,665.16 c 4.79,2.379 9.58,0 11.96,-2.398 0,-4.793 0,-9.582 -4.77,-9.582 l -47.85,-16.739 -2.4,4.778 c 16.56,6.152 32.26,12.929 43.06,23.941"
         style="fill:#0c744c;fill-opacity:1;fill-rule:nonzero;stroke:none"
         id="path266" /><path
         d="m 1657.72,631.648 c 4.79,2.403 9.58,0 9.58,-4.777 2.4,-2.402 0,-7.191 -2.39,-9.57 l -47.85,-16.75 -2.4,4.789 c 16.38,7.269 31.35,14.039 43.06,26.308 v 0"
         style="fill:#0c744c;fill-opacity:1;fill-rule:nonzero;stroke:none"
         id="path268" /><path
         d="m 1650.56,600.551 c 2.38,2.39 7.16,0 9.56,-4.789 2.39,-2.403 0,-7.184 -2.4,-9.571 l -47.83,-16.75 -2.39,4.789 c 16.37,7.29 31.32,14.051 43.06,26.321 v 0"
         style="fill:#0c744c;fill-opacity:1;fill-rule:nonzero;stroke:none"
         id="path270" /><path
         d="m 1643.38,574.23 c 4.79,2.391 9.56,0 9.56,-2.402 2.4,-4.789 2.4,-9.558 0,-11.957 l -55.02,-28.699 -4.78,4.777 c 18.66,12.031 38.9,22.27 50.24,38.281"
         style="fill:#0c744c;fill-opacity:1;fill-rule:nonzero;stroke:none"
         id="path272" /><path
         d="m 1581.18,976.188 c -4.78,2.398 -4.78,7.179 -4.78,11.964 2.39,2.395 7.18,4.789 11.96,2.395 l 43.05,-26.32 -2.38,-4.782 c -15.11,11.028 -32.84,13.715 -47.85,16.743"
         style="fill:#0c744c;fill-opacity:1;fill-rule:nonzero;stroke:none"
         id="path274" /><path
         d="m 1588.36,940.305 c -2.39,2.386 -4.78,7.172 -2.39,9.566 2.39,4.781 7.17,4.781 9.56,2.395 l 40.66,-31.11 -2.38,-4.781 c -15,11.449 -29.09,20.863 -45.45,23.93"
         style="fill:#0c744c;fill-opacity:1;fill-rule:nonzero;stroke:none"
         id="path276" /><path
         d="m 1590.75,899.629 c -4.78,2.387 -4.78,7.172 -2.39,9.566 2.39,4.789 7.17,4.789 9.56,2.395 l 40.67,-31.106 -2.4,-4.785 c -13.91,11.785 -31.45,18.219 -45.44,23.93"
         style="fill:#0c744c;fill-opacity:1;fill-rule:nonzero;stroke:none"
         id="path278" /><path
         d="m 1595.53,858.953 c -4.78,2.391 -4.78,7.18 -2.39,11.961 2.39,2.395 7.18,2.395 11.97,0 2.39,-2.394 2.39,-4.781 2.39,-7.176 l 33.48,-26.32 -2.39,-4.781 -35.88,26.316 c -2.39,-2.394 -4.79,-2.394 -7.18,0"
         style="fill:#0c744c;fill-opacity:1;fill-rule:nonzero;stroke:none"
         id="path280" /><path
         d="m 1595.53,818.277 c -2.39,2.391 -2.39,7.18 0,9.571 2.39,4.789 7.18,4.789 9.58,2.39 l 38.27,-35.89 -4.79,-4.782 c -13.57,12.079 -26.81,22.329 -43.06,28.711"
         style="fill:#0c744c;fill-opacity:1;fill-rule:nonzero;stroke:none"
         id="path282" /><path
         d="m 1595.53,782.387 c -4.78,2.394 -4.78,7.179 0,11.961 2.39,2.394 7.18,2.394 9.58,0 l 33.48,-38.278 -4.78,-4.785 c -10.37,15.438 -26.27,23.856 -38.28,31.102"
         style="fill:#0c744c;fill-opacity:1;fill-rule:nonzero;stroke:none"
         id="path284" /><path
         d="m 1593.14,748.891 c -2.39,2.394 -2.39,7.179 0,11.961 2.39,2.394 7.18,2.394 9.57,0 l 33.48,-38.282 -2.38,-4.777 c -13.08,14.816 -24.26,26.953 -40.67,31.098 v 0"
         style="fill:#0c744c;fill-opacity:1;fill-rule:nonzero;stroke:none"
         id="path286" /><path
         d="m 1590.75,710.609 c -2.39,2.395 -2.39,7.184 0,9.571 2.39,4.789 7.17,2.39 9.57,0 l 31.09,-40.68 -4.77,-2.391 c -9.72,14.309 -23.59,23.993 -35.89,33.5"
         style="fill:#0c744c;fill-opacity:1;fill-rule:nonzero;stroke:none"
         id="path288" /><path
         d="m 1583.58,677.109 c -2.4,4.789 -2.4,9.582 0,11.973 4.78,2.395 9.56,2.395 11.95,-2.391 l 26.32,-43.07 -4.79,-2.402 c -8.25,15.34 -22.45,26.359 -33.48,35.89"
         style="fill:#0c744c;fill-opacity:1;fill-rule:nonzero;stroke:none"
         id="path290" /><path
         d="m 1564.45,600.551 c -2.4,4.789 -2.4,9.578 2.38,11.961 2.39,2.386 7.17,2.386 9.57,-2.383 l 26.31,-43.09 -4.79,-2.379 c -8.38,15.442 -21.85,25.86 -33.47,35.891"
         style="fill:#0c744c;fill-opacity:1;fill-rule:nonzero;stroke:none"
         id="path292" /><path
         d="m 1547.69,564.66 c -2.39,4.781 0,9.57 2.39,11.961 4.79,2.399 9.58,0 11.97,-2.391 l 23.92,-50.242 -4.79,-2.398 c -9.6,18.43 -17.17,34.121 -33.49,43.07 v 0 0"
         style="fill:#0c744c;fill-opacity:1;fill-rule:nonzero;stroke:none"
         id="path294" /><path
         d="m 1574,643.621 c -2.39,4.77 -2.39,9.559 2.4,11.957 2.39,2.391 7.18,0 9.57,-2.398 l 26.31,-50.239 -4.78,-2.39 c -7.67,17.871 -21.84,31.219 -33.5,43.07"
         style="fill:#0c744c;fill-opacity:1;fill-rule:nonzero;stroke:none"
         id="path296" /><path
         d="m 1382.63,1418.82 c 143.53,-141.16 234.43,-311.04 260.75,-495.269 26.32,-186.621 -14.35,-375.641 -117.22,-545.512 -2.39,-4.789 -9.56,-4.789 -11.96,-2.398 -4.79,2.398 -4.79,7.179 -2.39,9.57 100.47,167.488 141.13,351.719 114.83,535.945 -26.32,179.454 -112.44,349.324 -253.57,485.704 -4.78,2.4 -4.78,7.18 0,11.96 2.39,2.4 7.17,2.4 9.56,0"
         style="fill:#0c744c;fill-opacity:1;fill-rule:nonzero;stroke:none"
         id="path298" /><path
         d="m 1545.3,464.16 -32.36,98.262 C 1454.89,405.07 1338.51,273.57 1192.07,192.789 V 29.2383 h -17.54 V 0 c 255.95,100.5 452.11,318.219 523.87,588.578 L 1545.3,464.16"
         style="fill:#bd9f53;fill-opacity:1;fill-rule:nonzero;stroke:none"
         id="path300" /><path
         d="M 506.324,29.2383 V 193.27 h 1.832 C 360.809,272.02 242.203,398.77 184.184,556.031 L 153.098,464.16 0,588.578 C 71.7656,318.219 267.914,100.5 523.875,0 v 29.2383 h -17.551"
         style="fill:#bd9f53;fill-opacity:1;fill-rule:nonzero;stroke:none"
         id="path302" /><path
         d="M 509.328,32.25 H 1189.06 V 190.262 H 509.328 Z M 1195.07,26.2383 H 503.32 V 196.27 h 691.75 V 26.2383"
         style="fill:#bd9f53;fill-opacity:1;fill-rule:nonzero;stroke:none"
         id="path304" /><path
         d="m 849.199,162.672 c -28.344,0 -51.406,-23.07 -51.406,-51.422 0,-28.3398 23.062,-51.3984 51.406,-51.3984 28.336,0 51.403,23.0586 51.403,51.3984 0,28.352 -23.067,51.422 -51.403,51.422 z m 0,-111.2306 c -32.988,0 -59.82,26.8203 -59.82,59.8086 0,32.988 26.832,59.82 59.82,59.82 32.985,0 59.809,-26.832 59.809,-59.82 0,-32.9883 -26.824,-59.8086 -59.809,-59.8086"
         style="fill:#921935;fill-opacity:1;fill-rule:nonzero;stroke:none"
         id="path306" /><path
         d="m 1023.4,162.672 c -28.334,0 -51.404,-23.07 -51.404,-51.422 0,-28.3398 23.07,-51.3984 51.404,-51.3984 28.35,0 51.42,23.0586 51.42,51.3984 0,28.352 -23.07,51.422 -51.42,51.422 z m 0,-111.2306 c -32.982,0 -59.806,26.8203 -59.806,59.8086 0,32.988 26.824,59.82 59.806,59.82 32.99,0 59.82,-26.832 59.82,-59.82 0,-32.9883 -26.83,-59.8086 -59.82,-59.8086"
         style="fill:#921935;fill-opacity:1;fill-rule:nonzero;stroke:none"
         id="path308" /><path
         d="m 936.301,162.672 c -28.336,0 -51.406,-23.07 -51.406,-51.422 0,-28.3398 23.07,-51.3984 51.406,-51.3984 28.347,0 51.418,23.0586 51.418,51.3984 0,28.352 -23.071,51.422 -51.418,51.422 z m 0,-111.2306 c -32.988,0 -59.809,26.8203 -59.809,59.8086 0,32.988 26.821,59.82 59.809,59.82 32.984,0 59.82,-26.832 59.82,-59.82 0,-32.9883 -26.836,-59.8086 -59.82,-59.8086"
         style="fill:#921935;fill-opacity:1;fill-rule:nonzero;stroke:none"
         id="path310" /><path
         d="m 762.09,162.672 c -28.344,0 -51.399,-23.07 -51.399,-51.422 0,-28.3398 23.055,-51.3984 51.399,-51.3984 28.344,0 51.406,23.0586 51.406,51.3984 0,28.352 -23.062,51.422 -51.406,51.422 z m 0,-111.2306 c -32.981,0 -59.817,26.8203 -59.817,59.8086 0,32.988 26.836,59.82 59.817,59.82 32.988,0 59.82,-26.832 59.82,-59.82 0,-32.9883 -26.832,-59.8086 -59.82,-59.8086"
         style="fill:#921935;fill-opacity:1;fill-rule:nonzero;stroke:none"
         id="path312" /><path
         d="m 674.988,162.672 c -28.343,0 -51.402,-23.07 -51.402,-51.422 0,-28.3398 23.059,-51.3984 51.402,-51.3984 28.344,0 51.399,23.0586 51.399,51.3984 0,28.352 -23.055,51.422 -51.399,51.422 z m 0,-111.2306 c -32.984,0 -59.82,26.8203 -59.82,59.8086 0,32.988 26.836,59.82 59.82,59.82 32.981,0 59.817,-26.832 59.817,-59.82 0,-32.9883 -26.836,-59.8086 -59.817,-59.8086"
         style="fill:#921935;fill-opacity:1;fill-rule:nonzero;stroke:none"
         id="path314" /><path
         d="m 587.887,162.672 c -28.344,0 -51.407,-23.07 -51.407,-51.422 0,-28.3398 23.063,-51.3984 51.407,-51.3984 28.343,0 51.398,23.0586 51.398,51.3984 0,28.352 -23.055,51.422 -51.398,51.422 z m 0,-111.2306 c -32.989,0 -59.821,26.8203 -59.821,59.8086 0,32.988 26.832,59.82 59.821,59.82 32.98,0 59.812,-26.832 59.812,-59.82 0,-32.9883 -26.832,-59.8086 -59.812,-59.8086"
         style="fill:#921935;fill-opacity:1;fill-rule:nonzero;stroke:none"
         id="path316" /><path
         d="m 1110.5,162.672 c -28.33,0 -51.39,-23.07 -51.39,-51.422 0,-28.3398 23.06,-51.3984 51.39,-51.3984 28.35,0 51.42,23.0586 51.42,51.3984 0,28.352 -23.07,51.422 -51.42,51.422 z m 0,-111.2306 c -32.97,0 -59.79,26.8203 -59.79,59.8086 0,32.988 26.82,59.82 59.79,59.82 32.99,0 59.83,-26.832 59.83,-59.82 0,-32.9883 -26.84,-59.8086 -59.83,-59.8086"
         style="fill:#921935;fill-opacity:1;fill-rule:nonzero;stroke:none"
         id="path318" /><path
         d="m 519.133,1516.66 27.285,12.27 10.391,-23.09 -27.286,-12.28 -10.39,23.1"
         style="fill:#0c744c;fill-opacity:1;fill-rule:nonzero;stroke:none"
         id="path320" /><path
         d="m 689.664,1596.67 -26.711,46.79 -0.496,-0.11 -5.301,-53.97 z m -50.863,65.94 40.469,9.08 74.148,-109.14 -37.484,-8.41 -13.692,22.19 -47.933,-10.76 -2.731,-25.88 -33.168,-7.44 20.391,130.36"
         style="fill:#0c744c;fill-opacity:1;fill-rule:nonzero;stroke:none"
         id="path322" /><path
         d="m 793.496,1631.39 15.117,0.79 c 8.321,0.42 21.739,1.11 20.891,17.57 -0.762,14.96 -12.863,15.19 -22.715,14.68 l -14.941,-0.77 z m -36.953,53.29 56.379,2.88 c 9.512,0.49 21.914,1.12 32.254,-4.65 10.683,-5.75 18.215,-16.44 19.023,-32.39 1.106,-21.57 -12.168,-31.61 -16.797,-34.41 -9.238,-5.75 -24.011,-6.51 -30.632,-6.84 l -22.071,-1.31 2.254,-44.15 -34.129,-1.75 -6.281,122.62"
         style="fill:#0c744c;fill-opacity:1;fill-rule:nonzero;stroke:none"
         id="path324" /><path
         d="m 921.086,1632.71 12.684,-1.33 c 7.433,-0.79 11.152,-1.18 14.132,-0.47 7.696,1.58 10.02,9.02 10.43,12.91 1.59,15.05 -11.602,16.44 -21.406,17.48 l -12.676,1.34 z m -28.449,56 56.465,-5.97 c 21.984,-2.31 30.128,-4.54 36.613,-12.75 3.32,-4.11 7.344,-11.37 5.945,-24.56 -1.406,-13.35 -7.422,-18.54 -13.543,-21.48 -8.301,-4.08 -15.832,-4.14 -19.258,-4.28 l -0.078,-0.69 c 23.602,-3.17 23.848,-13.8 24.571,-32.85 0.312,-8.41 0.605,-21.77 2.566,-30.7 l -36.68,3.87 c -1.25,7.66 -1.113,17.05 -1.152,27.99 0.031,14.88 0.098,20.34 -15.117,21.95 l -14.207,1.49 -5.032,-47.68 -33.984,3.59 12.891,122.07"
         style="fill:#0c744c;fill-opacity:1;fill-rule:nonzero;stroke:none"
         id="path326" /><path
         d="m 1031.78,1672.52 51.24,-15.53 -4.59,-85.45 42.65,73.92 51.12,-15.32 -35.47,-117.64 -30.74,9.32 31.33,98.12 -57.68,-90.15 -29.28,8.88 3.27,107.51 -29.29,-99.63 -28.149,8.53 35.589,117.44"
         style="fill:#0c744c;fill-opacity:1;fill-rule:nonzero;stroke:none"
         id="path328" /><path
         d="m 1215.66,1499.4 26.04,-14.69 -12.43,-22.05 -26.05,14.69 12.44,22.05"
         style="fill:#0c744c;fill-opacity:1;fill-rule:nonzero;stroke:none"
         id="path330" /><g
         id="g332"><g
           id="g334"
           clip-path="url(#clipPath338)"><g
             id="g340"
             clip-path="url(#clipPath344)"><path
               d="m 1607.17,807.496 c 0,-428.695 -337.94,-776.2147 -754.807,-776.2147 -416.867,0 -754.8044,347.5197 -754.8044,776.2147 0,428.704 337.9374,776.224 754.8044,776.224 416.867,0 754.807,-347.52 754.807,-776.224"
               style="fill:#a83239;fill-opacity:1;fill-rule:nonzero;stroke:none"
               id="path346" /><path
               d="m 301.148,694.785 c 0,0 -45.808,-78.523 -53.441,-78.695 -7.637,-0.168 -50.898,177.613 -50.898,177.613 V 970.477 L 224.805,1120.5 390.219,1344 586.176,1406.7 535.277,1216.14 301.148,694.785"
               style="fill:#94512b;fill-opacity:1;fill-rule:nonzero;stroke:none"
               id="path348" /><path
               d="m 139.535,1248.03 c 0,9.07 184.094,158.67 184.094,158.67 l 58.531,-87.55 v -93.19 l -71.258,-88.29 -35.519,-79.47 c 0,0 -21.145,-51.5 -34.992,-49.72 -30.371,3.89 -47.039,112.02 -47.039,112.02 l -18.598,73.57 -35.219,53.96"
               style="fill:#e45124;fill-opacity:1;fill-rule:nonzero;stroke:none"
               id="path350" /><path
               d="m 184.254,951.277 -15.649,145.713 33.461,31.79 26.989,-73.73 -7.438,-88.609 -4.601,-16.035 -4.938,-25.672 V 805.047 l 43.051,-163.625 315.562,-399.75 311.93,-78.512 v -37.148 l -164.961,34.937 -149.512,45.61 c 0,0 -101.746,48.101 -132.121,72.621 -52.25,42.179 -128.777,148.57 -157.781,209.371 -12.73,26.679 -43.476,113.027 -43.476,113.027 l -17.813,83.391 -18.449,62.758 -14.254,203.55"
               style="fill:#59242b;fill-opacity:1;fill-rule:nonzero;stroke:none"
               id="path352" /><path
               d="M 955.18,178.711 900.891,126.012 848.297,73.3086 955.18,45.0195 c 0,0 103.49,23.0586 108.58,28.2891 5.09,5.2305 59.38,38.5504 59.38,38.5504 0,0 3.4,125.45 0,129.813 -3.39,4.359 -83.13,13.09 -83.13,13.09 l -84.83,-76.051"
               style="fill:#a54d27;fill-opacity:1;fill-rule:nonzero;stroke:none"
               id="path354" /><path
               d="M 993.605,213.148 1012.86,187.32 905.555,110.82 793.582,84.6484 c 0,0 -77.617,-28.789 -82.707,-27.0468 -5.09,1.75 -69.562,33.1484 -69.562,33.1484 v 27.34 c 0,0 41.41,36.262 51.746,42.859 12.254,7.821 100.386,-21.16 125.972,-16.109 34.535,6.82 -14.847,42.48 -14.847,42.48 l 189.421,25.828"
               style="fill:#ed4939;fill-opacity:1;fill-rule:nonzero;stroke:none"
               id="path356" /><path
               d="m 432.211,1360.48 35.629,39.25 139.965,68.41 c 0,0 94.16,45.44 156.511,46.75 62.348,1.31 151.418,10.47 211.223,0 59.801,-10.47 127.241,-24.14 164.141,-46.75 l -176.864,-27.98 -369.007,-33.88 -161.598,-45.8"
               style="fill:#973649;fill-opacity:1;fill-rule:nonzero;stroke:none"
               id="path358" /><path
               d="m 1174.04,108.199 -23.75,47.11 174.75,148.3 49.2,62.813 71.25,118.637 39.02,90.269 18.67,169.945 13.57,126.68 v 79.324 l -16.97,-169.222 -15.27,-76.032 -44.11,-64.601 -15.27,78.484 49.21,129.18 c 0,0 40.71,106.668 35.62,113.84 -5.09,7.172 -59.38,127.534 -59.38,127.534 l -66.16,165.94 -16.97,70.11 149.3,-242.29 54.29,-235.146 -33.93,-270.062 -23.75,-250.973 -339.32,-219.84"
               style="fill:#571f22;fill-opacity:1;fill-rule:nonzero;stroke:none"
               id="path360" /><path
               d="m 1118.05,251.27 -37.32,-125.258 47.5,38.019 45.81,42.528 42.41,35.113 39.03,35.769 20.36,13.957 15.26,36.641 -18.66,33.152 -154.39,-109.921"
               style="fill:#e94d23;fill-opacity:1;fill-rule:nonzero;stroke:none"
               id="path362" /><path
               d="m 1034.92,1451.59 201.89,-115.27 91.62,-78.48 57.68,-129.06 30.54,-211.46 22.06,-10.8 23.75,41.464 v 63.886 l -54.29,146.38 -54.29,99.59 -45.81,61.31 -127.24,73.58 -100.1,49.05 -45.81,9.81"
               style="fill:#954f32;fill-opacity:1;fill-rule:nonzero;stroke:none"
               id="path364" /></g></g></g><g
         id="g366"><g
           id="g368"
           clip-path="url(#clipPath372)"><path
             d="m 1417.79,809.359 c 0,-322.847 -254.63,-584.57 -568.724,-584.57 -314.097,0 -568.722,261.723 -568.722,584.57 0,322.851 254.625,584.571 568.722,584.571 314.094,0 568.724,-261.72 568.724,-584.571"
             style="fill:#ad244c;fill-opacity:1;fill-rule:nonzero;stroke:none"
             id="path374" /><path
             d="m 862.129,301.281 54.57,-17 66.153,-11.902 h 35.608 L 1092,311.48 c 0,0 43,17 79.38,40.801 36.38,23.789 76.18,62.891 76.18,62.891 l 47.85,47.598 54.57,100.289 H 1206.11 L 907.676,468.539 862.129,301.281"
             style="fill:#d24e21;fill-opacity:1;fill-rule:nonzero;stroke:none"
             id="path376" /><path
             d="m 1131.69,649.75 -59.54,13.602 -147.181,-74.801 1.652,-158.082 61.192,84.992 46.787,-24.352 -88.131,-150.73 -11.578,-11.899 h 61.191 l 97.568,11.899 74.42,61.191 57.88,32.301 71.11,62.039 54.58,73.949 52.01,109.379 -91.7,-15.886 -180.26,-13.602"
             style="fill:#ec6c29;fill-opacity:1;fill-rule:nonzero;stroke:none"
             id="path378" /><path
             d="m 867.09,336.98 c 0,0 -76.899,-54.3 -102.121,-56.902 -25.219,-2.598 -66.563,14.402 -66.563,14.402 l -56.23,25.5 -72.766,42.489 -47.957,35.703 -51.265,30.598 c 0,0 -56.227,49.289 -64.497,71.39 -8.269,22.102 -59.535,118.988 -59.535,118.988 L 306.465,695.645 293.234,780.637 569.41,624.25 837.32,421.969 867.09,336.98"
             style="fill:#d62a46;fill-opacity:1;fill-rule:nonzero;stroke:none"
             id="path380" /><path
             d="M 412.305,709.242 395.766,633.18 v -32.731 c 0,0 4.964,-11.898 16.539,-20.398 11.578,-8.492 44.652,-37.391 44.652,-37.391 l 31.422,-54.398 c 0,0 16.535,-17 34.726,-30.59 18.192,-13.602 49.614,-42.5 49.614,-42.5 l 36.383,-35.75 23.152,-3.492 c 0,0 -1.652,1.84 26.461,-15.16 28.113,-16.989 47.961,-16.989 47.961,-16.989 l 46.433,-0.82 79.25,32.969 -15.05,180 -216.477,121.019 -188.527,32.293"
             style="fill:#ec593b;fill-opacity:1;fill-rule:nonzero;stroke:none"
             id="path382" /><path
             d="m 1431.02,945.52 -92.61,22.097 -306.66,-41.383 -103.598,-92.347 -6.691,-223.016 51.469,-32.601 h 48.75 l 53.78,73.179 9.92,-10.199 6.62,-152.988 1.65,-33.992 44.65,13.589 256.34,210.789 36.38,47.594 V 945.52"
             style="fill:#f29024;fill-opacity:1;fill-rule:nonzero;stroke:none"
             id="path384" /><path
             d="m 1432.67,955.719 -57.88,13.601 -422.716,-54.238 -566.23,89.938 h -72.852 v 134.28 l 243.192,197.18 248.062,78.2 195.145,-20.75 168.679,-55.75 150.49,-139.38 57.89,-122.39 56.22,-120.691"
             style="fill:#e1a817;fill-opacity:1;fill-rule:nonzero;stroke:none"
             id="path386" /><path
             d="m 835.668,1416.38 c 0,0 20.266,-8.55 21.5,-39.1 1.227,-30.55 8.605,-54.39 -8.102,-62.89 -16.707,-8.5 -39.859,-13.6 -39.859,-13.6 0,0 -3.309,-10.2 -21.5,0 -18.191,10.2 -33.074,11.9 -33.074,11.9 l -16.539,-6.8 h -18.192 c 0,0 -24.804,2.83 -31.422,-9.63 -6.613,-12.47 -0.14,-33.53 -10.82,-45.95 -10.676,-12.42 -73.519,-68.51 -73.519,-68.51 l 97.57,-180.18 170.34,-64.597 257.989,-23.8 206.71,20.398 99.23,25.5 -56.23,231.179 -223.82,160.11 -161.504,65.97 H 835.668"
             style="fill:#f5ba1f;fill-opacity:1;fill-rule:nonzero;stroke:none"
             id="path388" /><path
             d="m 958.602,1040.88 63.478,-67.298 41.4,-36.586 c 0,0 41.77,-50.66 52.15,-79.137 10.37,-28.472 -2.49,-54.457 -2.49,-54.457 l -81.52,-32.367 -72.909,31.676 -34.086,102.715 -4.996,105.364 38.973,30.09"
             style="fill:#e34a31;fill-opacity:1;fill-rule:nonzero;stroke:none"
             id="path390" /><path
             d="M 814.168,544.359 V 415.172 l -58.172,-37.102 -21.207,22.828 -32.391,90.762 c 0,0 -27.144,28.899 -46.992,35.699 -19.843,6.801 -84.34,6.801 -84.34,6.801 0,0 -19.843,5.102 -38.039,10.199 -18.187,5.102 -28.113,10.2 -46.304,23.801 -18.192,13.59 -38.035,39.09 -54.575,49.289 -16.535,10.199 -28.113,15.731 -28.113,15.731 l -52.918,50.57 -82.687,83.285 c 0,0 10.261,226.082 11.914,260.075 l 148.5,13.6 266.254,-283.98 138.914,-139.281 -19.844,-73.09"
             style="fill:#f39022;fill-opacity:1;fill-rule:nonzero;stroke:none"
             id="path392" /><path
             d="m 921.66,1404.48 -16.535,-35.7 v -15.3 h 16.535 l 39.692,15.3 v 44.2 l -39.692,-8.5"
             style="fill:#d24e21;fill-opacity:1;fill-rule:nonzero;stroke:none"
             id="path394" /><path
             d="m 918.355,1180.1 c 0,0 -20.703,5.21 -29.769,0 -9.063,-5.21 -22.813,-5.1 -39.52,-6.8 -16.707,-1.7 -33.246,-9.58 -43.168,4.56 -9.921,14.14 -16.539,22.64 -16.539,37.94 0,15.29 6.618,28.9 24.809,37.39 18.191,8.5 46.305,23.8 64.496,23.8 18.191,0 79.383,17 95.918,0 16.539,-17 54.718,-34.56 64.498,-34 9.78,0.56 43.75,7.85 49.61,1.71 5.86,-6.15 33.08,-40.8 38.04,-61.2 4.96,-20.4 23.15,-54.39 41.34,-71.39 18.19,-17 52.92,-54.4 57.88,-59.5 4.96,-5.1 23.16,-15.3 21.5,-30.59 -1.65,-15.31 6.62,-28.903 -18.19,-34.004 -24.81,-5.098 -39.69,-13.598 -67.8,-8.496 -28.12,5.097 -21.5,6.796 -54.58,20.394 -33.07,13.606 -31.03,19.766 -67.8,52.696 -36.78,32.94 -47.228,59.59 -47.228,59.59 l -40.422,40.7 -33.075,27.2"
             style="fill:#f7cb21;fill-opacity:1;fill-rule:nonzero;stroke:none"
             id="path396" /><path
             d="m 1124.94,539.539 -3.11,-6.57 -7.38,-7.328 -4.67,-6.063 -2.95,-5.308 -4.17,-5.301 -7.79,-7.578 -11.14,-4.301 -7.87,-2.781 -7.13,-4.547 -3.93,-7.832 v -27.032 -12.886 l -3.69,-8.082 -7.62,-6.321 -4.82,-9.347 v -7.832 l 3.84,-31.078 3.44,-3.282 4.18,-4.039 3.69,-5.211 h 6.88 l 12.05,3.942 4.71,3.789 2.91,4.051 4.5,4.039 3.85,8.839 3.69,11.372 3.69,8.339 3.93,11.118 3.44,7.832 4.67,12.129 3.44,15.91 4.67,4.05 2.71,7.829 4.42,16.171 3.69,3.282 4.01,4.797 v 22.992 l -4.26,11.371 -4.18,7.84 -4.18,4.449 h -2.7 l -0.82,-1.422"
             style="fill:#100f0d;fill-opacity:1;fill-rule:nonzero;stroke:none"
             id="path398" /><path
             d="m 1122.23,533.18 -2.86,-6.039 -6.78,-6.743 -4.3,-5.57 -2.71,-4.879 -3.84,-4.879 -7.16,-6.968 -10.24,-3.954 -7.23,-2.546 -6.56,-4.18 -3.61,-7.203 v -24.86 -11.847 l -3.39,-7.434 -7.01,-5.808 -4.44,-8.59 v -7.2 l 3.54,-28.57 3.16,-3.019 3.84,-3.719 3.39,-4.793 h 6.33 l 11.07,3.633 4.34,3.476 2.67,3.723 4.14,3.719 3.54,8.129 3.39,10.453 3.39,7.66 3.62,10.226 3.16,7.204 4.3,11.148 3.16,14.629 4.29,3.723 2.49,7.199 4.07,14.859 3.39,3.02 3.68,4.422 v 21.136 l -3.91,10.453 -3.84,7.2 -3.84,4.089 h -2.49 l -0.75,-1.3"
             style="fill:#62c05a;fill-opacity:1;fill-rule:nonzero;stroke:none"
             id="path400" /><path
             d="m 516.215,1185.36 c 16.765,-0.56 33.648,-6.36 44.582,-0.48 31.637,17.01 65.019,11.25 97.715,14.39 3.215,0.31 6.5,0.23 9.722,-0.05 8.899,-0.76 17.778,-1.71 26.664,-2.59 -5.277,-10.67 10.536,-27.84 -15.433,-32.12 1.195,-2.22 2.39,-4.45 3.586,-6.68 15.543,-6.22 31.191,-12.18 46.578,-18.78 5.246,-2.25 9.562,-6.78 14.793,-9.11 14.758,-6.57 29.66,-12.89 44.879,-18.17 1.293,-0.45 7.304,7.3 7.789,11.63 2.109,18.86 7.519,23.69 24.238,19.02 21.387,-5.99 42.61,-12.64 64.137,-18.01 4.894,-1.23 11.168,0.58 16.09,2.73 21.656,9.45 29.015,2.84 34.066,-20.18 3.719,-16.93 15.703,-31.95 24.059,-47.8 14.664,-27.82 30.601,-54.86 44.59,-83.164 12.07,-24.437 22.59,-53.715 49.99,-69.441 12.36,-7.098 27.03,-15.145 28.07,-35.938 0.4,-7.922 12.28,-18.238 27.68,-12.597 21.39,7.832 44.04,12.011 69.7,18.675 -3.13,-12.601 -4.81,-24.902 -9.24,-36.043 -9.19,-23.109 -18.07,-46.714 -30.54,-67.961 -8.02,-13.648 -22.22,-23.464 -33.68,-34.964 -0.92,-0.918 -2.36,-1.344 -3.14,-2.34 -24.52,-31.348 -60.12,-55.817 -69.08,-96.758 -4.23,-19.32 3.44,-42.918 10.4,-62.848 7.19,-20.601 4.5,-68.519 -9.83,-84.672 -2.6,-2.929 -5.78,-7.3 -8.86,-7.461 -27.263,-1.339 -35.244,-29.039 -55.185,-40.398 1.832,-7.969 3.371,-15.012 5.082,-22.012 6.336,-25.957 3.695,-31.09 -17.949,-45.617 -6.075,-4.07 -9.426,-12.551 -13.79,-19.18 -14.519,-22.043 -26.984,-45.91 -43.918,-65.761 -17.453,-20.45 -41.613,-29.899 -69.289,-28.352 -8.64,0.481 -17.578,-2.988 -26.246,-5.187 -18.371,-4.672 -30.804,4.539 -29.843,24.05 1.179,23.969 -11.473,42.2 -21.493,61.77 -6.23,12.168 -16.621,24.809 -16.523,37.16 0.281,35.039 -16.164,62.149 -30.395,91.609 -6.562,13.59 -3.195,33.411 -1.109,49.981 3.301,26.199 10.828,51.879 13.402,78.109 0.985,10 -5.32,21.801 -10.843,31.2 -10.25,17.429 -21.481,34.449 -34.051,50.16 -7.418,9.273 -10.817,16.672 -6.129,28.55 4.144,10.508 6.18,22.129 7.504,33.461 0.504,4.297 -2.461,11.883 -5.762,13.325 -21.312,9.3 -42.305,21.207 -67.144,11.082 -6.579,-2.68 -14.899,-0.953 -22.418,-1.016 -4.168,-0.035 -8.84,1.781 -12.442,0.414 -28.531,-10.855 -55.492,-3.644 -82.289,6.637 -2.926,1.121 -6.004,3.836 -8.644,3.414 -42.008,-6.723 -61.133,25.164 -82.657,52.137 -8.367,10.484 -12.257,25.171 -21.558,34.336 -14.258,14.058 -14.973,32.171 -19.141,49.375 -0.855,3.527 2.41,8.41 4.41,12.324 12.118,23.73 19.535,47.551 8.094,74.422 -2.316,5.439 -0.09,15.309 3.531,20.629 14.688,21.58 29.848,42.98 46.7,62.77 7.089,8.32 19.691,11.42 28.164,18.86 8.23,7.23 19.546,16.5 20.3,25.68 1.329,16.09 10.516,23.48 20.332,31.82 11.797,10.03 23.957,19.6 31.774,25.96"
             style="fill:#1a2f20;fill-opacity:1;fill-rule:nonzero;stroke:none"
             id="path402" /><path
             d="m 541.855,1139.54 c 15.157,-0.5 30.418,-5.75 40.301,-0.43 28.602,15.37 58.774,10.17 88.328,13.01 2.907,0.28 5.875,0.2 8.789,-0.05 8.043,-0.68 16.071,-1.55 24.102,-2.34 -4.773,-9.64 9.523,-25.17 -13.953,-29.03 1.082,-2.02 2.164,-4.03 3.242,-6.04 14.051,-5.62 28.195,-11.01 42.106,-16.98 4.742,-2.04 8.644,-6.13 13.371,-8.23 13.339,-5.95 26.812,-11.65 40.57,-16.43 1.168,-0.4 6.602,6.6 7.039,10.52 1.906,17.05 6.797,21.41 21.91,17.18 19.332,-5.41 38.516,-11.42 57.973,-16.28 4.426,-1.1 10.097,0.53 14.547,2.47 19.574,8.55 26.226,2.57 30.793,-18.23 3.359,-15.31 14.195,-28.89 21.746,-43.22 13.258,-25.14 27.66,-49.581 40.304,-75.171 10.915,-22.086 20.417,-48.555 45.187,-62.769 11.18,-6.415 24.43,-13.688 25.38,-32.485 0.36,-7.16 11.09,-16.488 25.01,-11.387 19.34,7.082 39.82,10.86 63.01,16.883 -2.83,-11.394 -4.34,-22.511 -8.35,-32.582 -8.31,-20.89 -16.33,-42.226 -27.61,-61.429 -7.25,-12.34 -20.08,-21.215 -30.44,-31.61 -0.83,-0.828 -2.14,-1.211 -2.84,-2.113 -22.16,-28.336 -54.34,-50.457 -62.44,-87.469 -3.83,-17.449 3.1,-38.789 9.4,-56.808 6.5,-18.622 4.06,-61.93 -8.89,-76.54 -2.35,-2.64 -5.23,-6.589 -8.01,-6.73 -24.641,-1.219 -31.856,-26.262 -49.883,-36.52 1.66,-7.21 3.051,-13.582 4.594,-19.91 5.73,-23.461 3.343,-28.101 -16.219,-41.23 -5.492,-3.68 -8.524,-11.34 -12.469,-17.328 -13.125,-19.934 -24.39,-41.5 -39.699,-59.453 -15.774,-18.481 -37.613,-27.02 -62.633,-25.629 -7.808,0.441 -15.887,-2.692 -23.723,-4.692 -16.605,-4.218 -27.843,4.114 -26.976,21.75 1.066,21.66 -10.371,38.141 -19.426,55.832 -5.633,11 -15.027,22.418 -14.937,33.59 0.254,31.668 -14.614,56.18 -27.477,82.809 -5.934,12.281 -2.887,30.203 -1.004,45.179 2.985,23.68 9.789,46.891 12.117,70.602 0.887,9.039 -4.808,19.711 -9.804,28.211 -9.262,15.75 -19.414,31.141 -30.778,45.34 -6.707,8.379 -9.777,15.066 -5.543,25.804 3.75,9.497 5.59,20.004 6.785,30.247 0.458,3.882 -2.222,10.742 -5.207,12.046 -19.265,8.403 -38.238,19.168 -60.695,10.016 -5.941,-2.422 -13.465,-0.859 -20.262,-0.918 -3.769,-0.031 -7.992,1.609 -11.246,0.371 -25.793,-9.812 -50.164,-3.293 -74.386,6 -2.645,1.016 -5.426,3.469 -7.817,3.086 -37.969,-6.074 -55.258,22.746 -74.711,47.129 -7.562,9.477 -11.082,22.754 -19.488,31.039 -12.891,12.707 -13.535,29.078 -17.305,44.629 -0.769,3.191 2.184,7.602 3.989,11.141 10.953,21.453 17.66,42.984 7.316,67.273 -2.094,4.922 -0.082,13.84 3.191,18.645 13.278,19.511 26.985,38.851 42.215,56.741 6.41,7.53 17.801,10.33 25.457,17.05 7.442,6.53 17.668,14.92 18.352,23.21 1.199,14.55 9.504,21.23 18.379,28.77 10.664,9.06 21.656,17.71 28.718,23.46"
             style="fill:#245d3f;fill-opacity:1;fill-rule:nonzero;stroke:none"
             id="path404" /><path
             d="m 561.734,1102.25 c 13.735,-0.46 27.563,-5.21 36.52,-0.4 25.914,13.94 53.258,9.22 80.043,11.79 2.633,0.26 5.324,0.19 7.965,-0.03 7.285,-0.63 14.558,-1.41 21.84,-2.13 -4.325,-8.74 8.628,-22.81 -12.645,-26.31 0.981,-1.83 1.961,-3.65 2.938,-5.47 12.734,-5.09 25.55,-9.98 38.156,-15.39 4.297,-1.84 7.832,-5.55 12.117,-7.46 12.09,-5.39 24.297,-10.55 36.762,-14.88 1.058,-0.37 5.984,5.98 6.383,9.53 1.726,15.45 6.156,19.4 19.855,15.57 17.516,-4.9 34.898,-10.35 52.531,-14.75 4.012,-1.01 9.153,0.48 13.184,2.23 17.738,7.75 23.765,2.33 27.902,-16.52 3.047,-13.87 12.863,-26.18 19.707,-39.159 12.016,-22.789 25.067,-44.937 36.524,-68.125 9.89,-20.016 18.504,-44 40.954,-56.883 10.13,-5.808 22.14,-12.402 22.99,-29.433 0.33,-6.492 10.06,-14.942 22.67,-10.325 17.52,6.422 36.08,9.844 57.1,15.301 -2.57,-10.324 -3.94,-20.398 -7.57,-29.523 -7.53,-18.93 -14.8,-38.266 -25.02,-55.668 -6.57,-11.18 -18.2,-19.223 -27.59,-28.645 -0.75,-0.75 -1.93,-1.097 -2.57,-1.918 -20.08,-25.672 -49.242,-45.722 -56.585,-79.254 -3.461,-15.82 2.82,-35.16 8.519,-51.488 5.896,-16.871 3.688,-56.121 -8.055,-69.351 -2.125,-2.399 -4.734,-5.981 -7.254,-6.11 -22.332,-1.097 -28.871,-23.789 -45.203,-33.09 1.5,-6.531 2.762,-12.3 4.161,-18.039 5.195,-21.261 3.031,-25.468 -14.7,-37.359 -4.976,-3.34 -7.722,-10.289 -11.297,-15.711 -11.89,-18.059 -22.101,-37.609 -35.976,-53.871 -14.293,-16.75 -34.086,-24.488 -56.754,-23.231 -7.078,0.403 -14.398,-2.437 -21.5,-4.25 -15.047,-3.82 -25.234,3.723 -24.445,19.711 0.964,19.629 -9.399,34.571 -17.606,50.59 -5.105,9.973 -13.613,20.321 -13.535,30.449 0.227,28.692 -13.242,50.903 -24.898,75.043 -5.379,11.129 -2.618,27.36 -0.911,40.938 2.704,21.461 8.872,42.492 10.981,63.98 0.805,8.192 -4.359,17.86 -8.887,25.563 -8.394,14.269 -17.59,28.207 -27.887,41.082 -6.078,7.594 -8.863,13.656 -5.023,23.383 3.395,8.609 5.063,18.129 6.148,27.414 0.411,3.519 -2.015,9.734 -4.718,10.914 -17.461,7.613 -34.653,17.371 -55.004,9.074 -5.387,-2.195 -12.199,-0.777 -18.363,-0.832 -3.415,-0.027 -7.243,1.461 -10.188,0.34 -23.375,-8.891 -45.457,-2.984 -67.41,5.437 -2.395,0.918 -4.918,3.145 -7.082,2.797 -34.406,-5.508 -50.074,20.614 -67.703,42.707 -6.856,8.586 -10.043,20.621 -17.66,28.129 -11.68,11.516 -12.266,26.352 -15.68,40.442 -0.699,2.89 1.973,6.886 3.613,10.093 9.926,19.442 16.004,38.953 6.629,60.965 -1.898,4.457 -0.074,12.539 2.891,16.895 12.031,17.679 24.453,35.208 38.254,51.418 5.808,6.82 16.132,9.36 23.07,15.45 6.742,5.92 16.012,13.52 16.633,21.04 1.086,13.17 8.609,19.23 16.652,26.06 9.664,8.22 19.625,16.06 26.027,21.27"
             style="fill:#37af49;fill-opacity:1;fill-rule:nonzero;stroke:none"
             id="path406" /><path
             d="m 584.66,1061.01 c 12.27,-0.41 24.621,-4.66 32.621,-0.35 23.149,12.44 47.574,8.23 71.496,10.53 2.352,0.22 4.758,0.17 7.114,-0.04 6.511,-0.55 13.007,-1.25 19.507,-1.9 -3.859,-7.8 7.711,-20.37 -11.293,-23.5 0.875,-1.62 1.75,-3.25 2.625,-4.89 11.375,-4.54 22.825,-8.91 34.083,-13.73 3.839,-1.65 6.996,-4.97 10.824,-6.67 10.797,-4.81 21.703,-9.43 32.836,-13.3 0.945,-0.32 5.343,5.34 5.699,8.52 1.543,13.8 5.504,17.33 17.734,13.91 15.649,-4.38 31.176,-9.25 46.926,-13.18 3.582,-0.89 8.172,0.43 11.773,2 15.844,6.91 21.231,2.07 24.926,-14.76 2.719,-12.392 11.489,-23.384 17.602,-34.978 10.73,-20.356 22.39,-40.141 32.625,-60.852 8.836,-17.879 16.527,-39.3 36.578,-50.808 9.047,-5.192 19.773,-11.078 20.543,-26.293 0.289,-5.797 8.981,-13.348 20.241,-9.219 15.65,5.734 32.23,8.789 51,13.668 -2.29,-9.223 -3.51,-18.223 -6.76,-26.371 -6.72,-16.91 -13.21,-34.18 -22.34,-49.727 -5.87,-9.984 -16.26,-17.172 -24.65,-25.582 -0.67,-0.675 -1.72,-0.984 -2.29,-1.715 -17.943,-22.933 -43.99,-40.839 -50.549,-70.793 -3.093,-14.128 2.52,-31.402 7.614,-45.992 5.261,-15.066 3.289,-50.129 -7.196,-61.949 -1.898,-2.141 -4.23,-5.34 -6.48,-5.449 -19.949,-0.981 -25.789,-21.25 -40.379,-29.559 1.344,-5.84 2.469,-10.992 3.719,-16.109 4.636,-19 2.703,-22.75 -13.133,-33.383 -4.442,-2.98 -6.899,-9.18 -10.09,-14.027 -10.621,-16.133 -19.742,-33.59 -32.133,-48.114 -12.769,-14.968 -30.445,-21.878 -50.695,-20.75 -6.32,0.352 -12.863,-2.179 -19.203,-3.796 -13.442,-3.411 -22.539,3.328 -21.836,17.597 0.863,17.539 -8.395,30.879 -15.727,45.192 -4.558,8.91 -12.16,18.16 -12.09,27.199 0.203,25.629 -11.828,45.469 -22.238,67.031 -4.805,9.938 -2.34,24.438 -0.812,36.559 2.414,19.172 7.921,37.961 9.808,57.148 0.719,7.32 -3.894,15.961 -7.937,22.832 -7.5,12.762 -15.715,25.211 -24.91,36.703 -5.43,6.785 -7.915,12.2 -4.489,20.887 3.031,7.691 4.524,16.191 5.492,24.484 0.368,3.145 -1.8,8.696 -4.214,9.75 -15.598,6.805 -30.954,15.516 -49.129,8.11 -4.813,-1.961 -10.899,-0.699 -16.403,-0.746 -3.05,-0.024 -6.468,1.304 -9.101,0.304 -20.879,-7.945 -40.606,-2.668 -60.211,4.856 -2.141,0.82 -4.395,2.808 -6.324,2.5 -30.735,-4.918 -44.731,18.41 -60.481,38.144 -6.117,7.672 -8.969,18.418 -15.769,25.125 -10.434,10.286 -10.957,23.539 -14.008,36.125 -0.625,2.582 1.765,6.153 3.226,9.016 8.868,17.363 14.297,34.793 5.922,54.453 -1.695,3.984 -0.062,11.203 2.586,15.094 10.746,15.789 21.84,31.445 34.168,45.926 5.188,6.093 14.406,8.363 20.606,13.8 6.023,5.289 14.304,12.079 14.855,18.789 0.969,11.77 7.691,17.18 14.875,23.29 8.633,7.33 17.531,14.33 23.246,18.99"
             style="fill:#5cbe56;fill-opacity:1;fill-rule:nonzero;stroke:none"
             id="path408" /><path
             d="m 647.723,1019.48 c 9.554,-0.32 19.175,-3.63 25.41,-0.28 18.027,9.69 37.051,6.42 55.687,8.21 1.828,0.17 3.703,0.13 5.539,-0.03 5.071,-0.43 10.129,-0.98 15.196,-1.48 -3.008,-6.08 6.004,-15.87 -8.797,-18.3 0.683,-1.27 1.363,-2.54 2.047,-3.81 8.855,-3.54 17.773,-6.942 26.543,-10.704 2.992,-1.285 5.449,-3.863 8.429,-5.191 8.411,-3.747 16.907,-7.344 25.578,-10.356 0.735,-0.254 4.165,4.16 4.438,6.629 1.203,10.746 4.285,13.504 13.816,10.836 12.188,-3.41 24.282,-7.199 36.547,-10.266 2.793,-0.695 6.367,0.332 9.172,1.559 12.344,5.387 16.535,1.617 19.414,-11.496 2.117,-9.653 8.949,-18.215 13.711,-27.246 8.36,-15.852 17.442,-31.262 25.41,-47.395 6.883,-13.926 12.875,-30.613 28.492,-39.574 7.047,-4.043 15.403,-8.629 16,-20.481 0.227,-4.515 6.993,-10.394 15.77,-7.179 12.191,4.465 25.105,6.847 39.725,10.644 -1.79,-7.183 -2.74,-14.191 -5.27,-20.543 -5.24,-13.168 -10.29,-26.621 -17.4,-38.726 -4.575,-7.781 -12.664,-13.375 -19.2,-19.93 -0.519,-0.523 -1.343,-0.766 -1.789,-1.336 -13.972,-17.863 -34.257,-31.808 -39.367,-55.14 -2.41,-11.008 1.961,-24.454 5.93,-35.817 4.098,-11.738 2.562,-39.047 -5.606,-48.258 -1.476,-1.66 -3.293,-4.16 -5.046,-4.242 -15.539,-0.769 -20.086,-16.558 -31.45,-23.027 1.043,-4.539 1.922,-8.563 2.895,-12.551 3.613,-14.789 2.105,-17.719 -10.227,-25.988 -3.461,-2.332 -5.375,-7.16 -7.859,-10.934 -8.273,-12.558 -15.379,-26.168 -25.031,-37.476 -9.946,-11.653 -23.715,-17.043 -39.489,-16.161 -4.921,0.27 -10.015,-1.703 -14.957,-2.961 -10.468,-2.66 -17.554,2.59 -17.004,13.711 0.672,13.661 -6.539,24.047 -12.25,35.2 -3.55,6.937 -9.472,14.14 -9.417,21.179 0.16,19.969 -9.211,35.418 -17.325,52.211 -3.738,7.75 -1.82,19.039 -0.629,28.481 1.879,14.929 6.172,29.566 7.637,44.519 0.563,5.696 -3.031,12.422 -6.18,17.778 -5.839,9.933 -12.242,19.632 -19.406,28.586 -4.226,5.285 -6.16,9.5 -3.492,16.269 2.363,5.988 3.523,12.613 4.277,19.07 0.285,2.45 -1.402,6.774 -3.285,7.594 -12.144,5.301 -24.105,12.086 -38.265,6.317 -3.747,-1.528 -8.489,-0.543 -12.774,-0.579 -2.379,-0.019 -5.039,1.016 -7.09,0.235 -16.261,-6.188 -31.625,-2.078 -46.898,3.781 -1.668,0.641 -3.422,2.188 -4.93,1.949 -23.937,-3.832 -34.836,14.34 -47.101,29.711 -4.77,5.977 -6.989,14.348 -12.286,19.571 -8.128,8.011 -8.535,18.332 -10.91,28.136 -0.488,2.012 1.375,4.793 2.512,7.024 6.906,13.523 11.137,27.097 4.613,42.414 -1.32,3.101 -0.051,8.722 2.012,11.754 8.371,12.3 17.012,24.496 26.613,35.773 4.043,4.746 11.227,6.512 16.051,10.75 4.691,4.117 11.141,9.402 11.574,14.637 0.754,9.168 5.989,13.379 11.586,18.129 6.723,5.71 13.653,11.17 18.106,14.8"
             style="fill:#84c844;fill-opacity:1;fill-rule:nonzero;stroke:none"
             id="path410" /><path
             d="m 692.035,956.859 c 6.813,-0.222 13.672,-2.582 18.113,-0.195 12.852,6.91 26.415,4.574 39.696,5.852 1.304,0.125 2.64,0.089 3.949,-0.024 3.613,-0.308 7.223,-0.695 10.832,-1.054 -2.145,-4.333 4.281,-11.309 -6.27,-13.047 0.485,-0.903 0.969,-1.809 1.458,-2.715 6.316,-2.524 12.671,-4.946 18.921,-7.629 2.133,-0.914 3.883,-2.75 6.008,-3.699 5.996,-2.672 12.051,-5.235 18.235,-7.379 0.523,-0.184 2.964,2.965 3.164,4.722 0.855,7.661 3.054,9.625 9.843,7.727 8.692,-2.434 17.313,-5.137 26.055,-7.32 1.988,-0.496 4.539,0.238 6.539,1.109 8.797,3.844 11.785,1.156 13.84,-8.191 1.508,-6.879 6.379,-12.985 9.77,-19.422 5.96,-11.301 12.433,-22.285 18.113,-33.785 4.906,-9.926 9.179,-21.821 20.308,-28.207 5.024,-2.883 10.981,-6.153 11.407,-14.602 0.164,-3.219 4.984,-7.41 11.242,-5.117 8.687,3.183 17.894,4.879 28.316,7.586 -1.273,-5.117 -1.953,-10.114 -3.754,-14.641 -3.734,-9.387 -7.34,-18.976 -12.41,-27.605 -3.254,-5.547 -9.023,-9.535 -13.68,-14.207 -0.375,-0.375 -0.957,-0.547 -1.277,-0.95 -9.957,-12.734 -24.422,-22.675 -28.062,-39.308 -1.715,-7.844 1.398,-17.434 4.226,-25.531 2.922,-8.368 1.828,-27.836 -3.996,-34.399 -1.051,-1.187 -2.348,-2.969 -3.598,-3.027 -11.074,-0.539 -14.316,-11.801 -22.418,-16.41 0.747,-3.243 1.372,-6.102 2.067,-8.942 2.574,-10.551 1.5,-12.629 -7.293,-18.527 -2.465,-1.66 -3.828,-5.102 -5.602,-7.801 -5.898,-8.949 -10.961,-18.652 -17.839,-26.711 -7.09,-8.308 -16.907,-12.148 -28.149,-11.519 -3.508,0.199 -7.141,-1.211 -10.66,-2.11 -7.465,-1.89 -12.516,1.848 -12.125,9.77 0.48,9.738 -4.66,17.148 -8.731,25.097 -2.531,4.942 -6.753,10.071 -6.71,15.09 0.113,14.242 -6.571,25.25 -12.352,37.223 -2.664,5.519 -1.297,13.57 -0.449,20.301 1.34,10.644 4.398,21.078 5.445,31.73 0.398,4.063 -2.16,8.86 -4.406,12.676 -4.164,7.078 -8.727,13.996 -13.832,20.379 -3.016,3.766 -4.395,6.769 -2.492,11.594 1.683,4.269 2.511,8.992 3.05,13.593 0.203,1.746 -1,4.829 -2.339,5.414 -8.661,3.778 -17.184,8.618 -27.278,4.5 -2.672,-1.085 -6.051,-0.382 -9.105,-0.41 -1.696,-0.015 -3.594,0.723 -5.055,0.168 -11.594,-4.41 -22.543,-1.48 -33.43,2.696 -1.187,0.457 -2.437,1.558 -3.511,1.386 -17.067,-2.73 -24.836,10.223 -33.579,21.18 -3.398,4.262 -4.98,10.227 -8.757,13.949 -5.793,5.711 -6.082,13.071 -7.778,20.059 -0.347,1.433 0.981,3.414 1.793,5.008 4.922,9.636 7.938,19.316 3.289,30.23 -0.941,2.211 -0.039,6.219 1.434,8.383 5.965,8.766 12.125,17.457 18.973,25.496 2.879,3.383 8,4.645 11.437,7.664 3.344,2.934 7.942,6.703 8.25,10.434 0.539,6.535 4.27,9.535 8.258,12.925 4.793,4.071 9.734,7.961 12.906,10.543"
             style="fill:#8cd13f;fill-opacity:1;fill-rule:nonzero;stroke:none"
             id="path412" /><path
             d="m 767.242,890.258 c 3.922,-0.133 7.875,-1.488 10.434,-0.113 7.402,3.98 15.211,2.632 22.863,3.367 0.75,0.07 1.52,0.054 2.274,-0.012 2.082,-0.176 4.16,-0.402 6.238,-0.605 -1.235,-2.497 2.465,-6.516 -3.61,-7.516 0.278,-0.52 0.559,-1.043 0.836,-1.563 3.641,-1.457 7.301,-2.851 10.903,-4.394 1.226,-0.527 2.234,-1.586 3.461,-2.133 3.453,-1.539 6.937,-3.016 10.5,-4.25 0.3,-0.105 1.707,1.707 1.824,2.723 0.492,4.41 1.758,5.543 5.668,4.445 5.004,-1.398 9.972,-2.953 15.008,-4.215 1.144,-0.285 2.613,0.141 3.765,0.641 5.067,2.215 6.789,0.664 7.973,-4.719 0.867,-3.965 3.672,-7.476 5.629,-11.187 3.43,-6.508 7.156,-12.836 10.43,-19.457 2.828,-5.719 5.285,-12.571 11.699,-16.25 2.89,-1.661 6.324,-3.543 6.566,-8.407 0.094,-1.855 2.871,-4.269 6.477,-2.949 5.004,1.832 10.304,2.813 16.308,4.371 -0.73,-2.949 -1.125,-5.828 -2.16,-8.433 -2.152,-5.407 -4.226,-10.93 -7.148,-15.903 -1.875,-3.191 -5.2,-5.492 -7.879,-8.179 -0.215,-0.215 -0.555,-0.317 -0.735,-0.551 -5.738,-7.332 -14.066,-13.059 -16.164,-22.637 -0.988,-4.519 0.805,-10.043 2.434,-14.707 1.684,-4.82 1.051,-16.031 -2.301,-19.812 -0.605,-0.684 -1.351,-1.708 -2.074,-1.743 -6.379,-0.312 -8.246,-6.797 -12.91,-9.453 0.429,-1.867 0.789,-3.515 1.187,-5.152 1.485,-6.074 0.867,-7.274 -4.199,-10.672 -1.422,-0.953 -2.203,-2.938 -3.226,-4.488 -3.395,-5.157 -6.313,-10.746 -10.278,-15.383 -4.082,-4.793 -9.734,-7 -16.211,-6.641 -2.019,0.117 -4.113,-0.703 -6.14,-1.211 -4.297,-1.09 -7.207,1.059 -6.985,5.629 0.278,5.61 -2.683,9.871 -5.027,14.449 -1.457,2.848 -3.891,5.805 -3.867,8.7 0.066,8.195 -3.782,14.539 -7.11,21.433 -1.539,3.18 -0.75,7.817 -0.261,11.692 0.773,6.132 2.535,12.14 3.136,18.277 0.231,2.34 -1.246,5.102 -2.539,7.301 -2.394,4.078 -5.023,8.062 -7.965,11.734 -1.738,2.172 -2.531,3.903 -1.433,6.684 0.969,2.457 1.445,5.176 1.754,7.828 0.117,1.004 -0.574,2.781 -1.348,3.117 -4.988,2.176 -9.898,4.965 -15.711,2.594 -1.539,-0.629 -3.484,-0.223 -5.242,-0.238 -0.977,-0.008 -2.07,0.418 -2.914,0.097 -6.676,-2.543 -12.984,-0.851 -19.254,1.555 -0.684,0.262 -1.406,0.894 -2.023,0.797 -9.829,-1.574 -14.305,5.886 -19.34,12.199 -1.957,2.453 -2.867,5.891 -5.043,8.035 -3.336,3.289 -3.504,7.527 -4.481,11.551 -0.199,0.824 0.567,1.969 1.032,2.883 2.835,5.554 4.574,11.129 1.894,17.414 -0.539,1.273 -0.019,3.582 0.828,4.828 3.438,5.047 6.985,10.055 10.926,14.687 1.66,1.946 4.609,2.672 6.59,4.411 1.926,1.691 4.574,3.863 4.75,6.011 0.308,3.762 2.461,5.492 4.758,7.446 2.761,2.343 5.605,4.586 7.433,6.074"
             style="fill:#bccc2a;fill-opacity:1;fill-rule:nonzero;stroke:none"
             id="path414" /><path
             d="m 1353.63,1076.77 c -29.7,0 -59.41,-1.28 -88.9,0.85 -7.87,0.57 -17.72,10.11 -21.81,18.13 -4.62,9.09 -0.55,18.46 10.32,24.6 10.66,6.02 20.2,14.72 28.83,23.68 4.39,4.56 5.71,12.25 8.42,18.52 -1.12,2.22 -2.24,4.44 -3.36,6.66 -33.12,-4.08 -66.52,-6.6 -99.24,-12.92 -15.14,-2.93 -18.9,1.75 -17.14,14.34 3.64,26.12 8.98,52 12.68,78.11 0.91,6.44 0.03,14.87 -3.52,19.61 -2.14,2.86 -11.4,1.65 -16.83,0.05 -19.97,-5.88 -39.68,-12.69 -61.64,-19.85 -2.7,23.59 -4.91,41.37 -6.73,59.19 -2.16,21.14 -15.65,30.84 -34.87,21.96 -15.1,-6.97 -29.07,-17 -42.54,-27.07 -21.921,-16.39 -33.214,-13.72 -41.476,13.3 -6.703,21.93 -11.265,44.56 -16.828,67.08 114.054,14.06 386.154,-197.5 394.634,-306.24"
             style="fill:#39773d;fill-opacity:1;fill-rule:nonzero;stroke:none"
             id="path416" /><path
             d="m 1417.79,908.629 c 0,-54.551 0,-103.465 0,-156.223 -29.11,22.559 -58.17,41.953 -83.45,65.621 -22.27,20.856 -19.32,36.539 7.02,52.114 22.68,13.418 47.03,23.855 76.43,38.488"
             style="fill:#39773d;fill-opacity:1;fill-rule:nonzero;stroke:none"
             id="path418" /><path
             d="m 1368.91,1059.97 c 13.47,-40.17 26.2,-78.115 40.2,-119.861 -39.33,-0.265 -75.2,-1.07 -108.42,15.184 -4.37,2.141 -6.8,20.746 -2.87,26.336 13.67,19.451 30.35,36.711 46.28,54.421 6.66,7.41 14.31,13.87 24.81,23.92"
             style="fill:#39773d;fill-opacity:1;fill-rule:nonzero;stroke:none"
             id="path420" /><path
             d="m 954.023,1385.53 c -8.757,-15 -17.289,-30.15 -26.332,-44.97 -11.168,-18.3 -20.144,-18.22 -31.269,-0.11 -7.856,12.79 -15.594,25.66 -23.383,38.5 -1.914,-0.04 -3.828,-0.07 -5.742,-0.11 -2.992,-10.69 -6.313,-21.31 -8.902,-32.11 -4.497,-18.78 -10.254,-21.44 -26.555,-11.29 -16.047,9.98 -28.992,22.2 -30.383,43.3 -0.754,11.47 3.508,15.32 14.754,15.19 45.562,-0.52 91.137,-0.22 136.707,-0.22 0.367,-2.73 0.738,-5.45 1.105,-8.18"
             style="fill:#39773d;fill-opacity:1;fill-rule:nonzero;stroke:none"
             id="path422" /><path
             d="m 1369.57,561 c -8.02,14.609 -15.1,25.852 -20.58,37.859 -8.36,18.36 -4.96,27.5 13.47,34.442 15.83,5.961 23.53,14.25 13.88,31.34 -10.92,19.328 -21.95,38.605 -35.04,61.613 23.15,5.059 46.4,10.141 73.66,16.098 -3.67,-65.161 -21.1,-122.493 -45.39,-181.352"
             style="fill:#39773d;fill-opacity:1;fill-rule:nonzero;stroke:none"
             id="path424" /><path
             d="m 427.188,1237.89 h 69.46 c 0,0 18.192,-17 34.727,0 16.539,17 21.5,8.5 38.035,32.3 16.539,23.8 6.617,25.5 29.77,44.2 23.152,18.7 56.226,54.39 56.226,54.39 L 427.188,1237.89"
             style="fill:#b2b61c;fill-opacity:1;fill-rule:nonzero;stroke:none"
             id="path426" /></g></g><path
         d="m 2420.63,1020.02 -163.8,427.33 -166.95,-427.33 z M 1917.7,752.273 2217.98,1510.35 h 79.8 l 302.39,-758.077 h -74.55 l -80.84,204.747 h -376.94 l -79.8,-204.747 h -70.34"
         style="fill:#921935;fill-opacity:1;fill-rule:nonzero;stroke:none"
         id="path428" /><path
         d="m 2755.6,1144.96 h 165.89 c 101.84,0 192.13,32.55 192.13,151.19 0,118.65 -90.29,151.2 -192.13,151.2 H 2755.6 Z m -68.26,-392.687 v 758.077 h 190.04 c 145.95,3.15 309.75,-33.6 309.75,-214.2 0,-180.58 -163.8,-217.33 -309.75,-214.19 H 2755.6 V 752.273 h -68.26"
         style="fill:#921935;fill-opacity:1;fill-rule:nonzero;stroke:none"
         id="path430" /><path
         d="m 3519.98,1176.46 c 96.6,0 216.3,6.3 216.3,135.44 0,145.95 -136.5,135.45 -208.94,135.45 h -153.3 V 1176.46 Z M 3374.04,752.273 h -68.25 v 758.077 h 247.8 c 66.14,0 120.74,-4.21 178.48,-39.9 52.5,-31.5 77.71,-86.09 77.71,-158.55 0,-81.89 -57.76,-140.69 -145.95,-162.74 v -2.1 c 96.59,-15.75 117.6,-80.85 127.04,-169.044 13.65,-122.84 9.45,-179.539 39.9,-225.743 h -78.75 c -17.85,50.403 -22.05,103.946 -26.25,157.5 -15.74,173.247 -26.25,203.687 -163.79,203.687 H 3374.04 V 752.273"
         style="fill:#921935;fill-opacity:1;fill-rule:nonzero;stroke:none"
         id="path432" /><path
         d="m 3973.59,752.273 v 758.077 h 109.2 l 284.54,-660.428 290.84,660.428 h 103.94 V 752.273 h -68.24 V 1452.6 h -2.1 l -289.8,-700.327 h -68.24 l -289.78,697.177 h -2.1 V 752.273 h -68.26"
         style="fill:#921935;fill-opacity:1;fill-rule:nonzero;stroke:none"
         id="path434" /></g></g></svg>
