<?xml version="1.0" encoding="utf-8"?>
<!-- Generator: Adobe Illustrator 27.5.0, SVG Export Plug-In . SVG Version: 6.00 Build 0)  -->
<svg version="1.1" id="katman_1" xmlns="http://www.w3.org/2000/svg" xmlns:xlink="http://www.w3.org/1999/xlink" x="0px" y="0px"
	 viewBox="0 0 841.89 595.28" style="enable-background:new 0 0 841.89 595.28;" xml:space="preserve">
<style type="text/css">
	.st0{fill:#007244;}
	.st1{fill:#CAA85F;}
	.st2{fill:#9A1E32;}
	.st3{fill-rule:evenodd;clip-rule:evenodd;fill:#CAA85F;}
</style>
<path class="st0" d="M544.34,210.29c0.77,0,1.16-0.77,1.16-1.16c0-0.77-0.77-1.54-1.16-1.16l-6.57,0.77v1.16
	C540.3,209.11,542.27,209.86,544.34,210.29"/>
<path class="st0" d="M541.64,214.16c0.77,0,1.16-0.77,1.16-1.16c0-0.77-0.39-1.16-1.16-1.16l-6.57,1.16v1.16
	C537.58,213.17,539.59,213.82,541.64,214.16"/>
<path class="st0" d="M539.32,218.02c0.77,0,1.16-0.77,1.16-1.16c0-0.77-0.77-1.16-1.55-1.16l-6.57,1.54l0.39,0.77
	C535.36,217.02,537.29,217.69,539.32,218.02"/>
<path class="st0" d="M536.62,222.27c0.77,0,1.16-0.39,1.16-1.16c-0.39-0.77-0.77-1.16-1.55-1.16l-6.57,1.93l0.39,0.77
	C532.36,221.93,534.69,222.2,536.62,222.27"/>
<path class="st0" d="M534.3,226.52c0.39,0,0.77-0.77,0.77-1.54c0-0.39-0.77-0.77-1.55-0.77l-6.18,2.7l0.39,0.77
	C530.07,226.69,532.13,226.28,534.3,226.52"/>
<path class="st0" d="M531.21,231.54c0.39,0,0.77-0.77,0.77-1.16c0-0.77-0.77-1.16-1.55-1.16l-6.18,2.7l0.39,0.77
	C526.98,231.72,529.04,231.3,531.21,231.54"/>
<path class="st0" d="M529.28,236.18c0.77,0,1.16-0.77,0.77-1.54c0-0.39-0.77-0.77-1.55-0.77l-6.18,2.32l0.39,1.16
	C525.02,236.34,527.13,235.94,529.28,236.18"/>
<path class="st0" d="M527.73,240.81c0.77-0.39,1.16-0.77,0.77-1.54c0-0.77-0.77-1.16-1.55-0.77l-6.18,2.32l0.39,0.77
	C523.47,240.81,525.48,240.52,527.73,240.81"/>
<path class="st0" d="M526.19,245.06c0.39-0.39,0.77-1.16,0.39-1.93c0-0.39-0.77-0.77-1.55-0.77l-5.79,3.09l0.39,0.77
	C521.95,245.24,523.88,244.81,526.19,245.06"/>
<path class="st0" d="M524.26,250.08c0.77,0,1.16-0.77,0.77-1.54c0-0.39-0.77-0.77-1.55-0.39l-5.79,3.09l0.39,0.77
	C520.1,250.94,522.37,250.52,524.26,250.08"/>
<path class="st0" d="M522.71,255.49c0.77,0,1.16-0.77,0.77-1.54c-0.39-0.39-0.77-0.77-1.55-0.77l-5.79,3.48l0.39,0.77
	C518.55,256.35,520.82,255.93,522.71,255.49"/>
<path class="st0" d="M547.82,206.43c0.39,0,1.16-0.39,1.16-1.16c0-0.77-0.77-1.16-1.55-1.16l-6.57,1.16v0.77
	C543.62,205.28,545.72,206.01,547.82,206.43"/>
<path class="st0" d="M550.91,202.57c0.39,0,1.16-0.39,1.16-1.16c-0.38-0.77-0.77-1.16-1.54-1.16l-6.57,1.16v0.77
	C546.58,201.74,548.7,201.8,550.91,202.57"/>
<path class="st0" d="M554.38,199.09c0.77,0,1.16-0.77,1.16-1.54c0-0.39-0.38-1.16-1.16-1.16l-6.57,1.16v0.77
	C550.27,197.76,552.31,198.57,554.38,199.09"/>
<path class="st0" d="M557.09,194.84c0.77-0.39,1.16-0.77,1.16-1.54c0-0.77-0.77-1.16-1.55-1.16l-6.18,1.93v1.16
	C552.96,193.99,555.02,194.59,557.09,194.84"/>
<path class="st0" d="M548.59,189.43c0-0.77-0.77-1.16-1.54-0.77c-0.77,0-1.16,0.77-0.77,1.55l2.32,6.18l0.77-0.39
	C548.42,193.71,548.61,191.54,548.59,189.43"/>
<path class="st0" d="M545.11,192.14c0-0.39-0.77-0.77-1.54-0.77c-0.39,0-0.77,0.77-0.77,1.55l2.32,6.18h0.77
	C545.14,196.65,544.84,194.35,545.11,192.14"/>
<path class="st0" d="M541.64,195.61c0-0.77-0.77-1.16-1.54-0.77c-0.77,0-1.16,0.77-0.77,1.55l3.09,7.34h0.77
	C541.93,201.01,541.84,198.16,541.64,195.61"/>
<path class="st0" d="M538.55,199.09c-0.39-0.77-1.16-1.16-1.54-1.16c-0.77,0.39-1.16,0.77-1.16,1.55l3.09,7.73l0.77-0.39
	C538.14,204.13,538.48,201.42,538.55,199.09"/>
<path class="st0" d="M535.46,202.18c0-0.77-0.77-0.77-1.54-0.77c-0.39,0.39-0.77,0.77-0.77,1.55l3.48,7.34h0.77
	C536.17,207.5,535.29,204.84,535.46,202.18"/>
<path class="st0" d="M531.98,206.43c-0.39-0.39-0.77-0.77-1.54-0.77c-0.77,0.39-1.16,1.16-0.77,1.93l3.48,7.34l0.77-0.39
	C532.71,211.72,531.8,209.26,531.98,206.43"/>
<path class="st0" d="M528.89,211.06c0-0.77-0.77-0.77-1.54-0.77c-0.39,0.39-0.77,1.16-0.77,1.55l3.48,7.34l0.77-0.39
	C529.57,216.12,528.72,213.63,528.89,211.06"/>
<path class="st0" d="M526.19,214.93c0-0.39-0.77-0.77-1.54-0.39c-0.39,0-0.77,0.77-0.39,1.55l3.86,6.95l0.77-0.39
	C527.6,220.06,526.53,217.55,526.19,214.93"/>
<path class="st0" d="M524.12,219.16c-0.39-0.77-1.16-0.77-1.54-0.77c-0.77,0.39-1.16,1.16-0.77,1.93l3.86,6.95l1.16-0.39
	C525.22,224.21,524.04,221.84,524.12,219.16"/>
<path class="st0" d="M521.17,223.43c-0.39-0.39-1.16-0.77-1.54-0.39c-0.77,0.39-0.77,1.16-0.39,1.93l4.63,6.57l0.77-0.39
	C523,228.57,521.62,226.15,521.17,223.43"/>
<path class="st0" d="M519.24,228.06c-0.39-0.39-1.16-0.77-1.54-0.39c-0.77,0.39-1.16,1.16-0.77,1.55l4.64,6.95l0.77-0.39
	C520.86,233.27,519.63,230.76,519.24,228.06"/>
<path class="st0" d="M517.31,231.54c-0.39-0.39-1.16-0.77-1.54-0.39c-0.77,0.39-0.77,1.16-0.39,1.93l5.02,6.18l0.77-0.39
	C519.32,236.46,517.8,234.18,517.31,231.54"/>
<path class="st0" d="M515.38,235.4c-0.39-0.77-1.16-0.77-1.54-0.39c-0.77,0.39-0.77,1.16-0.39,1.55l5.4,6.18l0.77-0.39
	C517.52,240.29,516.38,237.56,515.38,235.4"/>
<path class="st0" d="M514.22,239.27c-0.39-0.39-1.16-0.39-1.54,0c-0.77,0.39-0.77,1.16-0.39,1.54l5.02,6.18l0.77-0.39
	C516.22,244.16,514.72,241.96,514.22,239.27"/>
<path class="st0" d="M512.28,244.67c-0.39-0.77-1.16-0.77-1.93-0.39c-0.39,0.39-0.39,1.16,0,1.93l5.4,5.8l0.77-0.77
	C514.39,249.32,513.29,246.72,512.28,244.67"/>
<path class="st0" d="M510.74,249.31c-0.39-0.39-1.16-0.39-1.54,0c-0.39,0.39-0.77,1.16-0.39,1.54l5.79,6.18l0.77-0.77
	C513.42,254.07,511.77,251.93,510.74,249.31"/>
<path class="st0" d="M509.58,255.49c-0.77-0.39-1.54-0.77-1.93,0c-0.39,0.39-0.39,1.16,0,1.54l5.79,5.8l0.77-0.77
	C511.97,259.94,510.18,258.07,509.58,255.49"/>
<path class="st0" d="M508.81,262.06c-0.39-0.39-1.16-0.77-1.93,0c-0.39,0.39-0.39,1.16,0,1.54l5.79,5.8l0.77-0.77
	C511.14,266.75,509.9,264.11,508.81,262.06"/>
<path class="st0" d="M507.65,269.4c-0.39-0.39-1.16-0.39-1.93,0c-0.39,0.39-0.39,1.16,0,1.54l5.79,5.8l0.77-0.39
	C510.07,274.07,508.26,272.09,507.65,269.4"/>
<path class="st0" d="M506.88,276.74c-0.39-0.39-1.16-0.77-1.54,0c-0.39,0.39-0.77,1.16,0,1.54l5.79,5.41l0.77-0.39
	C509.77,281.27,507.94,279.27,506.88,276.74"/>
<path class="st0" d="M506.88,284.08c-0.77-0.77-1.54-0.77-1.93-0.39c-0.39,0.77-0.39,1.55,0,1.93l6.18,5.02l0.77-0.39
	C509.46,288.6,508.1,286.09,506.88,284.08"/>
<path class="st0" d="M506.49,290.64c-0.77-0.39-1.54-0.39-1.93,0c-0.39,0.77-0.39,1.54,0.39,1.93l6.95,4.25l0.38-0.77
	C509.79,294.7,508.11,292.52,506.49,290.64"/>
<path class="st0" d="M506.88,297.6c-0.77-0.39-1.54,0-1.93,0.39c-0.39,0.77,0,1.54,0.39,1.93l7.34,3.48l0.38-0.77
	C510.28,301.21,508.15,300.05,506.88,297.6"/>
<path class="st0" d="M507.65,304.55c-0.77-0.39-1.54,0-1.93,0.39c-0.39,0.77,0,1.54,0.39,1.93l7.34,3.48l0.38-0.77
	C511.06,308.16,508.92,307.01,507.65,304.55"/>
<path class="st0" d="M508.42,311.5c-0.77-0.38-1.54,0-1.93,0.39c0,0.77,0,1.55,0.77,1.55l7.73,2.7l0.39-0.77
	C512.7,314.38,510.17,313.28,508.42,311.5"/>
<path class="st0" d="M509.2,316.91c-0.77-0.39-1.55,0-1.55,0.77c-0.38,0.39,0,1.16,0.39,1.54l7.73,2.7l0.39-0.77
	C513.51,319.99,511.09,318.89,509.2,316.91"/>
<path class="st0" d="M510.35,321.94c-0.77-0.39-1.16,0-1.54,0.77c-0.39,0.39,0,1.16,0.39,1.54l7.72,2.7l0.39-0.77
	C514.66,325.01,512.25,323.92,510.35,321.94"/>
<path class="st0" d="M511.51,326.19c-0.77-0.39-1.54,0-1.93,0.39c0,0.77,0,1.54,0.39,1.93l8.88,4.63l0.77-0.77
	C516.61,330.43,513.34,328.77,511.51,326.19"/>
<path class="st0" d="M521.55,261.29c0.77-0.39,0.77-1.16,0.77-1.93c-0.39-0.39-1.16-0.77-1.93-0.39l-6.95,4.25l0.38,0.77
	C516.31,262.16,519.16,261.77,521.55,261.29"/>
<path class="st0" d="M520.4,267.08c0.39-0.39,0.77-1.16,0.39-1.54c-0.39-0.77-1.16-0.77-1.55-0.39l-6.57,5.02l0.39,0.77
	C515.48,269.09,517.75,267.58,520.4,267.08"/>
<path class="st0" d="M520.01,273.65c0.77-0.39,0.77-1.16,0.39-1.54c-0.39-0.77-1.16-0.77-1.54-0.39l-6.57,5.02l0.39,0.77
	C515.09,275.66,517.37,274.14,520.01,273.65"/>
<path class="st0" d="M519.24,280.21c0.77-0.39,0.77-1.16,0.39-1.93c-0.39-0.39-1.16-0.39-1.93,0l-5.8,5.41l0.39,0.77
	C514.35,282.36,517.08,281.22,519.24,280.21"/>
<path class="st0" d="M518.85,286.78c0.77-0.39,0.77-1.16,0.39-1.54c-0.39-0.77-1.16-0.77-1.55-0.39l-6.18,5.8l0.77,0.77
	C514.26,289.5,516.65,288.14,518.85,286.78"/>
<path class="st0" d="M519.24,292.58c0.77-0.39,0.77-1.16,0-1.93c-0.39-0.39-1.16-0.39-1.54,0l-5.41,6.18l0.77,0.77
	C514.73,295.1,517.3,293.75,519.24,292.58"/>
<path class="st0" d="M519.62,297.98c0.39-0.39,0.39-1.16,0-1.93c-0.39-0.39-1.16-0.39-1.54,0l-5.41,6.18l0.39,0.77
	C515.19,300.58,516.94,298.66,519.62,297.98"/>
<path class="st0" d="M520.01,304.17c0.39-0.39,0.39-1.16,0-1.54c-0.39-0.77-1.16-0.39-1.93,0l-4.63,6.57l0.77,0.39
	C515.78,307.27,518.02,305.7,520.01,304.17"/>
<path class="st0" d="M521.17,309.58c0.39-0.77,0.39-1.55,0-1.93c-0.77-0.39-1.54-0.39-1.93,0.39l-4.25,6.96l0.77,0.39
	C517.09,312.89,519.38,311.11,521.17,309.58"/>
<path class="st0" d="M524.26,321.94c0.39-0.77,0.39-1.55-0.39-1.93c-0.39-0.39-1.16-0.39-1.54,0.38l-4.25,6.96l0.77,0.39
	C520.43,325.15,521.81,323.13,524.26,321.94"/>
<path class="st0" d="M526.96,327.73c0.39-0.77,0-1.54-0.39-1.93c-0.77-0.39-1.54,0-1.93,0.39l-3.86,8.11l0.77,0.39
	C523.1,331.71,524.33,329.18,526.96,327.73"/>
<path class="st0" d="M522.71,314.98c0.39-0.77,0-1.54-0.39-1.93c-0.77-0.39-1.54,0-1.54,0.39l-4.25,8.11l0.77,0.39
	C518.54,319.05,520.83,316.9,522.71,314.98"/>
<path class="st0" d="M553.61,189.82c-23.17,22.79-37.85,50.22-42.1,79.97c-4.25,30.13,2.32,60.65,18.92,88.08
	c0.39,0.77,1.16,0.77,1.93,0.39c0.77-0.39,0.77-1.16,0.38-1.54c-16.22-27.04-22.79-56.79-18.54-86.53
	c4.25-28.97,18.15-56.4,40.94-78.42c0.77-0.39,0.77-1.16,0-1.93C554.77,189.43,554,189.43,553.61,189.82"/>
<path class="st0" d="M735.14,210.29c-0.77,0-1.16-0.77-1.16-1.16c0-0.77,0.39-1.54,1.16-1.16l6.57,0.77v1.16
	C739.17,209.11,737.21,209.86,735.14,210.29"/>
<path class="st0" d="M737.84,214.16c-0.77,0-1.16-0.77-1.16-1.16c0-0.77,0.39-1.16,1.16-1.16l6.57,1.16v1.16
	C741.89,213.17,739.89,213.82,737.84,214.16"/>
<path class="st0" d="M740.16,218.02c-0.77,0-1.16-0.77-1.16-1.16c0-0.77,0.77-1.16,1.55-1.16l6.57,1.54l-0.39,0.77
	C744.12,217.02,742.19,217.69,740.16,218.02"/>
<path class="st0" d="M742.86,222.27c-0.77,0-1.16-0.39-1.16-1.16c0.39-0.77,0.77-1.16,1.54-1.16l6.57,1.93l-0.39,0.77
	C747.12,221.93,744.78,222.2,742.86,222.27"/>
<path class="st0" d="M745.18,226.52c-0.38,0-1.16-0.77-0.77-1.54c0-0.39,0.77-0.77,1.54-0.77l6.18,2.7l-0.39,0.77
	C749.41,226.69,747.35,226.28,745.18,226.52"/>
<path class="st0" d="M748.27,231.54c-0.39,0-1.16-0.77-0.77-1.16c0-0.77,0.77-1.16,1.54-1.16l6.18,2.7l-0.39,0.77
	C752.5,231.72,750.44,231.3,748.27,231.54"/>
<path class="st0" d="M750.2,236.18c-0.77,0-1.16-0.77-0.77-1.54c0-0.39,0.77-0.77,1.55-0.77l6.18,2.32l-0.39,1.16
	C754.46,236.34,752.35,235.94,750.2,236.18"/>
<path class="st0" d="M751.75,240.81c-0.77-0.39-1.16-0.77-0.77-1.54c0-0.77,0.77-1.16,1.54-0.77l6.18,2.32l-0.39,0.77
	C756.01,240.81,754,240.52,751.75,240.81"/>
<path class="st0" d="M753.29,245.06c-0.39-0.39-0.77-1.16-0.39-1.93c0-0.39,0.77-0.77,1.55-0.77l5.79,3.09l-0.39,0.77
	C757.53,245.24,755.59,244.81,753.29,245.06"/>
<path class="st0" d="M754.84,250.08c-0.39,0-0.77-0.77-0.39-1.54c0-0.39,0.77-0.77,1.54-0.39l5.8,3.09l-0.39,0.77
	C759.18,251,757.04,250.3,754.84,250.08"/>
<path class="st0" d="M757.05,255.91c-0.77,0-1.44-1.19-1.05-1.96c0.38-0.39,0.77-0.77,1.54-0.77l5.79,3.48l-0.38,0.77
	C760.93,256.35,758.93,256.35,757.05,255.91"/>
<path class="st0" d="M731.66,206.43c-0.39,0-1.16-0.39-1.16-1.16c0-0.77,0.77-1.16,1.54-1.16l6.57,1.16v0.77
	C735.85,205.28,733.76,206.01,731.66,206.43"/>
<path class="st0" d="M728.57,202.57c-0.38,0-1.16-0.39-1.16-1.16c0-0.77,0.77-1.16,1.54-1.16l6.57,1.16v0.77
	C732.77,201.42,730.67,202.15,728.57,202.57"/>
<path class="st0" d="M725.09,199.09c-0.77,0-1.54-0.77-1.16-1.54c0-0.39,0.39-1.16,1.16-1.16l6.57,1.16v0.77
	C729.2,197.76,727.17,198.57,725.09,199.09"/>
<path class="st0" d="M722.39,194.84c-0.77-0.39-1.16-0.77-1.16-1.54c0-0.77,0.77-1.16,1.54-1.16l6.18,1.93v1.16
	C726.52,193.99,724.46,194.59,722.39,194.84"/>
<path class="st0" d="M728.73,190.21c-0.19-0.75,0.48-1.31,1.32-1.12c0.75-0.18,1.31,0.48,1.12,1.32l-0.78,6.55l-0.84-0.19
	C729.92,194.32,729.22,192.26,728.73,190.21"/>
<path class="st0" d="M734.37,192.14c0-0.39,0.77-0.77,1.54-0.77c0.39,0,0.77,0.77,0.77,1.55l-2.32,6.18h-0.77
	C734.34,196.65,734.64,194.35,734.37,192.14"/>
<path class="st0" d="M737.84,195.61c0-0.77,0.77-1.16,1.54-0.77c0.77,0,0.77,0.77,0.77,1.55l-3.09,7.34h-0.77
	C737.56,201.01,737.65,197.96,737.84,195.61"/>
<path class="st0" d="M740.93,199.09c0.39-0.77,0.77-1.16,1.54-1.16c0.77,0.39,1.16,0.77,1.16,1.55l-3.09,7.73l-0.77-0.39
	C741.34,204.06,740.99,201.41,740.93,199.09"/>
<path class="st0" d="M744.02,202.18c0-0.77,0.77-0.77,1.54-0.77c0.39,0.39,0.77,0.77,0.77,1.55l-3.48,7.34h-0.77
	C743.31,207.5,744.19,204.84,744.02,202.18"/>
<path class="st0" d="M747.5,206.43c0.39-0.39,0.77-0.77,1.54-0.77c0.77,0.39,1.16,1.16,0.77,1.93c-0.39,0.38-0.77,0.77-1.16,0.77
	l-2.32,6.57l-0.77-0.39l2.32-6.57C747.5,207.59,747.11,207.2,747.5,206.43"/>
<path class="st0" d="M750.59,211.06c0-0.77,0.77-0.77,1.54-0.77c0.39,0.39,0.77,1.16,0.77,1.55l-3.48,7.34l-1.16-0.39
	C749.7,216.11,750.71,213.68,750.59,211.06"/>
<path class="st0" d="M753.29,214.93c0-0.39,0.77-0.77,1.55-0.39c0.39,0,0.77,0.77,0.39,1.55l-3.87,6.95l-0.77-0.39
	C751.88,220.06,752.95,217.55,753.29,214.93"/>
<path class="st0" d="M755.99,219.95c0.39-0.77,1.16-0.77,1.54-0.77c0.77,0.39,1.16,1.16,0.77,1.93l-3.86,6.95l-1.16-0.39
	C754.9,225,756.07,222.63,755.99,219.95"/>
<path class="st0" d="M758.31,223.43c0.39-0.39,1.16-0.77,1.54-0.39c0.77,0.39,0.77,1.16,0.39,1.93l-4.63,6.57l-0.77-0.39
	C756.48,228.57,757.86,226.15,758.31,223.43"/>
<path class="st0" d="M760.24,228.06c0.39-0.39,1.16-0.77,1.55-0.39c0.77,0.39,0.77,1.16,0.77,1.55l-4.63,6.95l-0.77-0.39
	C758.62,233.27,759.85,230.76,760.24,228.06"/>
<path class="st0" d="M762.17,231.54c0.38-0.39,1.16-0.77,1.54-0.39c0.77,0.39,0.77,1.16,0.39,1.93l-5.02,6.18l-0.77-0.39
	C760.16,236.46,761.68,234.18,762.17,231.54"/>
<path class="st0" d="M764.1,235.4c0.39-0.77,1.16-0.77,1.55-0.39c0.77,0.39,0.77,1.16,0.38,1.55l-5.4,6.18l-0.77-0.39
	C761.96,240.29,763.1,237.56,764.1,235.4"/>
<path class="st0" d="M765.26,239.27c0.39-0.39,1.16-0.39,1.54,0c0.77,0.39,0.77,1.16,0.39,1.54l-5.02,6.18l-0.77-0.39
	C763.25,244.16,764.76,241.96,765.26,239.27"/>
<path class="st0" d="M767.19,244.67c0.39-0.77,1.16-0.77,1.93-0.39c0.38,0.39,0.38,1.16,0,1.93l-5.41,5.8l-0.77-0.77
	C765.09,249.32,766.2,246.72,767.19,244.67"/>
<path class="st0" d="M768.74,249.31c0.39-0.39,1.16-0.39,1.54,0c0.39,0.39,0.77,1.16,0.39,1.54l-5.79,6.18l-0.77-0.77
	C766.05,254.07,767.71,251.93,768.74,249.31"/>
<path class="st0" d="M769.9,255.49c0.38-0.39,1.16-0.77,1.93,0c0.39,0.39,0.39,1.16,0,1.54l-5.79,5.8l-0.77-0.77
	C767.51,259.94,769.3,258.07,769.9,255.49"/>
<path class="st0" d="M770.67,262.06c0.39-0.39,1.16-0.77,1.93,0c0.38,0.39,0.38,1.16,0,1.54l-5.8,5.8l-0.77-0.77
	C768.34,266.75,769.58,264.11,770.67,262.06"/>
<path class="st0" d="M771.83,269.4c0.39-0.39,1.16-0.39,1.93,0c0.39,0.39,0.39,1.16,0,1.54l-5.79,5.8l-0.77-0.39
	C769.41,274.07,771.21,272.09,771.83,269.4"/>
<path class="st0" d="M772.6,276.74c0.38-0.39,1.16-0.77,1.54,0c0.39,0.39,0.77,1.16,0,1.54l-5.79,5.41l-0.77-0.39
	C769.71,281.27,771.54,279.27,772.6,276.74"/>
<path class="st0" d="M772.6,284.08c0.77-0.77,1.54-0.77,1.93-0.39c0.39,0.77,0.39,1.55,0,1.93l-6.18,5.02l-0.77-0.39
	C770.05,288.63,771.5,285.89,772.6,284.08"/>
<path class="st0" d="M772.99,290.64c0.77-0.39,1.54-0.39,1.93,0c0.39,0.77,0,1.54-0.39,1.93l-6.95,4.25l-0.77-0.77
	C769.44,294.74,771.27,292.52,772.99,290.64"/>
<path class="st0" d="M772.6,297.6c0.77-0.39,1.54,0,1.93,0.39c0.39,0.77,0,1.54-0.39,1.93l-7.34,3.48l-0.38-0.77
	C769.19,301.21,771.33,300.05,772.6,297.6"/>
<path class="st0" d="M771.83,304.55c0.77-0.39,1.54,0,1.93,0.39c0,0.77,0,1.54-0.39,1.93l-7.34,3.48l-0.77-0.77
	C768.22,308.14,770.5,307.01,771.83,304.55"/>
<path class="st0" d="M771.06,311.5c0.77-0.38,1.55,0,1.93,0.39c0,0.77,0,1.55-0.77,1.55l-7.73,2.7l-0.39-0.77
	C766.77,314.38,769.31,313.28,771.06,311.5"/>
<path class="st0" d="M770.28,316.91c0.77-0.39,1.55,0,1.55,0.77c0.39,0.39,0,1.16-0.39,1.54l-7.73,2.7l-0.39-0.77
	C765.98,319.99,768.39,318.89,770.28,316.91"/>
<path class="st0" d="M769.13,321.94c0.39-0.39,1.16,0,1.54,0.77c0.39,0.39,0,1.16-0.39,1.54l-7.72,2.7l-0.39-0.77
	C764.82,325.01,767.23,323.92,769.13,321.94"/>
<path class="st0" d="M767.97,326.19c0.77-0.39,1.54,0,1.54,0.39c0.39,0.77,0.39,1.54,0,1.93l-8.88,4.63l-0.77-0.77
	C762.87,330.43,766.14,328.77,767.97,326.19"/>
<path class="st0" d="M757.92,261.29c-0.77-0.39-0.77-1.16-0.77-1.93c0.39-0.39,1.16-0.77,1.93-0.39l6.95,4.25l-0.38,0.77
	C763.21,262.21,760.35,261.77,757.92,261.29"/>
<path class="st0" d="M759.08,267.08c-0.38-0.39-0.77-1.16-0.38-1.54c0.38-0.77,1.15-0.77,1.54-0.39l6.57,5.02l-0.38,0.77
	C764,269.09,761.72,267.58,759.08,267.08"/>
<path class="st0" d="M759.47,273.65c-0.77-0.39-0.77-1.16-0.39-1.54c0.39-0.77,1.16-0.77,1.54-0.39l6.57,5.02l-0.39,0.77
	C764.56,275.61,761.73,274.57,759.47,273.65"/>
<path class="st0" d="M760.24,280.21c-0.77-0.39-0.77-1.16-0.39-1.93c0.39-0.39,1.16-0.39,1.93,0c0.39,0.39,0.39,0.77,0.39,1.16
	l5.4,4.25l-0.39,0.77l-5.79-4.25C761.01,280.6,760.63,280.6,760.24,280.21"/>
<path class="st0" d="M760.24,286.78c-0.39-0.39-0.39-1.16,0-1.54c0.39-0.77,1.16-0.77,1.55-0.39l6.18,5.8l-0.77,0.77
	C765,289.47,762.87,287.81,760.24,286.78"/>
<path class="st0" d="M760.24,292.58c-0.77-0.39-0.77-1.16,0-1.93c0.39-0.39,1.16-0.39,1.55,0l5.4,6.18l-0.77,0.77
	C764.75,295.1,762.18,293.75,760.24,292.58"/>
<path class="st0" d="M759.85,297.98c-0.38-0.39-0.38-1.16,0-1.93c0.39-0.39,1.16-0.39,1.55,0l5.4,6.18l-0.39,0.77
	C764.31,300.61,762.5,298.65,759.85,297.98"/>
<path class="st0" d="M759.47,304.17c-0.39-0.39-0.39-1.16,0-1.54c0.38-0.77,1.16-0.39,1.54,0l5.02,6.57l-0.77,0.39
	C763.69,307.27,761.45,305.7,759.47,304.17"/>
<path class="st0" d="M758.31,309.58c-0.39-0.77-0.39-1.55,0-1.93c0.77-0.39,1.54-0.39,1.93,0.39l4.25,6.96l-0.77,0.39
	C762.38,312.89,760.09,311.11,758.31,309.58"/>
<path class="st0" d="M755.22,321.94c-0.39-0.77-0.39-1.55,0.38-1.93c0.39-0.39,1.16-0.39,1.55,0.38l4.25,6.96l-0.77,0.39
	C759.27,325.24,757.1,323.56,755.22,321.94"/>
<path class="st0" d="M752.52,327.73c-0.39-0.77,0-1.54,0.38-1.93c0.77-0.39,1.55,0,1.93,0.39l3.87,8.11l-0.77,0.39
	C756.37,331.71,755.15,329.18,752.52,327.73"/>
<path class="st0" d="M756.77,314.98c-0.39-0.77-0.39-1.54,0.39-1.93c0.39-0.39,1.16,0,1.55,0.39l4.24,8.11l-0.77,0.39
	C760.93,319.05,758.65,316.9,756.77,314.98"/>
<path class="st0" d="M725.87,189.82c23.17,22.79,37.85,50.22,42.1,79.97c4.25,30.13-2.31,60.65-18.92,88.08
	c-0.39,0.77-1.54,0.77-1.93,0.39c-0.77-0.39-0.77-1.16-0.39-1.54c16.22-27.04,22.79-56.79,18.54-86.53
	c-4.25-28.97-18.15-56.4-40.94-78.42c-0.77-0.39-0.77-1.16,0-1.93C724.71,189.43,725.48,189.43,725.87,189.82"/>
<path class="st0" d="M639.15,386.73h-0.03c-55-0.02-99.76-44.26-99.79-98.62c-0.01-26.35,10.37-51.14,29.21-69.78
	c18.85-18.64,43.91-28.91,70.57-28.92h0.04c55.03,0,99.8,44.23,99.82,98.62v0.08C738.96,342.5,694.18,386.73,639.15,386.73
	 M639.16,192.25h-0.04c-25.91,0.01-50.27,9.99-68.58,28.1c-18.31,18.11-28.39,42.17-28.38,67.77c0.02,52.8,43.52,95.77,96.96,95.79
	h0.03c53.47,0,96.98-42.96,97-95.79v-0.08C736.13,235.21,692.62,192.25,639.16,192.25"/>
<path class="st1" d="M591.63,387.69h7.24c-39.77-16.19-67.9-55.24-67.92-100.75c-0.01-29.05,11.29-56.38,31.83-76.94
	c20.54-20.55,47.85-31.88,76.91-31.89h0.04c59.97,0,108.77,48.78,108.79,108.74v0.08c-0.01,29.06-11.34,56.38-31.89,76.91
	c-10.42,10.41-22.58,18.44-35.82,23.84H688c11.24-5.39,21.62-12.7,30.7-21.77c21.11-21.09,32.73-49.14,32.74-78.97v-0.08
	c-0.02-61.58-50.12-111.66-111.7-111.66h-0.04c-61.59,0.03-111.68,50.15-111.66,111.74C528.06,331.3,554.07,369.69,591.63,387.69"/>
<path class="st1" d="M752.13,343.96l-5.22-15.86c-9.38,25.41-28.16,46.64-51.81,59.68v26.4h-2.83v4.72
	c41.32-16.22,72.99-51.38,84.58-95.03L752.13,343.96z"/>
<path class="st1" d="M584.38,414.18v-26.48h0.29c-23.79-12.71-42.94-33.18-52.31-58.57l-5.02,14.83l-24.72-20.09
	c11.59,43.65,43.26,78.81,84.59,95.03v-4.72H584.38z"/>
<path class="st1" d="M695.58,414.66H583.89v-27.45h111.69V414.66z M584.87,413.7h109.75v-25.51H584.87V413.7z"/>
<path class="st2" d="M639.74,410.6c-5.32,0-9.66-4.33-9.66-9.66c0-5.33,4.33-9.66,9.66-9.66s9.66,4.33,9.66,9.66
	C649.4,406.26,645.06,410.6,639.74,410.6 M639.74,392.64c-4.58,0-8.3,3.72-8.3,8.3c0,4.58,3.72,8.3,8.3,8.3c4.58,0,8.3-3.72,8.3-8.3
	C648.04,396.36,644.32,392.64,639.74,392.64"/>
<path class="st2" d="M667.87,410.6c-5.32,0-9.66-4.33-9.66-9.66c0-5.33,4.33-9.66,9.66-9.66c5.32,0,9.66,4.33,9.66,9.66
	C677.52,406.26,673.19,410.6,667.87,410.6 M667.87,392.64c-4.58,0-8.3,3.72-8.3,8.3c0,4.58,3.72,8.3,8.3,8.3
	c4.58,0,8.3-3.72,8.3-8.3C676.17,396.36,672.44,392.64,667.87,392.64"/>
<path class="st2" d="M653.8,410.6c-5.32,0-9.66-4.33-9.66-9.66c0-5.33,4.33-9.66,9.66-9.66c5.32,0,9.66,4.33,9.66,9.66
	C663.46,406.26,659.13,410.6,653.8,410.6 M653.8,392.64c-4.58,0-8.3,3.72-8.3,8.3c0,4.58,3.72,8.3,8.3,8.3c4.58,0,8.3-3.72,8.3-8.3
	C662.11,396.36,658.38,392.64,653.8,392.64"/>
<path class="st2" d="M625.68,410.6c-5.32,0-9.66-4.33-9.66-9.66c0-5.33,4.33-9.66,9.66-9.66s9.66,4.33,9.66,9.66
	C635.33,406.26,631,410.6,625.68,410.6 M625.68,392.64c-4.58,0-8.3,3.72-8.3,8.3c0,4.58,3.72,8.3,8.3,8.3s8.3-3.72,8.3-8.3
	C633.97,396.36,630.25,392.64,625.68,392.64"/>
<path class="st2" d="M611.61,410.6c-5.32,0-9.66-4.33-9.66-9.66c0-5.33,4.33-9.66,9.66-9.66s9.66,4.33,9.66,9.66
	C621.27,406.26,616.94,410.6,611.61,410.6 M611.61,392.64c-4.58,0-8.3,3.72-8.3,8.3c0,4.58,3.72,8.3,8.3,8.3
	c4.58,0,8.3-3.72,8.3-8.3C619.91,396.36,616.19,392.64,611.61,392.64"/>
<path class="st2" d="M597.55,410.6c-5.32,0-9.66-4.33-9.66-9.66c0-5.33,4.33-9.66,9.66-9.66c5.32,0,9.66,4.33,9.66,9.66
	C607.21,406.26,602.87,410.6,597.55,410.6 M597.55,392.64c-4.58,0-8.3,3.72-8.3,8.3c0,4.58,3.72,8.3,8.3,8.3
	c4.58,0,8.3-3.72,8.3-8.3C605.85,396.36,602.12,392.64,597.55,392.64"/>
<path class="st2" d="M681.93,410.6c-5.32,0-9.66-4.33-9.66-9.66c0-5.33,4.33-9.66,9.66-9.66c5.32,0,9.66,4.33,9.66,9.66
	C691.59,406.26,687.25,410.6,681.93,410.6 M681.93,392.64c-4.58,0-8.3,3.72-8.3,8.3c0,4.58,3.72,8.3,8.3,8.3
	c4.58,0,8.3-3.72,8.3-8.3C690.23,396.36,686.51,392.64,681.93,392.64"/>
<path class="st3" d="M715.89,325.36c-0.12-0.45-0.12-0.93-0.15-1.29c-0.03-0.36-0.08-0.6-0.17-0.82c-0.09-0.22-0.21-0.43-0.27-0.8
	c-0.05-0.37-0.03-0.91-0.14-1.23c-0.1-0.32-0.33-0.41-0.49-0.48c-0.16-0.07-0.26-0.12-0.31-0.26c-0.06-0.13-0.08-0.36-0.15-0.48
	c-0.07-0.11-0.19-0.11-0.23-0.2c-0.03-0.09,0.03-0.27,0-0.42c-0.03-0.15-0.13-0.27-0.23-0.27c-0.11,0-0.21,0.13-0.27,0.28
	c-0.06,0.15-0.08,0.31-0.2,0.39c-0.12,0.08-0.35,0.1-0.49,0.15c-0.13,0.06-0.18,0.16-0.12,0.28c0.06,0.12,0.23,0.25,0.32,0.38
	c0.09,0.13,0.09,0.25,0.02,0.39c-0.07,0.14-0.2,0.29-0.26,0.49c-0.07,0.2-0.07,0.46-0.09,0.62c-0.03,0.16-0.09,0.23-0.17,0.23
	c-0.08,0-0.2-0.05-0.32-0.06c-0.12,0-0.24,0.04-0.31,0.14c-0.07,0.09-0.08,0.24-0.16,0.39s-0.23,0.31-0.38,0.29
	c-0.14-0.01-0.29-0.2-0.41-0.26c-0.13-0.06-0.24,0.02-0.31,0.14c-0.07,0.13-0.1,0.31-0.06,0.44c0.04,0.13,0.14,0.21,0.22,0.32
	c0.08,0.11,0.12,0.24,0.15,0.38c0.03,0.13,0.04,0.28,0,0.29c-0.04,0.02-0.13-0.1-0.28-0.1c-0.15,0-0.34,0.11-0.42,0.21
	c-0.07,0.1-0.01,0.19,0.09,0.26c0.1,0.07,0.24,0.13,0.32,0.21c0.08,0.08,0.11,0.19,0.05,0.25c-0.06,0.06-0.21,0.08-0.36,0.13
	c-0.15,0.06-0.3,0.15-0.38,0.26c-0.08,0.11-0.08,0.24-0.13,0.38c-0.06,0.13-0.17,0.26-0.29,0.33c-0.12,0.07-0.24,0.07-0.24-0.02
	c0-0.09,0.11-0.27,0.19-0.44c0.08-0.17,0.11-0.33,0.02-0.36c-0.09-0.03-0.32,0.06-0.47,0.22c-0.15,0.16-0.23,0.37-0.26,0.55
	c-0.03,0.18-0.02,0.32,0.03,0.4c0.06,0.08,0.16,0.11,0.24,0.17c0.08,0.05,0.13,0.14,0.03,0.21c-0.09,0.08-0.33,0.14-0.47,0.1
	c-0.14-0.05-0.18-0.21-0.32-0.26c-0.15-0.05-0.42,0-0.56,0.07c-0.13,0.06-0.14,0.14-0.21,0.19c-0.06,0.05-0.17,0.06-0.27,0.13
	c-0.1,0.06-0.18,0.16-0.2,0.27c-0.02,0.11,0.04,0.22,0.11,0.32c0.06,0.1,0.13,0.19,0.16,0.27c0.03,0.09,0.02,0.19-0.11,0.2
	c-0.12,0.02-0.36-0.05-0.51-0.16c-0.16-0.1-0.23-0.24-0.41-0.3c-0.17-0.06-0.45-0.03-0.61,0.06c-0.16,0.1-0.22,0.26-0.32,0.34
	c-0.1,0.08-0.24,0.1-0.46,0.08c-0.21-0.02-0.51-0.07-0.69,0.01c-0.18,0.08-0.26,0.27-0.36,0.41c-0.1,0.13-0.22,0.2-0.44,0.21
	c-0.22,0.01-0.53-0.04-0.72,0.04c-0.19,0.08-0.25,0.27-0.28,0.49c-0.03,0.21-0.02,0.44-0.16,0.74c-0.15,0.29-0.45,0.66-0.68,1.06
	c-0.23,0.4-0.37,0.82-0.33,1.36c0.05,0.54,0.29,1.2,0.44,1.6c0.15,0.4,0.21,0.53,0.2,0.72c-0.01,0.2-0.08,0.46,0,0.7
	c0.08,0.24,0.33,0.45,0.46,0.64c0.13,0.19,0.14,0.37,0.12,0.63c-0.01,0.26-0.05,0.58-0.06,0.85c-0.01,0.27,0.01,0.48-0.14,0.68
	c-0.15,0.21-0.46,0.4-0.67,0.64c-0.21,0.23-0.33,0.5-0.39,0.77c-0.06,0.27-0.07,0.56-0.19,0.76c-0.12,0.21-0.36,0.34-0.53,0.53
	c-0.17,0.19-0.27,0.42-0.33,0.62c-0.06,0.2-0.08,0.37-0.21,0.65c-0.13,0.27-0.36,0.65-0.38,1.09c-0.01,0.44,0.2,0.94,0.38,1.29
	c0.19,0.35,0.36,0.56,0.4,0.85s-0.06,0.64-0.11,1.01c-0.06,0.36-0.08,0.73-0.07,1.04c0.01,0.31,0.05,0.56,0.18,0.79
	c0.13,0.22,0.36,0.41,0.48,0.59c0.12,0.19,0.14,0.37,0.14,0.57c-0.01,0.2-0.03,0.43,0.07,0.59c0.11,0.17,0.36,0.27,0.59,0.33
	c0.24,0.05,0.46,0.06,0.67,0.16c0.21,0.09,0.4,0.27,0.6,0.44c0.21,0.17,0.42,0.33,0.8,0.36c0.38,0.03,0.92-0.08,1.24-0.26
	c0.32-0.19,0.44-0.46,0.56-0.6c0.12-0.13,0.25-0.13,0.59-0.13c0.34,0,0.89,0.01,1.27-0.13c0.39-0.15,0.61-0.45,0.87-0.86
	c0.26-0.41,0.54-0.93,0.69-1.33c0.15-0.41,0.17-0.7,0.3-0.96c0.13-0.26,0.36-0.5,0.53-0.87c0.17-0.37,0.26-0.88,0.29-1.29
	c0.03-0.4,0-0.71,0.11-1.12c0.1-0.41,0.34-0.93,0.55-1.4c0.21-0.48,0.4-0.91,0.5-1.29c0.11-0.38,0.12-0.7,0.21-1.16
	c0.09-0.46,0.25-1.07,0.41-1.46c0.16-0.38,0.32-0.55,0.42-0.86c0.09-0.3,0.12-0.74,0.19-1.13c0.07-0.4,0.18-0.75,0.41-1.13
	c0.23-0.38,0.58-0.77,0.77-1.5c0.19-0.73,0.23-1.78,0.28-2.38c0.05-0.61,0.11-0.76,0.29-0.81c0.18-0.05,0.48,0,0.71-0.07
	s0.41-0.24,0.46-0.38c0.06-0.13,0-0.23-0.13-0.25c-0.13-0.03-0.34,0.02-0.44-0.06c-0.1-0.08-0.09-0.29-0.03-0.49
	c0.07-0.2,0.19-0.4,0.13-0.71c-0.05-0.31-0.28-0.72-0.36-1.1c-0.08-0.38-0.01-0.72,0.09-0.87c0.11-0.15,0.25-0.11,0.35,0.03
	c0.1,0.14,0.17,0.39,0.26,0.63c0.1,0.25,0.22,0.49,0.38,0.53c0.16,0.03,0.37-0.15,0.53-0.43c0.16-0.28,0.26-0.67,0.19-1.08
	C716.24,326.24,716.01,325.81,715.89,325.36"/>
<path class="st3" d="M716.68,266.31c0-0.02,0-0.04,0-0.06c0.04-0.08,0.08-0.16,0.11-0.23c0.06-0.16,0.04-0.29-0.05-0.41
	c-0.1-0.12-0.28-0.22-0.51-0.29c-0.23-0.06-0.52-0.09-0.67-0.03c-0.15,0.06-0.17,0.23-0.26,0.39c-0.03,0.04-0.05,0.07-0.08,0.11
	c-0.11,0.08-0.21,0.15-0.32,0.21c-0.3,0.19-0.57,0.27-1.16,0.41c-0.59,0.13-1.5,0.32-2.13,0.44c-0.15,0.03-0.28,0.05-0.4,0.07
	c-0.31,0.03-0.66,0.08-0.92,0.16c-0.34,0.05-0.66,0.1-0.94,0.11c-0.07,0-0.13,0-0.2,0c-0.05-0.01-0.11-0.02-0.16-0.03
	c-0.23-0.04-0.48-0.04-0.77,0.08c-0.24,0.1-0.5,0.28-0.72,0.45c-0.17,0.09-0.35,0.18-0.58,0.24c-0.34,0.08-0.79,0.1-1.24,0.14
	c-0.19-0.05-0.36-0.09-0.51-0.1c-0.22-0.01-0.39,0.07-0.72,0.22c-0.16,0.08-0.36,0.17-0.58,0.27c-0.24,0.09-0.48,0.17-0.72,0.25
	c-0.37,0.11-0.79,0.18-1.12,0.17c-0.33-0.02-0.59-0.12-0.93-0.37c-0.34-0.25-0.75-0.64-1.03-0.9c-0.05-0.05-0.09-0.09-0.13-0.13
	c-0.15-0.14-0.3-0.29-0.44-0.42c-0.27-0.27-0.51-0.51-0.7-0.63c-0.19-0.11-0.34-0.09-0.6-0.09c-0.01,0-0.03,0-0.05,0
	c-0.13-0.02-0.26-0.03-0.35-0.05c-0.16-0.04-0.22-0.11-0.16-0.19c0.06-0.08,0.23-0.16,0.48-0.25c0.08-0.03,0.17-0.06,0.26-0.09
	c0,0,0.01,0,0.01,0c0.25-0.06,0.49-0.1,0.65-0.19c0.16-0.1,0.24-0.25,0.25-0.41c0.02-0.16-0.03-0.33-0.12-0.54
	c-0.09-0.21-0.22-0.47-0.35-0.68c-0.13-0.22-0.27-0.4-0.42-0.5c-0.16-0.1-0.35-0.12-0.51-0.14c-0.01,0-0.03,0-0.04,0
	c-0.03-0.01-0.07-0.02-0.1-0.03c-0.18-0.07-0.3-0.15-0.41-0.25c-0.03-0.03-0.05-0.05-0.07-0.08c-0.05-0.08-0.12-0.18-0.21-0.26
	c-0.08-0.07-0.16-0.13-0.25-0.19c-0.11-0.09-0.21-0.18-0.3-0.28c-0.13-0.14-0.22-0.28-0.3-0.41c-0.04-0.09-0.08-0.18-0.14-0.27
	c-0.09-0.14-0.23-0.26-0.4-0.35c-0.06-0.03-0.12-0.06-0.18-0.09c-0.08-0.06-0.17-0.12-0.24-0.18c-0.14-0.12-0.21-0.23-0.27-0.33
	c0-0.01-0.01-0.03-0.01-0.04c-0.04-0.11-0.09-0.17-0.25-0.33c-0.16-0.16-0.42-0.42-0.64-0.55c-0.08-0.05-0.16-0.08-0.23-0.1
	c-0.03-0.01-0.05-0.02-0.07-0.03c-0.13-0.06-0.32-0.15-0.47-0.24c-0.03-0.02-0.07-0.04-0.1-0.06c-0.08-0.09-0.18-0.19-0.31-0.24
	c-0.15-0.06-0.35-0.05-0.55-0.06c-0.15-0.02-0.24-0.04-0.36-0.09c-0.11-0.05-0.24-0.15-0.34-0.29c-0.03-0.04-0.05-0.08-0.07-0.12
	c0-0.01,0-0.01-0.01-0.02c-0.04-0.14-0.09-0.32-0.18-0.42c-0.09-0.11-0.21-0.14-0.35-0.14c-0.14,0-0.29,0.05-0.31,0.17
	c-0.01,0.04,0,0.09,0.02,0.14c0,0.03,0,0.05-0.01,0.08c-0.02,0.08-0.06,0.17-0.11,0.21c-0.05,0.03-0.1,0-0.17-0.14
	c-0.06-0.12-0.13-0.32-0.21-0.51c-0.04-0.13-0.09-0.27-0.16-0.42c-0.09-0.19-0.2-0.4-0.33-0.61c-0.03-0.04-0.05-0.08-0.08-0.13
	c-0.05-0.1-0.11-0.19-0.16-0.28c-0.09-0.18-0.16-0.34-0.21-0.54c-0.02-0.08-0.03-0.16-0.05-0.24c0-0.01,0-0.02,0-0.03
	c-0.03-0.21-0.07-0.45-0.16-0.76c-0.09-0.31-0.23-0.69-0.37-0.99c-0.14-0.31-0.28-0.54-0.39-0.71c-0.11-0.17-0.17-0.27-0.28-0.42
	c-0.11-0.14-0.26-0.33-0.41-0.46c-0.1-0.08-0.21-0.13-0.31-0.2c-0.15-0.13-0.28-0.24-0.4-0.36c-0.11-0.11-0.21-0.22-0.3-0.33
	c-0.11-0.14-0.2-0.28-0.37-0.39c-0.11-0.07-0.24-0.13-0.38-0.19c-0.13-0.07-0.27-0.15-0.41-0.25c-0.23-0.16-0.47-0.37-0.64-0.59
	c-0.16-0.22-0.24-0.47-0.29-0.69c-0.02-0.06-0.03-0.13-0.04-0.19c-0.02-0.15-0.04-0.29-0.08-0.44c-0.04-0.19-0.11-0.38-0.19-0.58
	c-0.08-0.26-0.16-0.53-0.2-0.74c-0.04-0.19-0.05-0.31-0.05-0.42c0.03-0.13,0.04-0.27,0.04-0.41c0-0.16-0.02-0.3-0.08-0.48
	c-0.02-0.05-0.03-0.1-0.05-0.15c-0.03-0.16-0.06-0.29,0-0.37c0.03-0.04,0.07-0.06,0.11-0.08c0.09,0.03,0.19,0.05,0.26,0.05
	c0.11-0.01,0.16-0.1,0.11-0.22s-0.19-0.26-0.37-0.4c-0.01-0.01-0.03-0.02-0.04-0.03c-0.14-0.14-0.3-0.32-0.43-0.52
	c-0.11-0.18-0.19-0.38-0.27-0.54c-0.01-0.03-0.02-0.07-0.02-0.1c-0.05-0.24-0.13-0.48-0.27-0.55c0,0,0-0.01-0.01-0.01
	c-0.09-0.13-0.18-0.18-0.3-0.24c-0.13-0.06-0.29-0.13-0.5-0.27c-0.21-0.14-0.48-0.35-0.72-0.5c-0.24-0.14-0.46-0.23-0.61-0.34
	c-0.14-0.11-0.21-0.26-0.31-0.48c-0.09-0.22-0.21-0.53-0.3-0.85c-0.09-0.31-0.14-0.64-0.11-0.88c0.03-0.24,0.16-0.4,0.16-0.53
	c0.01-0.13-0.11-0.21-0.25-0.36c-0.13-0.14-0.3-0.33-0.45-0.5c-0.01-0.02-0.03-0.03-0.04-0.05c-0.02-0.02-0.04-0.04-0.05-0.06
	c-0.13-0.15-0.26-0.29-0.39-0.5c-0.09-0.14-0.19-0.32-0.29-0.5c-0.06-0.14-0.13-0.27-0.19-0.39c-0.15-0.28-0.29-0.45-0.54-0.79
	c-0.05-0.07-0.09-0.13-0.15-0.21c-0.28-0.42-0.64-0.95-0.88-1.36c-0.24-0.41-0.38-0.69-0.46-0.92c-0.09-0.23-0.12-0.4-0.21-0.63
	c-0.08-0.22-0.22-0.5-0.38-0.74c-0.16-0.23-0.34-0.41-0.51-0.61c-0.16-0.2-0.31-0.41-0.4-0.6c-0.1-0.19-0.15-0.37-0.23-0.53
	c-0.08-0.16-0.19-0.32-0.34-0.45c-0.15-0.13-0.34-0.24-0.47-0.34c-0.13-0.09-0.19-0.17-0.3-0.29c-0.04-0.08-0.09-0.16-0.15-0.23
	c-0.05-0.05-0.1-0.11-0.16-0.16c-0.04-0.05-0.08-0.11-0.12-0.16c-0.16-0.22-0.32-0.48-0.44-0.68c-0.12-0.2-0.21-0.34-0.34-0.51
	c-0.12-0.18-0.28-0.4-0.33-0.59c-0.05-0.2,0-0.39,0.11-0.5c0.1-0.12,0.25-0.17,0.37-0.16c0.12,0.01,0.23,0.08,0.4,0.22
	c0.17,0.13,0.4,0.33,0.59,0.57c0.19,0.24,0.32,0.53,0.42,0.73c0.09,0.2,0.14,0.32,0.19,0.51c0.05,0.19,0.08,0.47,0.13,0.62
	c0.04,0.15,0.09,0.18,0.21,0.25c0.11,0.07,0.29,0.19,0.56,0.37c0.27,0.19,0.62,0.45,0.93,0.59c0.3,0.14,0.54,0.16,0.69,0.14
	c0.15-0.02,0.2-0.08,0.23-0.18c0.03-0.11,0.04-0.26,0.05-0.48c0.01-0.22,0.03-0.5,0.06-0.73c0.04-0.22,0.11-0.39,0.15-0.57
	c0.05-0.18,0.07-0.38,0.07-0.53c0.01-0.15,0-0.26,0-0.4c0.01-0.13,0.03-0.3,0.09-0.46c0.06-0.16,0.16-0.3,0.21-0.42
	c0.06-0.11,0.08-0.19,0.05-0.38s-0.09-0.48-0.14-0.74c-0.05-0.25-0.08-0.45-0.11-0.61c-0.03-0.16-0.07-0.27-0.16-0.4
	c-0.09-0.14-0.23-0.3-0.35-0.42c-0.11-0.12-0.2-0.19-0.29-0.33c-0.09-0.15-0.19-0.37-0.27-0.51c-0.08-0.15-0.15-0.22-0.31-0.21
	c-0.16,0.01-0.42,0.11-0.69,0.18c-0.27,0.07-0.54,0.12-0.79,0.13s-0.48-0.03-0.66-0.04c-0.18-0.01-0.31,0-0.44,0.04
	c-0.13,0.05-0.26,0.12-0.4,0.18c-0.14,0.05-0.29,0.09-0.46,0.14c-0.16,0.05-0.34,0.12-0.49,0.23c-0.14,0.11-0.25,0.25-0.33,0.3
	c-0.08,0.05-0.14,0-0.24-0.14s-0.27-0.35-0.46-0.48c-0.2-0.14-0.43-0.2-0.81-0.27c-0.37-0.07-0.88-0.15-1.38-0.1
	c-0.49,0.05-0.97,0.23-1.32,0.38c-0.35,0.14-0.57,0.25-0.84,0.41c-0.27,0.16-0.58,0.38-0.88,0.52c-0.31,0.13-0.61,0.19-0.98,0.16
	c-0.25-0.03-0.53-0.09-0.87-0.18c-0.28-0.09-0.56-0.16-0.79-0.23c-0.24-0.06-0.42-0.12-0.85-0.23c-0.18-0.04-0.42-0.1-0.67-0.14
	c-0.06-0.02-0.13-0.03-0.19-0.05c-0.68-0.16-1.31-0.3-2-0.37c-0.69-0.07-1.43-0.06-1.85-0.09c-0.42-0.03-0.53-0.07-0.65-0.19
	c-0.05-0.05-0.11-0.11-0.17-0.17c-0.08-0.11-0.16-0.23-0.26-0.31c-0.18-0.14-0.44-0.17-0.74-0.19c-0.12-0.01-0.24-0.02-0.36-0.01
	c-0.26-0.08-0.56-0.12-0.88-0.17c-0.45-0.06-0.95-0.14-1.29-0.28c-0.34-0.14-0.51-0.35-0.69-0.54c-0.18-0.19-0.36-0.37-0.82-0.53
	c-0.45-0.16-1.18-0.29-1.74-0.33c-0.56-0.04-0.96,0-1.35,0.09c-0.39,0.09-0.78,0.24-1.24,0.53c-0.46,0.28-1,0.7-1.28,1.06
	c-0.28,0.36-0.31,0.66-0.24,1.03c0.07,0.38,0.23,0.84,0.25,1.2c0.03,0.36-0.09,0.62-0.2,0.82s-0.21,0.33-0.5,0.49
	c-0.29,0.16-0.75,0.36-1.1,0.47c-0.35,0.1-0.58,0.12-0.88-0.03c-0.29-0.15-0.64-0.45-1.15-0.74c-0.5-0.29-1.16-0.58-1.85-0.78
	c-0.69-0.2-1.42-0.32-2.03-0.42c-0.61-0.11-1.1-0.21-1.4-0.31c-0.3-0.1-0.4-0.19-0.54-0.45c-0.14-0.25-0.32-0.66-0.48-0.98
	c-0.16-0.32-0.32-0.55-0.51-0.72c-0.19-0.17-0.41-0.29-0.74-0.37c-0.02-0.07-0.16-0.1-0.31-0.11c-0.2-0.02-0.43-0.03-0.65-0.04
	c-0.15-0.02-0.3-0.03-0.47-0.05c-0.59-0.07-1.31-0.17-1.76-0.2c-0.45-0.04-0.61-0.01-0.9-0.08c-0.29-0.06-0.7-0.21-1.1-0.32
	c-0.35-0.1-0.69-0.17-0.9-0.15c-0.07-0.1-0.2-0.18-0.3-0.24c-0.16-0.09-0.25-0.12-0.39-0.19c-0.14-0.06-0.32-0.15-0.45-0.27
	c-0.09-0.08-0.16-0.17-0.22-0.26c-0.02-0.05-0.04-0.11-0.08-0.16c-0.09-0.12-0.28-0.19-0.42-0.2c-0.05,0-0.09-0.01-0.13-0.01
	c-0.07-0.02-0.14-0.03-0.2-0.05c-0.04-0.01-0.07-0.03-0.11-0.05c-0.05-0.05-0.11-0.1-0.21-0.13c-0.05-0.02-0.13-0.03-0.2-0.04
	c-0.06-0.02-0.13-0.04-0.21-0.07c-0.18-0.07-0.42-0.18-0.58-0.3c-0.17-0.11-0.26-0.23-0.31-0.37c-0.05-0.14-0.05-0.3,0-0.46
	c0.05-0.16,0.15-0.31,0.24-0.43c0.1-0.11,0.2-0.19,0.4-0.31c0.11-0.06,0.24-0.13,0.38-0.21c0.14-0.06,0.29-0.13,0.41-0.2
	c0.27-0.16,0.46-0.33,0.53-0.48c0.06-0.15,0-0.26-0.06-0.39c-0.01-0.07-0.03-0.14-0.03-0.21c-0.01-0.13,0.02-0.27,0.05-0.42
	c0-0.01,0-0.01,0-0.02c0.03-0.06,0.06-0.12,0.08-0.19c0.05-0.16,0.04-0.35,0-0.48c-0.04-0.14-0.11-0.22-0.29-0.31
	c-0.06-0.03-0.14-0.07-0.23-0.1c-0.12-0.07-0.25-0.15-0.36-0.23c-0.15-0.13-0.24-0.28-0.28-0.4c-0.04-0.13-0.03-0.22,0.03-0.36
	c0.06-0.13,0.19-0.31,0.32-0.45c0.1-0.09,0.19-0.17,0.29-0.25c0.24-0.16,0.52-0.34,0.63-0.58c0.11-0.25,0.05-0.56-0.08-0.7
	c-0.13-0.13-0.32-0.1-0.58,0.02c-0.07,0.03-0.13,0.06-0.21,0.1c-0.05,0.02-0.11,0.04-0.17,0.05c-0.22,0.06-0.43,0.08-0.54,0.1
	c-0.11,0.01-0.11,0.01-0.14-0.06c-0.03-0.06-0.08-0.16-0.14-0.26c-0.05-0.12-0.1-0.25-0.2-0.35c-0.14-0.13-0.36-0.22-0.66-0.26
	c-0.3-0.04-0.66-0.04-0.96,0.04c-0.28,0.08-0.5,0.22-0.74,0.35c-0.2,0.09-0.35,0.16-0.6,0.24c-0.24,0.08-0.58,0.19-0.81,0.26
	c-0.17,0.04-0.34,0.07-0.5,0.08c-0.05-0.01-0.11-0.02-0.17-0.03c-0.24-0.05-0.46-0.15-0.61-0.21c-0.02,0-0.03-0.01-0.05-0.02
	c0,0-0.01-0.01-0.02-0.01c-0.19-0.1-0.37-0.13-0.55-0.1c-0.09,0.02-0.18,0.05-0.27,0.08c0,0-0.01,0-0.01,0
	c-0.19,0.03-0.39,0.06-0.54,0.06c-0.15,0-0.25-0.03-0.4-0.08c-0.03-0.01-0.06-0.03-0.09-0.03c-0.13-0.07-0.25-0.14-0.42-0.18
	c-0.22-0.05-0.51-0.03-0.71,0.05c-0.08,0.03-0.15,0.08-0.21,0.12c-0.05,0.02-0.09,0.05-0.15,0.08c-0.19,0.09-0.48,0.23-0.75,0.32
	c-0.27,0.09-0.5,0.13-0.67,0.13c-0.15,0-0.25-0.02-0.45-0.09c-0.08-0.03-0.15-0.07-0.23-0.1c-0.06-0.02-0.13-0.04-0.2-0.05
	c-0.24-0.08-0.5-0.17-0.75-0.22c-0.32-0.07-0.58-0.07-0.81-0.05c-0.05,0-0.1-0.01-0.15-0.01c-0.21,0-0.36,0.05-0.5,0.09
	c-0.04,0.01-0.08,0.01-0.12,0.02c-0.12,0.02-0.21,0.02-0.31,0.03c-0.14-0.01-0.28-0.03-0.4-0.02c-0.11,0.01-0.19,0.04-0.29,0.08
	c-0.17,0.02-0.34,0.05-0.53,0.08c-0.12,0-0.26,0-0.39,0.03c-0.13,0.03-0.27,0.09-0.4,0.14c-0.11,0.03-0.2,0.05-0.31,0.07
	c-0.07,0.01-0.14,0.01-0.22,0.02c-0.11-0.01-0.22-0.02-0.34,0c-0.11,0.03-0.22,0.08-0.34,0.14h0c-0.11,0.05-0.23,0.09-0.48,0.13
	c-0.11,0.02-0.26,0.03-0.42,0.05c-0.12,0-0.26,0-0.42,0.02c-0.48,0.04-1.17,0.17-1.64,0.35c-0.28,0.11-0.48,0.23-0.65,0.34
	c-0.15,0.08-0.29,0.16-0.47,0.23c-0.11,0.04-0.22,0.08-0.34,0.12c-0.03,0-0.06,0.01-0.09,0.02c-0.24,0.05-0.56,0.16-0.77,0.26
	c-0.19,0.08-0.27,0.16-0.36,0.23c-0.06,0.03-0.12,0.05-0.18,0.08c-0.12,0.05-0.24,0.1-0.35,0.14c-0.08,0.02-0.17,0.03-0.27,0.06
	c-0.16,0.05-0.34,0.12-0.51,0.3c-0.08,0.08-0.16,0.18-0.25,0.29c-0.02,0.02-0.04,0.04-0.06,0.05c-0.2,0.19-0.42,0.38-0.65,0.54
	c-0.14,0.1-0.29,0.19-0.4,0.27c-0.12,0.07-0.21,0.13-0.32,0.16c-0.08,0-0.15,0-0.2,0c-0.15,0.01-0.21,0-0.3-0.03
	c-0.08-0.02-0.21-0.05-0.45-0.11c-0.17-0.05-0.34-0.11-0.48-0.15c-0.36-0.11-0.6-0.18-0.84-0.21c-0.24-0.03-0.49-0.03-0.74-0.05
	c-0.26-0.02-0.52-0.05-0.87,0c-0.19,0.03-0.4,0.08-0.62,0.13c-0.21,0.03-0.38,0.05-0.54,0.06c-0.19,0.01-0.36-0.01-0.58-0.14
	c-0.23-0.13-0.5-0.36-0.71-0.54c-0.06-0.05-0.12-0.11-0.17-0.16c-0.1-0.11-0.19-0.22-0.3-0.31c-0.28-0.23-0.6-0.32-0.9-0.29
	c-0.3,0.02-0.57,0.14-0.86,0.55c-0.26,0.37-0.54,0.98-0.78,1.5c-0.13,0.27-0.27,0.57-0.4,0.84c-0.11,0.23-0.2,0.42-0.27,0.58
	c-0.07,0.16-0.14,0.28-0.21,0.38c-0.11,0.16-0.23,0.24-0.44,0.37c-0.06,0.02-0.12,0.04-0.19,0.07c-0.24,0.11-0.54,0.29-0.82,0.48
	c-0.04,0.03-0.08,0.06-0.13,0.08c-0.13,0.08-0.26,0.14-0.47,0.22c-0.24,0.1-0.59,0.22-0.94,0.36c-0.13,0.03-0.26,0.07-0.4,0.12
	c-0.41,0.14-0.85,0.39-1.26,0.71c-0.05,0.04-0.09,0.08-0.14,0.11c-0.23,0.16-0.43,0.33-0.57,0.51c-0.11,0.14-0.19,0.29-0.25,0.44
	c-0.09,0.18-0.13,0.34-0.15,0.48c-0.05,0.21-0.09,0.39-0.14,0.53c-0.06,0.16-0.12,0.25-0.23,0.39c-0.03,0.04-0.07,0.08-0.11,0.13
	c-0.12,0.12-0.24,0.24-0.33,0.37c-0.14,0.19-0.22,0.4-0.23,0.87c-0.01,0.22,0,0.49,0,0.77c-0.01,0.26-0.01,0.51-0.03,0.74
	c-0.03,0.29-0.07,0.56-0.12,0.75c-0.05,0.19-0.1,0.3-0.2,0.45c-0.1,0.15-0.24,0.32-0.36,0.47c-0.03,0.04-0.07,0.08-0.1,0.12
	c-0.08,0.08-0.16,0.16-0.23,0.25c-0.09,0.12-0.17,0.24-0.25,0.37c0,0.01-0.01,0.01-0.01,0.02c-0.11,0.16-0.24,0.36-0.34,0.5
	c-0.11,0.13-0.18,0.2-0.35,0.3c-0.05,0.03-0.11,0.06-0.17,0.1c-0.07,0.03-0.15,0.06-0.23,0.11c-0.19,0.09-0.41,0.24-0.61,0.4
	c-0.12,0.09-0.23,0.19-0.35,0.28c-0.22,0.17-0.45,0.35-0.68,0.5c-0.23,0.15-0.45,0.26-0.78,0.39c-0.25,0.09-0.57,0.19-0.95,0.31
	c-0.26,0.08-0.55,0.16-0.88,0.24c-0.46,0.11-1.01,0.23-1.37,0.47c-0.36,0.24-0.53,0.62-0.71,1.03c-0.09,0.2-0.18,0.41-0.26,0.6
	c-0.02,0.04-0.03,0.07-0.05,0.11c-0.13,0.29-0.24,0.53-0.34,0.68s-0.21,0.23-0.42,0.3c-0.21,0.07-0.53,0.14-0.7,0.21
	c-0.14,0.06-0.19,0.12-0.24,0.24c0,0-0.01,0-0.01,0.01c-0.2,0.19-0.21,0.47-0.27,0.71c-0.01,0.03-0.03,0.06-0.03,0.08
	c-0.09,0.21-0.17,0.32-0.28,0.45c-0.04,0.04-0.08,0.09-0.12,0.13c-0.05,0.05-0.11,0.1-0.16,0.14c-0.19,0.19-0.32,0.4-0.42,0.77
	c-0.05,0.16-0.08,0.35-0.12,0.54c-0.04,0.14-0.08,0.27-0.11,0.38c-0.08,0.26-0.12,0.36-0.22,0.46c-0.1,0.1-0.25,0.19-0.46,0.28
	c-0.05,0.03-0.12,0.05-0.19,0.08c-0.35,0.11-0.82,0.27-1.19,0.52c-0.41,0.27-0.69,0.64-0.93,0.99c-0.05,0.08-0.11,0.16-0.15,0.24
	c-0.16,0.22-0.32,0.47-0.45,0.65c-0.12,0.17-0.21,0.28-0.3,0.39c-0.16,0.18-0.31,0.34-0.41,0.52c-0.14,0.27-0.16,0.58-0.21,0.83
	c0,0.01,0,0.02,0,0.03c-0.03,0.12-0.06,0.21-0.11,0.3c-0.06,0.12-0.16,0.27-0.29,0.35c-0.09,0.06-0.19,0.09-0.29,0.13
	c-0.12,0.01-0.26,0.02-0.4,0.11c-0.19,0.12-0.38,0.37-0.53,0.62c-0.15,0.25-0.26,0.49-0.29,0.77c-0.04,0.27-0.01,0.58,0.03,0.79
	c0.03,0.21,0.07,0.32,0.21,0.47c0.07,0.08,0.17,0.16,0.28,0.25c0.03,0.02,0.04,0.04,0.07,0.06c0.16,0.15,0.4,0.36,0.54,0.52
	c0.14,0.16,0.18,0.26,0.22,0.44c0.04,0.19,0.08,0.45,0.11,0.71c0.02,0.26,0.01,0.52-0.02,0.76c-0.03,0.24-0.1,0.47-0.16,0.59
	c-0.04,0.09-0.08,0.13-0.13,0.16c-0.08,0.02-0.16,0.04-0.21,0.07c-0.08,0.05-0.08,0.16,0.03,0.32c0.05,0.07,0.12,0.15,0.2,0.24
	c0.09,0.12,0.2,0.26,0.3,0.45c0.12,0.23,0.23,0.53,0.3,0.82c0.07,0.29,0.08,0.59,0.06,0.94c-0.03,0.35-0.1,0.77-0.18,1.09
	c-0.08,0.32-0.16,0.55-0.27,0.83c-0.11,0.29-0.25,0.63-0.38,0.91c-0.04,0.09-0.08,0.17-0.12,0.26c-0.1,0.17-0.2,0.32-0.26,0.49
	c-0.08,0.23-0.09,0.5-0.12,0.77c-0.03,0.28-0.08,0.57-0.19,0.91c-0.12,0.34-0.31,0.73-0.58,1.06c-0.06,0.08-0.13,0.14-0.19,0.21
	c-0.12,0.11-0.24,0.21-0.34,0.32c-0.12,0.1-0.24,0.2-0.33,0.27c-0.23,0.19-0.34,0.27-0.23,0.52c0.07,0.16,0.23,0.4,0.42,0.65
	c0.02,0.04,0.04,0.08,0.06,0.12c0.25,0.51,0.63,1.25,0.91,1.54c0.01,0.01,0.02,0.01,0.03,0.02c0,0.05-0.02,0.09-0.04,0.13
	c-0.05,0.03-0.08,0.06-0.09,0.08c-0.03,0.03-0.03,0.03-0.06,0.05c0,0-0.02,0.01-0.02,0.02c-0.13,0.08-0.29,0.17-0.37,0.28
	c-0.1,0.12-0.1,0.27-0.07,0.4c0.03,0.13,0.08,0.25,0.1,0.39c0.01,0.14-0.03,0.31-0.01,0.45c0.02,0.13,0.1,0.23,0.28,0.3
	c0.03,0.01,0.07,0.02,0.11,0.03c0.13,0.2,0.25,0.36,0.33,0.51c-0.06-0.01-0.12-0.02-0.18-0.03c-0.21-0.03-0.42,0-0.5,0.09
	c-0.08,0.1-0.03,0.26,0.11,0.38c0.13,0.11,0.34,0.17,0.45,0.25c0.12,0.08,0.15,0.19,0.21,0.26c0.07,0.08,0.17,0.12,0.31,0.12
	c0.03,0,0.06,0,0.09-0.01c0.13,0.02,0.3,0.03,0.4,0.05c0.08,0.02,0.11,0.04,0.15,0.08c0.01,0.01,0.02,0.02,0.03,0.03
	c0.07,0.1,0.15,0.21,0.28,0.23c0.11,0.01,0.25-0.04,0.4-0.08c0.03,0,0.05-0.01,0.07-0.01c0.13-0.02,0.23-0.03,0.34-0.01
	c0.11,0.01,0.23,0.05,0.28,0.1c0.04,0.06,0,0.13-0.14,0.21c-0.06,0.03-0.13,0.06-0.22,0.1c-0.06,0.01-0.12,0.02-0.19,0.04
	c-0.15,0.04-0.34,0.13-0.47,0.24c-0.03,0.03-0.07,0.06-0.09,0.1c-0.26,0.16-0.52,0.35-0.7,0.51c-0.09,0.03-0.17,0.04-0.21,0.1
	c-0.05,0.07-0.05,0.2,0,0.3c0.05,0.1,0.16,0.16,0.24,0.13c0.05-0.01,0.11-0.06,0.16-0.12c0.23-0.09,0.54-0.28,0.91-0.37
	c0.12-0.03,0.25-0.05,0.37-0.05c0.15,0.03,0.26,0.15,0.38,0.2c0.12,0.05,0.26,0.03,0.45,0.01c0.03,0,0.07,0,0.11-0.01
	c0.05,0,0.1,0.01,0.15,0.01c0.21,0.02,0.37,0.07,0.44,0.09c0.08,0.02,0.08,0.02,0.09,0.08c0.01,0.05,0.03,0.16,0.06,0.26
	c-0.01,0.09-0.02,0.17,0.01,0.23c0.04,0.08,0.16,0.09,0.28,0.12c0.06,0.03,0.12,0.05,0.17,0.08c0.08,0.04,0.13,0.08,0.19,0.25
	c0.02,0.05,0.03,0.11,0.05,0.18c0,0.03,0,0.06,0,0.09c0,0.16,0.03,0.35,0.12,0.53c0.1,0.18,0.28,0.35,0.52,0.5
	c0.11,0.07,0.24,0.13,0.35,0.19c0.1,0.06,0.19,0.12,0.26,0.17c0.12,0.08,0.2,0.15,0.27,0.21c0.02,0.03,0.05,0.05,0.08,0.08
	c0.03,0.03,0.06,0.05,0.11,0.07c0.08,0.07,0.18,0.15,0.29,0.27c0.05,0.05,0.09,0.1,0.14,0.16c0.06,0.09,0.13,0.19,0.2,0.27
	c0.05,0.07,0.11,0.13,0.17,0.18c0.13,0.17,0.22,0.29,0.29,0.42c0.03,0.05,0.05,0.09,0.07,0.14c0,0.02,0.01,0.03,0.02,0.05
	c0.01,0.02,0.02,0.04,0.03,0.06c0.02,0.06,0.04,0.12,0.05,0.19c0.03,0.16,0.04,0.35,0,0.5c-0.02,0.06-0.04,0.11-0.06,0.16
	c-0.05,0.06-0.11,0.13-0.15,0.21c-0.06,0.14-0.06,0.33,0.03,0.48c0.09,0.15,0.26,0.26,0.4,0.35c0.04,0.05,0.09,0.09,0.13,0.14
	c0.09,0.1,0.15,0.19,0.22,0.29c0.03,0.11,0.05,0.22,0.12,0.3c0.08,0.1,0.24,0.14,0.45,0.19c0.11,0.03,0.22,0.05,0.33,0.09
	c0.13,0.07,0.19,0.1,0.26,0.24c0.03,0.06,0.07,0.15,0.11,0.24c0.01,0.04,0.02,0.08,0.03,0.13c0.05,0.17,0.15,0.35,0.32,0.44
	c0.13,0.08,0.31,0.1,0.49,0.13c0.15,0.04,0.32,0.08,0.5,0.13c0.1,0.04,0.2,0.09,0.3,0.16c0.23,0.14,0.49,0.37,0.72,0.59
	c0.23,0.22,0.44,0.44,0.66,0.6c0.12,0.09,0.25,0.16,0.37,0.23c0.03,0.02,0.07,0.04,0.11,0.07c0.17,0.11,0.38,0.24,0.59,0.38
	c0.09,0.07,0.19,0.13,0.28,0.2c0.09,0.05,0.18,0.11,0.27,0.16c0.24,0.16,0.4,0.26,0.54,0.4c0.11,0.11,0.21,0.25,0.32,0.39
	c0.04,0.06,0.08,0.13,0.13,0.2c0.11,0.16,0.26,0.32,0.45,0.45c0.16,0.12,0.35,0.21,0.57,0.32c0.04,0.03,0.08,0.05,0.12,0.08
	c0.24,0.14,0.48,0.3,0.64,0.42c0.15,0.11,0.21,0.19,0.3,0.29c0.06,0.08,0.11,0.17,0.16,0.24c0.11,0.15,0.26,0.26,0.42,0.34
	c0.16,0.08,0.35,0.13,0.62,0.21c0.27,0.09,0.62,0.22,0.95,0.34c0.33,0.12,0.64,0.24,0.87,0.27c0.24,0.04,0.4,0,0.64-0.1
	c0.11-0.05,0.24-0.11,0.38-0.18c0.02-0.01,0.03-0.01,0.05-0.02c0.36-0.15,0.88-0.37,1.41-0.59c0.53-0.21,1.06-0.42,1.55-0.58
	c0.48-0.16,0.91-0.26,1.32-0.31c0.27-0.04,0.53-0.05,0.8-0.06c0.15,0,0.29,0.01,0.44,0c0.16-0.01,0.32-0.04,0.49-0.07
	c0.25-0.03,0.49-0.05,0.7-0.07c0.33-0.03,0.57-0.03,0.89,0c0.16,0.02,0.35,0.04,0.52,0.06c0.12,0.02,0.23,0.04,0.33,0.06
	c0.25,0.04,0.44,0.05,0.56-0.06c0.03-0.03,0.06-0.08,0.08-0.12c0.04-0.04,0.09-0.08,0.18-0.12c0.09-0.04,0.21-0.08,0.32-0.12
	c0.03,0.07,0.06,0.15,0.11,0.22c0.08,0.12,0.2,0.21,0.39,0.31c0.19,0.1,0.44,0.21,0.66,0.29c0.01,0,0.02,0.01,0.03,0.01
	c0.2,0.09,0.41,0.17,0.6,0.23c0.15,0.08,0.29,0.19,0.48,0.2c0.21,0.01,0.49-0.11,0.71-0.26c0.06-0.04,0.11-0.08,0.17-0.11
	c0.1-0.05,0.2-0.1,0.3-0.14c0.24-0.1,0.49-0.16,0.75-0.22c0.21-0.02,0.42-0.04,0.59-0.08c0.24-0.06,0.38-0.18,0.52-0.29
	c0.07-0.04,0.15-0.09,0.26-0.15c0.24-0.13,0.61-0.31,0.87-0.42c0.26-0.11,0.4-0.16,0.72-0.23c0.21-0.05,0.51-0.12,0.82-0.2
	c0.32-0.05,0.61-0.09,0.9-0.2c0.3-0.1,0.61-0.27,0.95-0.4c0.34-0.13,0.72-0.23,0.97-0.33h0c0.14-0.05,0.27-0.1,0.39-0.17
	c0.02,0,0.03,0,0.05-0.01c0.13-0.03,0.4-0.09,0.67-0.13c0.04-0.01,0.08-0.01,0.12-0.02c0.13-0.01,0.26-0.02,0.37-0.03
	c0.21-0.03,0.35-0.08,0.48-0.12c0.15-0.03,0.28-0.07,0.38-0.09c0.14-0.03,0.24-0.03,0.45-0.02c0.22,0.03,0.48,0.1,0.69,0.11
	c0.19,0,0.35-0.03,0.5-0.07c0.06,0,0.13-0.01,0.19-0.01c0.27-0.02,0.6-0.03,0.93,0c0.33,0.03,0.66,0.1,0.96,0.22
	c0.3,0.12,0.57,0.28,0.86,0.51c0.13,0.11,0.27,0.23,0.4,0.35c0.16,0.18,0.31,0.36,0.48,0.47c0.13,0.1,0.27,0.15,0.4,0.19
	c0.04,0.03,0.08,0.05,0.1,0.08c0.1,0.09,0.1,0.19,0.08,0.29c0,0,0,0.01,0,0.01c-0.03,0.03-0.05,0.05-0.07,0.08
	c-0.05,0.09-0.06,0.22,0.04,0.48c0.07,0.19,0.21,0.45,0.35,0.7c0.02,0.06,0.05,0.12,0.07,0.18c0.11,0.33,0.16,0.6,0.28,0.73
	c0.12,0.13,0.31,0.12,0.53,0.12c0.19,0,0.41,0.01,0.68,0.03c0.02,0,0.04,0,0.05,0c0.2,0.03,0.44,0.06,0.65,0.08
	c0.21,0.02,0.4,0.02,0.56-0.03c0.16-0.05,0.28-0.14,0.38-0.26c0,0,0.01-0.01,0.01-0.01c0.13-0.09,0.26-0.19,0.47-0.22
	c0.19-0.03,0.43-0.01,0.73,0.02c0.01,0,0.03,0.01,0.04,0.01c0.29,0.06,0.53,0.13,0.8,0.13c0.28,0,0.6-0.07,0.77-0.13
	c0.16-0.06,0.17-0.12,0.16-0.2c0-0.02-0.01-0.04-0.01-0.05c0.01-0.02,0.02-0.05,0.03-0.07c0.05-0.07,0.16-0.14,0.32-0.1
	c0.16,0.04,0.4,0.18,0.66,0.21c0.14,0.02,0.29,0,0.42-0.05c0.08,0.04,0.19,0.09,0.3,0.17c0.17,0.13,0.38,0.33,0.38,0.47
	c0,0.14-0.22,0.22-0.24,0.26c-0.02,0.05,0.17,0.05,0.26,0.13c0.09,0.08,0.08,0.24,0.14,0.23c0.06-0.01,0.2-0.18,0.37-0.2
	c0.17-0.03,0.37,0.1,0.55,0.2c0.18,0.1,0.33,0.17,0.43,0.32c0.1,0.15,0.14,0.38,0.22,0.58c0.08,0.2,0.19,0.37,0.25,0.61
	c0.05,0.24,0.05,0.55,0.07,0.82c0.01,0.27,0.04,0.5-0.02,0.75c-0.05,0.25-0.19,0.53-0.28,0.83c-0.02,0-0.05,0-0.06,0
	c-0.13,0.04-0.18,0.21-0.19,0.37c-0.02,0.16,0,0.32,0,0.43c0,0.12-0.01,0.2-0.1,0.33c-0.07,0.09-0.17,0.2-0.27,0.32
	c-0.05,0.04-0.11,0.08-0.16,0.14c-0.13,0.13-0.26,0.35-0.22,0.54c0.03,0.14,0.14,0.28,0.24,0.43c0.01,0.05,0.04,0.13,0.06,0.24
	c0.03,0.16,0.02,0.37-0.03,0.51c-0.05,0.14-0.15,0.21-0.25,0.29c0,0,0,0,0,0c-0.12,0.05-0.26,0.13-0.33,0.27
	c-0.06,0.13-0.04,0.34,0.06,0.45c0.1,0.11,0.27,0.15,0.5,0.24c0.01,0,0.02,0.01,0.03,0.01c0.19,0.09,0.39,0.19,0.45,0.25
	c0.07,0.06,0,0.08-0.15,0.08c0,0-0.02,0-0.02,0c-0.1-0.02-0.2-0.04-0.32-0.05c-0.17-0.01-0.39,0.01-0.52,0.11
	c-0.13,0.09-0.16,0.26-0.18,0.5c-0.01,0.06-0.01,0.13-0.01,0.19c-0.02,0.12-0.04,0.23-0.07,0.33c-0.04,0.15-0.11,0.27-0.22,0.39
	c-0.01,0.02-0.03,0.03-0.04,0.05c-0.05,0.03-0.1,0.05-0.13,0.08c-0.1,0.08-0.12,0.16-0.2,0.24c-0.08,0.08-0.22,0.14-0.27,0.23
	c-0.04,0.09,0.02,0.2,0.08,0.34c0.06,0.13,0.13,0.28,0.12,0.44c0,0.01,0,0.02,0,0.03c0,0.03-0.01,0.07-0.02,0.11
	c-0.03,0.11-0.06,0.21-0.04,0.29c0.03,0.11,0.17,0.18,0.39,0.2c0.11,0.01,0.24,0.01,0.37,0.02c0.05,0,0.09,0.01,0.13,0.01
	c0.16,0.02,0.26,0.05,0.31,0.08c0.05,0.03,0.06,0.06,0.03,0.1c-0.04,0.04-0.12,0.09-0.21,0.12c-0.03,0.01-0.06,0.03-0.09,0.03
	c-0.1,0.03-0.21,0.05-0.24,0.1c-0.03,0.04-0.02,0.11,0.02,0.16c0,0.01,0.01,0.02,0.02,0.03c0.02,0.03,0.05,0.05,0.08,0.08
	c0.05,0.03,0.11,0.05,0.16,0.08c0.03,0.02,0.06,0.03,0.08,0.05c0.08,0.05,0.12,0.08,0.08,0.11c-0.03,0.02-0.1,0.04-0.16,0.06h0
	c-0.03,0-0.05,0-0.08,0.02c-0.04,0-0.07,0.01-0.06,0.04c-0.02,0.02-0.03,0.05-0.03,0.08c0.01,0.08,0.1,0.2,0.23,0.33
	c0.04,0.05,0.08,0.11,0.13,0.16c0.1,0.09,0.23,0.16,0.37,0.23c0.08,0.04,0.17,0.09,0.26,0.12c0.08,0.02,0.16,0.04,0.24,0.05
	c0.2,0.06,0.38,0.11,0.48,0.16c0.13,0.05,0.11,0.09,0.03,0.13c-0.03,0.01-0.06,0.03-0.1,0.04c-0.05,0.01-0.11,0.01-0.16,0.02
	c-0.11,0.03-0.18,0.08-0.19,0.18c-0.01,0.09,0.03,0.22,0.45,0.56c0.15,0.13,0.36,0.28,0.58,0.45c0.18,0.15,0.4,0.32,0.64,0.53
	c0.48,0.4,1.07,0.93,1.35,1.15c0.02,0.01,0.03,0.02,0.04,0.03c0.07,0.07,0.13,0.13,0.19,0.19c0.03,0.03,0.05,0.05,0.08,0.09
	c0.12,0.13,0.27,0.3,0.45,0.53c0.18,0.23,0.38,0.5,0.52,0.76c0.07,0.12,0.12,0.24,0.18,0.35c0.05,0.14,0.09,0.27,0.15,0.39
	c0.1,0.19,0.23,0.32,0.32,0.4c0.03,0.04,0.05,0.08,0.08,0.11c0.11,0.17,0.19,0.34,0.3,0.59c0.04,0.14,0.03,0.25,0.05,0.4
	c0.03,0.16,0.09,0.37,0.22,0.48c0.05,0.04,0.1,0.06,0.16,0.08c0,0,0,0,0.01,0.01c0.03,0.16,0.08,0.35,0.14,0.55
	c-0.14,0.04-0.23,0.11-0.19,0.34c0.05,0.24,0.26,0.67,0.5,1.03c0.13,0.21,0.27,0.39,0.4,0.56c0.28,0.69,0.5,1.2,0.71,1.74
	c0.26,0.64,0.51,1.31,0.6,1.75c0.08,0.45,0,0.66-0.12,0.81c-0.05,0.06-0.11,0.12-0.16,0.17c-0.02,0.01-0.05,0.03-0.07,0.04
	c-0.18,0.11-0.34,0.22-0.37,0.32c-0.03,0.1,0.05,0.18,0.31,0.64c0.05,0.08,0.1,0.18,0.15,0.28c0.02,0.04,0.03,0.08,0.05,0.13
	c0.24,0.68,0.69,1.77,0.94,2.64c0.25,0.87,0.32,1.52,0.34,1.98c0.02,0.46-0.02,0.72-0.16,1.02c-0.14,0.3-0.38,0.64-0.68,0.94
	c-0.08,0.08-0.16,0.15-0.25,0.22c-0.02,0.01-0.04,0.02-0.07,0.03c-0.16,0.05-0.35,0.1-0.52,0.25c-0.16,0.15-0.28,0.41-0.36,0.67
	c-0.02,0.06-0.03,0.11-0.04,0.17c-0.02,0.05-0.04,0.09-0.06,0.13c-0.09,0.19-0.2,0.35-0.36,0.51c-0.01,0-0.01,0.01-0.02,0.02
	c-0.05,0.02-0.11,0.03-0.17,0.05c-0.16,0.05-0.3,0.14-0.4,0.42c-0.11,0.28-0.17,0.75-0.23,1.17c-0.03,0.21-0.06,0.4-0.08,0.58
	c-0.08,0.47-0.16,0.87-0.27,1.23c-0.03,0.1-0.06,0.19-0.1,0.28c-0.08,0.11-0.17,0.21-0.24,0.34c-0.07,0.15-0.1,0.33-0.15,0.53
	c-0.1,0.25-0.19,0.5-0.32,0.75c-0.08,0.16-0.18,0.34-0.27,0.5c-0.14,0.19-0.27,0.29-0.3,0.48c-0.02,0.13,0,0.3,0.03,0.5
	c0,0.04,0,0.08,0.01,0.13c0.03,0.34,0.07,0.86,0.07,1.26c0,0.25-0.03,0.45-0.04,0.6c-0.03,0.11-0.06,0.22-0.08,0.34
	c-0.05,0.27-0.05,0.59,0,0.91c0.05,0.32,0.14,0.64,0.28,1.02c0.14,0.38,0.33,0.82,0.49,1.1c0.16,0.28,0.29,0.4,0.49,0.6
	c0.01,0.02,0.03,0.04,0.05,0.05c0.25,0.36,0.51,0.74,0.83,1.32c0.33,0.61,0.72,1.46,1.01,2.1c0.05,0.1,0.09,0.19,0.13,0.29
	c0.11,0.34,0.21,0.7,0.33,0.94c0.11,0.22,0.24,0.35,0.37,0.5c0.11,0.18,0.22,0.34,0.32,0.53c0.1,0.17,0.2,0.38,0.31,0.58
	c0.06,0.18,0.12,0.34,0.2,0.47c0.09,0.16,0.21,0.26,0.33,0.4c0.12,0.16,0.24,0.32,0.34,0.47c0.19,0.28,0.34,0.56,0.43,0.97
	c0.09,0.41,0.13,0.96,0.14,1.59c0,0.29,0,0.58,0,0.87c0,0.05,0,0.09-0.01,0.13c-0.03,0.34-0.08,0.67-0.03,1.02
	c0.04,0.25,0.13,0.5,0.21,0.71c0.02,0.08,0.04,0.16,0.05,0.24c0.03,0.14,0.06,0.28,0.09,0.42c0,0.03,0,0.06,0,0.1
	c0,0.14,0,0.31,0.08,0.45c0.03,0.05,0.06,0.09,0.1,0.13c0.09,0.24,0.19,0.49,0.24,0.8c0.03,0.16,0.03,0.35,0.04,0.53
	c-0.03,0.29-0.05,0.6-0.03,0.82c0.03,0.29,0.11,0.42,0.19,0.54c0.01,0.05,0.02,0.09,0.03,0.13c0.02,0.14,0.02,0.26,0.03,0.37
	c-0.02,0.04-0.04,0.08-0.05,0.12c-0.03,0.1-0.03,0.2,0.07,0.29c0.07,0.07,0.19,0.13,0.28,0.19c0.01,0.01,0.02,0.03,0.02,0.04
	c0.07,0.14,0.06,0.24,0.04,0.38l0,0c-0.06,0.12-0.14,0.26-0.11,0.45c0.02,0.13,0.08,0.29,0.15,0.45c0.04,0.16,0.09,0.33,0.13,0.5
	c0.01,0.04,0.02,0.08,0.03,0.12c0,0.05,0,0.11,0.01,0.16c0.01,0.19,0.05,0.41,0.15,0.58c0.06,0.1,0.14,0.18,0.22,0.26
	c0.02,0.02,0.03,0.03,0.05,0.05c0.12,0.13,0.29,0.32,0.57,0.61c0.01,0.02,0.03,0.03,0.04,0.05c0.18,0.26,0.41,0.61,0.67,0.89
	c0.27,0.29,0.57,0.51,0.78,0.79c0.22,0.27,0.35,0.6,0.54,0.9c0.14,0.23,0.31,0.44,0.44,0.66c0.02,0.06,0.05,0.12,0.06,0.18
	c0.09,0.27,0.14,0.53,0.21,0.8c0.01,0.06,0.02,0.13,0.03,0.19c0.05,0.26,0.13,0.53,0.24,0.8c0.06,0.19,0.12,0.38,0.19,0.55
	c0.17,0.41,0.37,0.76,0.58,1.15c0.01,0.03,0.03,0.05,0.04,0.08c0.09,0.22,0.19,0.45,0.3,0.67c0.21,0.4,0.47,0.78,0.7,1.03
	c0.04,0.04,0.07,0.08,0.11,0.11c0.11,0.14,0.2,0.27,0.27,0.38c0.16,0.25,0.18,0.37,0.21,0.62c0.01,0.07,0.02,0.16,0.02,0.24
	c0,0.01,0,0.02,0,0.03c0,0,0,0.01,0,0.01c0.02,0.21,0.03,0.44,0.03,0.66c0,0.34-0.03,0.64-0.12,0.82c-0.09,0.18-0.24,0.23-0.38,0.27
	c-0.01,0-0.03,0-0.04,0.01c-0.08,0-0.16,0-0.23,0.02c-0.17,0.03-0.26,0.11-0.24,0.27c0.03,0.16,0.17,0.4,0.3,0.66
	c0.13,0.26,0.26,0.56,0.4,0.85c0.05,0.11,0.11,0.21,0.16,0.31c0.18,0.39,0.22,0.52,0.22,0.69c0,0.05,0,0.11-0.01,0.18
	c-0.05,0.13-0.11,0.31-0.08,0.44c0.03,0.15,0.17,0.24,0.32,0.21c0.09-0.02,0.17-0.08,0.25-0.13c0.03-0.01,0.06-0.03,0.09-0.04
	c0.09-0.03,0.13-0.02,0.2,0.09c0.02,0.03,0.04,0.08,0.07,0.13c0.02,0.09,0.03,0.19,0.06,0.27c0.05,0.11,0.14,0.19,0.29,0.21
	c0.04,0.01,0.08,0.01,0.13,0.01c0.05,0.03,0.11,0.05,0.18,0.09c0.16,0.1,0.37,0.25,0.6,0.41c0.03,0.03,0.05,0.06,0.08,0.09
	c0.19,0.19,0.41,0.34,0.64,0.43c0.23,0.1,0.45,0.13,0.66,0.08c0.21-0.05,0.38-0.19,0.61-0.34c0.08-0.05,0.16-0.1,0.24-0.15
	c0.29-0.15,0.61-0.32,1.03-0.45c0.28-0.09,0.61-0.16,0.93-0.23c0.3-0.05,0.66-0.11,0.98-0.16c0.38-0.07,0.69-0.11,0.87-0.24
	c0.12-0.08,0.18-0.19,0.24-0.29c0.03-0.04,0.07-0.07,0.1-0.1c0.11-0.09,0.2-0.12,0.34-0.13c0.09,0,0.21,0,0.35,0
	c0.26,0.03,0.57,0.06,0.82,0.05c0.29,0,0.5-0.06,0.71-0.12c0.04-0.01,0.08-0.02,0.12-0.03c0.27-0.03,0.5-0.05,0.85-0.03
	c0.15,0,0.32,0.02,0.49,0.05c0.25,0.08,0.54,0.19,0.85,0.27c0.35,0.11,0.73,0.18,1,0.14c0.18-0.03,0.3-0.1,0.42-0.16
	c0.08-0.02,0.16-0.04,0.25-0.06c0.18-0.03,0.39-0.05,0.59-0.08c0.21,0.02,0.42,0.03,0.55-0.01c0.13-0.05,0.19-0.16,0.27-0.26
	c0.01-0.02,0.03-0.03,0.05-0.05c0.04-0.02,0.08-0.04,0.13-0.06c0.24-0.11,0.47-0.18,0.9-0.28c0.02,0,0.04-0.01,0.06-0.01
	c0.08-0.02,0.16-0.03,0.24-0.05c0.48-0.1,1.14-0.23,1.71-0.45c0.57-0.21,1.04-0.52,1.35-0.82c0.21-0.2,0.34-0.4,0.46-0.58
	c0.13-0.17,0.26-0.33,0.42-0.45c0.16-0.14,0.35-0.22,0.57-0.32c0.12-0.03,0.26-0.06,0.43-0.14c0.32-0.15,0.75-0.46,1.03-0.8
	c0.29-0.35,0.44-0.72,0.72-1.14c0.27-0.41,0.67-0.85,0.99-1.13c0.03-0.02,0.05-0.04,0.08-0.06c0.15-0.1,0.3-0.16,0.45-0.22
	c0.18-0.07,0.35-0.12,0.5-0.16c0.16-0.02,0.31-0.02,0.4-0.07c0.12-0.07,0.12-0.21,0.13-0.41c0-0.01,0-0.02,0-0.03
	c0-0.02,0-0.03,0.01-0.05c0.06-0.21,0.13-0.49,0.22-0.73c0.03-0.09,0.08-0.17,0.12-0.25c0.01-0.01,0.01-0.01,0.02-0.02
	c0.03-0.05,0.05-0.1,0.08-0.15c0.05-0.08,0.11-0.17,0.18-0.26c0.18-0.25,0.41-0.55,0.58-0.77c0.05-0.05,0.09-0.11,0.13-0.16
	c0.18-0.24,0.31-0.5,0.38-0.72c0.03-0.1,0.05-0.2,0.06-0.28c0.02-0.06,0.04-0.12,0.06-0.17c0.08-0.2,0.15-0.28,0.33-0.42
	c0.08-0.07,0.2-0.15,0.31-0.23c0.18-0.1,0.36-0.21,0.46-0.32c0.05-0.05,0.08-0.11,0.11-0.17c0.02-0.03,0.04-0.06,0.07-0.1
	c0.09-0.13,0.24-0.32,0.47-0.49c0.16-0.12,0.37-0.22,0.56-0.32c0.13-0.05,0.26-0.1,0.41-0.19c0.2-0.12,0.44-0.29,0.58-0.58
	c0.11-0.22,0.16-0.51,0.24-0.84c0.08-0.24,0.15-0.49,0.25-0.77c0.13-0.38,0.32-0.8,0.45-1.11c0.03-0.06,0.05-0.12,0.08-0.17
	c0.06-0.11,0.12-0.21,0.16-0.29c0.09-0.18,0.14-0.34,0.11-0.52c-0.02-0.12-0.06-0.24-0.1-0.37c-0.01-0.07-0.02-0.15-0.01-0.24
	c0-0.12,0.04-0.26,0.06-0.38c0.02-0.05,0.03-0.09,0.04-0.13c0.04-0.15,0.02-0.26-0.09-0.32c-0.05-0.02-0.11-0.03-0.17-0.05
	c-0.09-0.03-0.19-0.08-0.27-0.12c-0.12-0.07-0.19-0.14-0.25-0.26c-0.06-0.12-0.11-0.28-0.13-0.38c-0.01-0.04-0.02-0.06-0.03-0.09
	c-0.01-0.14,0.01-0.27,0.04-0.38c0.01-0.02,0.03-0.03,0.04-0.05c0.08-0.11,0.18-0.24,0.37-0.43c0.19-0.19,0.47-0.46,0.66-0.64
	c0.19-0.17,0.31-0.25,0.57-0.33c0.27-0.08,0.68-0.17,1.08-0.25c0.4-0.08,0.77-0.16,1.13-0.26c0.36-0.11,0.69-0.24,1-0.36
	c0.31-0.13,0.58-0.24,0.8-0.39c0.22-0.14,0.38-0.32,0.52-0.48c0.14-0.16,0.27-0.32,0.33-0.48c0.07-0.16,0.08-0.32,0.07-0.47
	c-0.02-0.15-0.07-0.27-0.08-0.41c-0.01-0.13,0.02-0.26,0.12-0.49c0.09-0.23,0.25-0.54,0.35-0.78c0.1-0.24,0.15-0.4,0.14-0.62
	c0-0.21-0.05-0.47-0.05-0.72c0-0.26,0.05-0.51,0.05-0.68c-0.01-0.17-0.07-0.26-0.14-0.29c-0.07-0.04-0.16-0.02-0.21-0.24
	c-0.06-0.22-0.09-0.68-0.13-1.01c-0.04-0.33-0.09-0.53-0.13-0.79c-0.05-0.27-0.1-0.6-0.17-0.83c-0.08-0.24-0.17-0.37-0.25-0.53
	c-0.08-0.16-0.13-0.35-0.24-0.48c-0.11-0.13-0.26-0.22-0.34-0.33c-0.08-0.11-0.1-0.24-0.07-0.48c0.03-0.25,0.09-0.61,0.19-0.85
	c0.11-0.24,0.25-0.37,0.38-0.51c0.13-0.15,0.25-0.31,0.4-0.46c0.15-0.15,0.32-0.29,0.51-0.4c0.19-0.11,0.39-0.21,0.55-0.35
	c0.16-0.13,0.28-0.32,0.46-0.49c0.18-0.18,0.44-0.34,0.62-0.45c0.18-0.11,0.28-0.16,0.43-0.33c0.15-0.17,0.35-0.45,0.58-0.69
	c0.24-0.23,0.51-0.4,0.67-0.54c0.16-0.14,0.21-0.24,0.38-0.45c0.16-0.22,0.45-0.55,0.7-0.77c0.25-0.22,0.48-0.34,1.05-0.55
	c0.57-0.21,1.48-0.52,2.1-0.76c0.62-0.24,0.94-0.42,1.24-0.57c0.3-0.14,0.58-0.25,0.81-0.33s0.43-0.13,0.52-0.23
	c0.09-0.1,0.09-0.24,0.1-0.38c0.01-0.15,0.05-0.31,0.16-0.43c0.03-0.03,0.07-0.07,0.11-0.1c0.12-0.04,0.25-0.1,0.36-0.2
	c0.07-0.07,0.13-0.16,0.17-0.26c0.16-0.18,0.32-0.39,0.46-0.56c0.19-0.23,0.36-0.4,0.51-0.62c0.15-0.22,0.28-0.5,0.37-0.77
	c0.1-0.27,0.16-0.53,0.16-0.83c0-0.3-0.07-0.64-0.1-0.91c-0.03-0.26-0.01-0.45-0.05-0.66c-0.03-0.21-0.12-0.46-0.16-0.7
	c-0.05-0.25-0.05-0.5-0.02-0.69c0.04-0.19,0.12-0.33,0.16-0.47c0.04-0.14,0.04-0.29-0.01-0.45c-0.05-0.16-0.15-0.32-0.18-0.46
	c-0.03-0.15,0.03-0.28,0.1-0.42c0.07-0.14,0.17-0.27,0.14-0.44c-0.04-0.16-0.21-0.35-0.29-0.54c-0.07-0.19-0.05-0.39-0.04-0.64
	c0.01-0.25,0-0.54-0.02-0.73c-0.03-0.19-0.07-0.28-0.12-0.4c-0.06-0.12-0.13-0.26-0.13-0.38c0-0.13,0.06-0.24,0.15-0.4
	c0.1-0.16,0.22-0.37,0.3-0.58c0.08-0.21,0.1-0.42,0.04-0.64c-0.01-0.02-0.01-0.04-0.02-0.06c0.04-0.12-0.08-0.23-0.19-0.37
	c-0.11-0.16-0.2-0.36-0.31-0.45c-0.11-0.1-0.26-0.1-0.37-0.16c-0.11-0.06-0.2-0.17-0.35-0.27c-0.14-0.09-0.33-0.18-0.49-0.24
	c-0.02-0.02-0.04-0.03-0.06-0.05c-0.19-0.17-0.23-0.31-0.24-0.54c0.04-0.14,0.09-0.31,0.08-0.5c0-0.24-0.08-0.53-0.2-0.76
	c-0.06-0.11-0.12-0.21-0.19-0.31c-0.1-0.2-0.19-0.39-0.25-0.67c-0.07-0.29-0.1-0.67-0.08-1.04c0-0.1,0.01-0.19,0.02-0.28
	c0.05-0.12,0.1-0.22,0.13-0.32c0.06-0.17,0.05-0.34,0-0.49c-0.03-0.09-0.06-0.17-0.1-0.25c-0.02-0.15-0.03-0.29,0-0.46
	c0.03-0.14,0.09-0.3,0.16-0.45c0.01-0.01,0.02-0.02,0.03-0.03c0.11-0.12,0.19-0.28,0.23-0.43c0.03-0.15,0.01-0.28-0.06-0.4
	c-0.07-0.13-0.19-0.24-0.33-0.35c-0.1-0.08-0.21-0.16-0.29-0.24c-0.05-0.05-0.11-0.11-0.16-0.17c-0.06-0.09-0.11-0.17-0.2-0.23
	c-0.01-0.01-0.03-0.01-0.04-0.02c-0.18-0.19-0.33-0.37-0.42-0.57c-0.13-0.28-0.15-0.61-0.09-1.04c0.06-0.43,0.2-0.95,0.37-1.42
	c0.17-0.47,0.37-0.9,0.55-1.22c0.08-0.14,0.16-0.26,0.2-0.36c0.12-0.11,0.24-0.26,0.35-0.42c0.2-0.29,0.36-0.6,0.47-0.87
	c0.1-0.27,0.14-0.51,0.19-0.72c0.05-0.21,0.1-0.39,0.2-0.54c0.09-0.15,0.23-0.27,0.32-0.4c0.1-0.13,0.16-0.28,0.19-0.42
	c0.03-0.14,0.02-0.28,0.03-0.37c0.01-0.09,0.04-0.14,0.14-0.21c0.11-0.07,0.28-0.16,0.47-0.25c0.19-0.09,0.4-0.17,0.53-0.27
	c0.13-0.1,0.2-0.21,0.3-0.36c0.11-0.15,0.26-0.34,0.51-0.58c0.25-0.24,0.59-0.52,0.82-0.76c0.18-0.19,0.29-0.35,0.33-0.49
	c0.04-0.03,0.08-0.05,0.12-0.09c0.09-0.04,0.17-0.08,0.25-0.13c0.24-0.16,0.42-0.42,0.58-0.69c0.06-0.1,0.12-0.2,0.17-0.3
	c0.16-0.22,0.33-0.45,0.49-0.65c0.35-0.45,0.69-0.83,1.03-1.21c0.15-0.15,0.31-0.32,0.46-0.5c0.04-0.05,0.08-0.09,0.11-0.13
	c0.24-0.26,0.5-0.53,0.82-0.85c0.13-0.13,0.27-0.26,0.42-0.39c0.08-0.05,0.15-0.11,0.21-0.16c0.24-0.17,0.41-0.31,0.59-0.48
	c0.16-0.16,0.34-0.34,0.5-0.51c0.04-0.03,0.08-0.07,0.12-0.1c0.21-0.18,0.39-0.32,0.56-0.45c0.14-0.09,0.28-0.16,0.42-0.28
	c0.06-0.05,0.12-0.11,0.18-0.17c0.04-0.03,0.08-0.05,0.12-0.08c0.37-0.25,0.76-0.5,1.24-0.76c0.07-0.04,0.15-0.08,0.23-0.12
	c0.19-0.08,0.37-0.14,0.54-0.21c0.27-0.1,0.54-0.19,0.86-0.47c0.32-0.28,0.7-0.74,1.15-1.3c0.03-0.04,0.06-0.08,0.09-0.11
	c0.2-0.24,0.43-0.51,0.69-0.8c0.32-0.37,0.69-0.78,1.06-1.21c0.14-0.13,0.26-0.25,0.37-0.37c0.24-0.24,0.46-0.53,0.68-0.8
	c0.21-0.27,0.41-0.54,0.56-0.79c0.12-0.21,0.21-0.42,0.32-0.63c0.07-0.11,0.14-0.21,0.2-0.3c0.1-0.16,0.19-0.29,0.27-0.4
	c0.07-0.09,0.13-0.19,0.21-0.31c0.28-0.4,0.64-0.97,0.82-1.36c0.13-0.26,0.18-0.45,0.23-0.64c0.05-0.11,0.09-0.23,0.15-0.35
	c0.17-0.38,0.42-0.83,0.61-1.18c0.03-0.05,0.05-0.1,0.08-0.15c0.09-0.11,0.17-0.2,0.22-0.29c0.11-0.16,0.13-0.3,0.17-0.39
	c0.05-0.1,0.12-0.15,0.15-0.28c0.03-0.11,0.01-0.29,0.02-0.44c0.05-0.2,0.11-0.35,0.26-0.55c0.03-0.03,0.05-0.07,0.08-0.1
	c0.09-0.07,0.19-0.15,0.28-0.24c0.16-0.16,0.31-0.35,0.53-0.87c0.22-0.53,0.53-1.38,0.71-1.91c0.17-0.53,0.21-0.75,0.24-0.99
	c0.01-0.11,0.03-0.21,0.04-0.33c0.09-0.32,0.18-0.61,0.24-0.86c0.08-0.2,0.15-0.4,0.2-0.61c0.07-0.35,0.04-0.71-0.02-0.96
	C716.67,266.83,716.67,266.56,716.68,266.31"/>
<path class="st2" d="M65.21,287.03l43.54-109.93h11.57l43.85,109.93h-10.81l-11.72-29.69H86.98l-11.57,29.69H65.21z M138.14,248.2
	l-23.75-61.97L90.18,248.2H138.14z"/>
<path class="st2" d="M176.5,287.03v-68.06h-15.38v-8.37h15.38V194.3c0-13.09,5.33-19.03,18.42-19.03c2.89,0,5.94,1.07,8.68,1.67
	v7.31c-1.83-0.3-3.81-0.61-5.64-0.61c-12.48,0-12.79,6.24-12.33,17.21v9.74h17.36v8.37h-17.36v68.06H176.5z"/>
<path class="st2" d="M222.17,287.03h-9.14V227.8c0.15-5.94-0.46-12.03-0.76-17.2h9.44l0.46,11.26h0.3
	c2.74-7.76,9.59-13.24,17.21-13.55c3.05-0.16,6.09,0,9.14,0.15v8.83c-1.83-0.15-3.81-0.61-5.63-0.61
	c-13.55,0-20.71,9.74-21.01,24.36V287.03z"/>
<path class="st2" d="M266.17,188.52h-10.66V177.1h10.66V188.52z M265.41,287.02h-9.14v-76.43h9.14V287.02z"/>
<path class="st2" d="M330.57,234.04c-0.76-11.72-8.22-17.36-20.86-17.36c-14.01,0-22.69,14.62-22.69,31.97
	c0,17.51,8.68,32.28,22.69,32.28c11.87,0,20.1-7.31,20.86-17.82h9.9c-2.44,17.51-12.48,26.19-29.84,26.19
	c-22.84,0-33.5-19.64-33.5-40.5c0-20.71,11.42-40.5,34.11-40.5c15.68,0,28.47,9.44,29.23,25.73H330.57z"/>
<path class="st2" d="M394.06,233.13c-0.91-12.48-7.31-16.44-18.12-16.44c-9.59,0-17.51,2.89-18.72,13.24h-9.75
	c2.28-15.68,14.01-21.62,28.62-21.62c16.9,0,27.41,7.76,27.1,25.27v36.23c-0.15,5.94,0.46,12.03,0.76,17.21h-9.44l-0.31-11.27h-0.3
	l-0.46,1.07c-3.35,6.39-13.55,12.48-23.9,12.48c-14.16,0-25.43-8.68-25.43-23.6c0-10.35,6.25-18.27,15.38-22.08
	c10.2-4.42,23.44-2.89,34.56-3.5V233.13z M371.22,280.94c19.94,0,23.75-16.45,22.84-32.43c-12.94,0.46-40.04-1.98-40.04,17.21
	C354.01,276.07,361.93,280.94,371.22,280.94"/>
<path class="st2" d="M428.46,287.03h-9.14V227.8c0-5.94-0.46-12.03-0.76-17.2H428l0.46,11.26l0.3,0.31
	c5.33-9.44,14.01-13.85,23.91-13.85c24.97,0,26.95,22.08,26.95,30.91v47.81h-9.14V237.7c0-13.24-7.61-21.01-20.1-21.01
	c-15.07,0-21.93,12.63-21.93,26.34V287.03z"/>
<path class="st2" d="M149.25,307.02v71.1c0.76,19.95,12.18,31.97,30.3,31.97s29.54-12.02,30.3-31.97v-71.1h9.9v71.26
	c-0.31,23.6-13.55,40.95-40.2,40.95s-39.89-17.35-40.2-40.95v-71.26H149.25z"/>
<path class="st2" d="M248.2,416.95h-9.14v-59.23c0-5.94-0.46-12.03-0.76-17.2h9.44l0.46,11.26l0.3,0.31
	c5.33-9.44,14.01-13.85,23.91-13.85c24.97,0,26.95,22.08,26.95,30.91v47.81h-9.14v-49.33c0-13.24-7.61-21.01-20.1-21.01
	c-15.07,0-21.93,12.63-21.93,26.34V416.95z"/>
<path class="st2" d="M326.15,318.44H315.5v-11.42h10.66V318.44z M325.39,416.95h-9.14v-76.43h9.14V416.95z"/>
<path class="st2" d="M408.07,378.73c0,20.1-11.27,40.5-35.63,40.5c-24.36,0-35.63-20.4-35.63-40.5c0-20.1,11.27-40.5,35.63-40.5
	C396.8,338.24,408.07,358.64,408.07,378.73 M372.44,346.61c-18.42,0-25.73,17.97-25.73,32.12c0,14.16,7.31,32.12,25.73,32.12
	c18.42,0,25.73-17.96,25.73-32.12C398.17,364.58,390.86,346.61,372.44,346.61"/>
<path class="st2" d="M428.46,416.95h-9.14v-59.23c0-5.94-0.46-12.03-0.76-17.2h9.44l0.46,11.26l0.3,0.31
	c5.33-9.44,14.01-13.85,23.91-13.85c24.97,0,26.95,22.08,26.95,30.91v47.81h-9.14v-49.33c0-13.24-7.61-21.01-20.1-21.01
	c-15.07,0-21.93,12.63-21.93,26.34V416.95z"/>
<polygon class="st2" points="736.27,411.76 735.02,411.76 735.02,411.31 738.05,411.31 738.05,411.76 736.8,411.76 736.8,415.4 
	736.27,415.4 "/>
<path class="st2" d="M741.96,413.6c-0.03-0.57-0.07-1.26-0.06-1.77h-0.02c-0.14,0.48-0.31,0.99-0.51,1.55l-0.72,1.99h-0.4
	l-0.66-1.95c-0.19-0.58-0.36-1.11-0.48-1.59h-0.01c-0.01,0.51-0.04,1.19-0.08,1.81l-0.11,1.75h-0.5l0.29-4.09h0.67l0.7,1.98
	c0.17,0.5,0.31,0.95,0.41,1.38h0.02c0.1-0.42,0.25-0.86,0.43-1.38l0.73-1.98h0.68l0.25,4.09h-0.51L741.96,413.6z"/>
<path class="st2" d="M738.98,419.62c-3.31,0-6-2.69-6-6c0-3.31,2.69-6,6-6c3.31,0,6,2.69,6,6
	C744.98,416.92,742.29,419.62,738.98,419.62 M738.98,408.18c-3,0-5.44,2.44-5.44,5.44c0,3,2.44,5.44,5.44,5.44
	c3,0,5.44-2.44,5.44-5.44C744.42,410.61,741.98,408.18,738.98,408.18"/>
</svg>
