<?xml version="1.0" encoding="UTF-8"?>
<svg id="Calque_2" data-name="Calque 2" xmlns="http://www.w3.org/2000/svg" viewBox="0 0 362.87 590.67">
  <defs>
    <style>
      .cls-1 {
        fill: #5a622c;
        opacity: .1;
      }

      .cls-2 {
        fill: none;
      }
    </style>
  </defs>
  <g id="Calque_1-2" data-name="Calque 1">
    <path class="cls-2" d="m136.7,436.22c6.67-1.35,13.2-2.97,19.58-4.86-3.01-9.72-11.13-20.5-16.49-26.91-5.6,2.08-11.35,3.91-17.25,5.49-9.28,2.48-19.04,2.88-28.28,5.46-8.05,2.25-15.99,2.18-24.03,1.81-24.76-1.14-48.2-7.23-70.22-18.49v13.94c10.89,6.86,22.47,12.47,34.73,16.74,33.29,11.6,67.29,13.87,101.97,6.83Z"/>
    <path class="cls-2" d="m104.74,384.1c11.62-2.56,22.76-6.05,33.42-10.48,1.45-6.8-2.94-11.41-4.83-13.04-.48-.41-1.13-.56-1.74-.4-16.02,4.2-15.71.46-15.71.46-4.01-20.87-33.72-5.75-39.84-2.39-.61.33-1.37.35-1.93-.06-8.03-5.8-27.96-.26-32.47,1.1-.59.18-1.22.05-1.71-.32-11.89-9.24-21.58-16.86-23.94-18.72-.36-.28-.59-.69-.68-1.14-3.42-18.73-11.44-26.19-15.3-28.78v63.05c3.24,1.47,6.53,2.84,9.87,4.08,30.95,11.54,62.59,13.74,94.87,6.63Z"/>
    <path class="cls-1" d="m336.7,379.47c.35-.08.67-.25.92-.52,3.24-3.46,26.1-28.9,25.23-56.58-.01-.35-.12-.7-.31-1l-.31-.48c-.55-.84-1.65-1.12-2.52-.62-2.98,1.71-9.74,5.13-15.03,4.49-.47-.06-.93.03-1.32.3l-2.64,1.79c-.52.35-1.18.37-1.75.11-1.21-.54-3.68-1.02-7.19,1.4-.86.59-2.02.44-2.63-.41-1.21-1.69-3.36-4.18-5.91-4.99-1.33-.42-1.8-2.04-.86-3.08.52-.58.64-1.4.3-2.1-1.23-2.52-5.27-8.67-17.22-15.74,2.63-18.64,2.34-38.01-.85-58.07-.71-4.49-3.09-8.71-4.69-13.06-.56.14-1.12.28-1.68.42-.07,2.31-.28,4.62-.17,6.92.26,5.15.92,10.28,1,15.42.17,11.17-1.04,22.02-3.35,32.6-.26-.65-.53-1.33-.8-2.03-.13-.35-.37-.67-.68-.88l-5.88-4.13c-.44-.31-.72-.77-.79-1.29-.27-2.07-1-7.82-1.75-13.88-.04-.32-.16-.63-.35-.89-.87-1.16-3.55-4.47-6.6-5.38-.7-.21-1.22-.79-1.32-1.52-.2-1.37-.49-3.82-.69-7.43-.03-.6-.33-1.17-.84-1.48-1.31-.8-4.15-3.45-7.82-12.29-.02-.05-.04-.09-.06-.14-.29-.56-2.43-4.62-4.42-8,.03-1.64.04-3.29.02-4.95,1.11,1.5,2.32,2.94,3.49,3.97.97.85,2.48.42,2.97-.77,1.14-2.82,2.41-8.45-.65-16.32-.36-.92-1.32-1.44-2.27-1.17-.97.27-2.37.53-4.09.51-.4-5.51-.99-11.06-1.81-16.67-.66-4.49-2.86-8.7-4.34-13.05-.52.14-1.04.28-1.57.43-.07,2.31-.27,4.62-.17,6.92.23,5.14.84,10.28.9,15.42.02,1.79,0,3.56-.04,5.34-.37-.16-.74-.34-1.12-.53-.41-.21-.87-.28-1.31-.17-1.8.44-6.73,1.78-9.82,3.71-.6.38-1.34.36-1.95,0-1.11-.68-3.21-1.49-6.37-.81-.75.16-1.47-.22-1.87-.88-.83-1.38-4.02-3.22-15.46-2.54l5.12-1.41-8.37-1.68c-.91-.18-1.59-.99-1.52-1.91.04-.46-.04-1.03-.35-1.7-.92-2.04-11.93-3.1-16.46,5.33-.31.57-.25,1.27.08,1.82.86,1.4,1.98,4.35-2.06,6.47-.61.32-1.35.3-1.92-.07-2.27-1.46-8.7-5.24-14.25-5.13-.6.01-1.16-.21-1.54-.67-.9-1.08-2.48-3.23-2.81-5.5-.09-.6-.49-1.09-1.04-1.35-1.71-.81-5.43-2.2-9.34-1.27-.73.17-1.48-.12-1.93-.72-1.19-1.6-3.78-4.3-7.16-3.4-.59.16-1.22-.04-1.68-.44-1.51-1.35-3.83-4.48,1.81-8.05.49-.31.83-.81.91-1.39.16-1.23.13-3.42-1.53-5.3-.64-.73-.76-1.82-.1-2.53.44-.47.86-1.15,1.14-2.14.28-1.01-.28-2.08-1.29-2.36-1.96-.55-5.46-.96-8.73,1.59-.55.43-1.29.48-1.92.18-1.85-.86-6.1-2.09-12.32.61-.45.2-.95.23-1.42.06-2.88-1.06-14.28-4.54-24.43,2.08-.3.2-.66.31-1.02.31h-4.61c-.37,0-.74.11-1.05.32-2.06,1.34-10.67,6.05-19.08-2.49-.62-.63-1.63-.72-2.36-.21-1.42.98-3.63,3.07-5.41,7.21-.13.31-.34.58-.61.78-1.69,1.25-8.32,5.97-13.78,7.66-.36.11-.67.32-.91.61-1.23,1.53-4.98,6.72-4.77,12.94.02.47-.12.93-.42,1.29-1.62,1.91-7.36,8.03-15.76,9.93-.28.06-.53.18-.75.36-1.02.84-4.09,3.59-5.42,7.46-.21.62-.69,1.09-1.32,1.26-1.84.5-5.79,2.48-8.44,10.3-.1.3-.28.58-.51.79-1.87,1.72-10.65,10.06-13.49,18.06-.15.41-.14.86.02,1.27,1.04,2.8,4.64,15.29-5.43,33.71v11.25l.34.66c.24.46.28.99.11,1.48l-.45,1.34v7.57c3.87,2.59,11.88,10.06,15.3,28.78.08.45.32.86.68,1.14,2.36,1.85,12.05,9.47,23.94,18.72.48.38,1.12.5,1.71.32,4.52-1.36,24.45-6.9,32.47-1.1.56.41,1.33.4,1.93.06,6.12-3.36,35.83-18.49,39.84,2.39,0,0-.31,3.74,15.71-.46.61-.16,1.26-.01,1.74.4,1.89,1.62,6.28,6.24,4.83,13.04-10.66,4.43-21.8,7.92-33.42,10.48-32.28,7.11-63.91,4.91-94.87-6.63-3.35-1.25-6.64-2.61-9.87-4.08v25.33c22.02,11.27,45.46,17.35,70.22,18.49,8.04.37,15.98.44,24.03-1.81,9.25-2.58,19.01-2.98,28.28-5.46,5.9-1.58,11.64-3.41,17.25-5.49,5.36,6.41,13.48,17.19,16.49,26.91-6.38,1.89-12.9,3.51-19.58,4.86-34.68,7.04-68.68,4.77-101.97-6.83-12.26-4.27-23.84-9.89-34.73-16.74v24.17c3.28,2.25,6.67,4.4,10.2,6.45,27.67,16.06,57.56,24.56,89.48,26,8.64.39,17.18.47,25.82-1.76,9.93-2.56,20.42-2.94,30.39-5.4.88-.22,1.76-.45,2.64-.68-2.73,3.84-8.06,3.5-8.41,30.97,0,.37.1.74.29,1.05,2.07,3.28,14.25,22.86,14.41,30.09,0,.1,0,.17-.01.27-.17,1.68-1.66,19.64,9.11,31.08.12.13.22.27.3.43.8,1.64,5.52,11.44,6.2,14.67.09.41.28.76.6,1.03,1.24,1.07,4.08,4.15,1.26,8.13-.31.44-.47.97-.37,1.51.44,2.41,2.26,9.08,8.85,10,.38.05.77-.02,1.11-.2,2.18-1.13,11.31-5.32,21.9-2.56,12.05,3.15,25.68-12.44,32.14-24.05.11-.2.25-.37.43-.52l7.2-5.95c.15-.12.27-.26.38-.42.93-1.42,5.42-8.78,2.82-14.16-.26-.53-.31-1.13-.05-1.67.7-1.46,2.43-4.23,5.7-4.74,0,0,14.8,0,9.1-23.78-.08-.34-.27-.65-.5-.91-1.02-1.12-3.19-4.92,7.59-10.18.09-.04.17-.09.25-.15.62-.45,3.59-2.69,4.97-5.74.24-.54.67-.96,1.23-1.12,3.63-1.04,17.29-5.61,18.95-16,0,0-.29-13.94-.32-19.31,0-.49.19-.94.51-1.3,1-1.1,2.64-3.89-2.73-6.78-.59-.31-.94-.93-.95-1.6-.02-1.63-.35-4.76-2.37-7.42-.47-.62-.5-1.46-.09-2.12,1.36-2.18,3.63-7.1-.84-10.61-.56-.44-.81-1.16-.66-1.85.9-4.08,4.69-17.53,17.11-27.86.15-.13.28-.27.39-.45,1.25-2.08,10.45-16.81,22.67-19.75Z"/>
    <path class="cls-1" d="m347.99,468.58c0,.06-.01.11-.02.17,0,0-7.63,15.7-22.07,18.89,0,0-5.78.68-6.19,7.74,0,0,3.51,12.29-2.48,19.11,0,0-5,5.3-2.59,15.9.07.31.06.63-.02.93-.4,1.45-1.42,6.11,1.17,9.34,0,0,1.96,1.32,3.11,2.57.6.66,1.56.83,2.33.4,1.98-1.1,5.47-2.85,8.01-3.03.75-.05,1.4-.46,1.69-1.16,1.92-4.69,9.01-22.12,14.3-37.11.03-.09.06-.17.11-.25.56-1.02,4.74-8.93,5.51-17.64l1.45,3.64s5.8-7.25-.76-20.11c-.83-1.62-3.34-1.22-3.56.59Z"/>
    <path class="cls-1" d="m194.96,37.88c19.09,6.05,36.67,15.34,52.63,27.55,16.9,12.92,31.26,28.05,41.12,47.09.04.07.06.15.1.23.26.52.48,1.05.68,1.6,1.77,3.43,4.96,6.16,6.65,9.63.14.06.29.13.43.19-.48-2.45-.72-4.99-.58-7.67.05-1.07-.38-2.22-.8-3.25-15.62-38.24-39.19-69.76-76.22-89.87C190.98,8.18,161,.56,129.2.04c-8.61-.14-17.11.02-25.65,2.48-9.81,2.83-20.24,3.5-30.09,6.23C45.72,16.43,21.17,28.94,0,46.2v35.9c26.4-23.98,57.62-39.85,93.29-48.15,34.31-7.98,68.21-6.69,101.67,3.92Z"/>
    <path class="cls-1" d="m126.56,84.93c31.92-7.98,63.46-6.69,94.59,3.92,17.77,6.05,34.12,15.34,48.97,27.55,15.72,12.92,29.09,28.05,38.26,47.09.04.07.06.15.09.23.24.52.45,1.05.64,1.6,1.65,3.43,4.61,6.16,6.19,9.63.13.06.27.13.4.19-.45-2.45-.67-4.99-.54-7.67.05-1.07-.36-2.22-.75-3.25-14.54-38.24-36.46-69.76-70.92-89.87-26.05-15.2-53.94-22.82-83.53-23.34-8.02-.14-15.92.02-23.86,2.48-9.13,2.83-18.83,3.5-27.99,6.23-42.23,12.58-76.51,38.03-102.07,76.14-2.12,3.17-4.13,6.36-6.05,9.58v42.53c6.98-14.39,15.61-27.64,25.74-39.74,27.28-32.58,61.08-53.36,100.82-63.3Z"/>
  </g>
</svg>