<?xml version="1.0" encoding="UTF-8"?>
<svg id="Calque_2" data-name="Calque 2" xmlns="http://www.w3.org/2000/svg" viewBox="0 0 301.65 400">
  <defs>
    <style>
      .cls-1 {
        fill: #f19328;
      }

      .cls-2 {
        fill: #fcdb1b;
      }

      .cls-3 {
        fill: #af1621;
      }

      .cls-4 {
        fill: #5a622c;
      }
    </style>
  </defs>
  <g id="Calque_1-2" data-name="Calque 1">
    <g>
      <path class="cls-4" d="m301.63,218.25c0-.21-.07-.42-.19-.6l-.42-.64c-.27-.41-.81-.55-1.24-.3-1.92,1.13-7.13,3.89-10.95,3.13,0,0,0,0,0,0l-2.11,1.43c-.46.31-.83.36-1.14.2-.86-.44-2.98-.97-6.06,1.71,0,0-2.27-4.07-5.21-4.61-.7-.13-.98-.99-.5-1.52l.39-.42c.39-.44.46-.94.26-1.36-.84-1.76-3.82-6.43-13.35-11.68,0,0-2.38-2.87-5.63-11.46,0,0,0,0,0,0-.11-.08-4.76-3.34-4.76-3.34,0,0-.65-5.02-1.3-10.27,0,0,0,0,0,0,0,0-2.26-3.33-4.85-3.97-.36-.09-.62-.39-.67-.75-.14-.95-.39-2.93-.54-6.01,0,0,0-.02-.02-.02-.21-.04-2.53-.62-5.83-8.6,0,0-3.94-7.55-5.12-8.55-.04-.03-.09-.1-.12-.14l-1.67-3.45s-.02-.05-.02-.06l.86-1.42s3.9,7.17,6.71,8.36c0,0,3.68-5.02-.22-13.62,0,0-4.12,2.15-9.75-.96,0,0-5.42,1.19-7.8,3.11,0,0-1.93-2.13-6.01-.74-.02,0-.05,0-.04-.03.1-.4.45-3.25-10.63-2.58l3.47-.96-7.13-1.43s-.01,0,0,0c.07-.06.83-.77.21-2.15-.65-1.43-8.66-2.15-11.48,4.3,0,0,3.03,3.35-1.73,5.26,0,0-6.06-4.3-10.83-3.82,0,0-2.37-2.37-2.38-4.75,0-.02,0-.03-.02-.04-.29-.17-4.04-2.32-7.78-.94,0,0-2.38-4.3-5.85-2.87,0,0-4.77-2.87,1.08-6.21,0,0,.83-2.55-1.13-4.47-.37-.36-.39-.97,0-1.31.51-.45,1.03-1.29,1.14-2.81,0,0-4.12-2.15-7.58,1.2,0,0-3.47-2.63-9.53.24,0,0-9.14-3.98-17.1,1.28-.15.1-.32.16-.5.16-.88,0-3.61,0-3.63,0,0,0-7.15,5.5-13.86-2.15,0,0,0,0,0,0,0,0-2.82.96-4.77,5.73,0,0-5.63,4.3-9.96,5.5,0,0-3.9,4.3-3.47,9.56,0,0-4.33,5.73-11.26,7.17,0,0,0,0,0,0,0,0-2.9,2.14-3.95,5.39-.1.32-.35.58-.68.65-1.18.27-4.12,1.52-5.99,7.33,0,0-7.58,6.69-9.53,12.9,0,0,4.98,10.51-5.63,26.76,0,0,2.51,4.85,2.6,5.01,0,0,0,0,0,.02l-1.94,5.72s0,0,0,0c.13.05,8.9,3.48,11.91,20.79,0,0,7.58,5.97,17.11,13.38h0c.12-.04,17.56-5.71,23.18-.47,0,0,24.69-14.58,27.73,1.19,0,0-.22,2.63,11.26-.48,0,0,7.36,5.02,2.17,13.14,0,0,1.08,4.54-1.73,8.6,0,0,0,0,0,0,0,0,1.08,3.82,1.08,4.54,0,0,15.59,16.25,15.38,27,0,0,0,0,0,0l-1.51,1.43s0,0,0,0c.04.09,4.32,8.86,2.82,12.9-1.52,4.06-6.07,1.2-6.28,22.46,0,0,9.96,15.53,9.96,20.79,0,0-1.52,13.14,6.28,21.27,0,0,0,0,0,0,0,.02,4.33,8.84,4.33,10.51,0,0,3.9,2.63.87,6.21,0,0,.65,6.93,6.5,7.41,0,0,6.93-4.06,15.16-1.91,8.23,2.15,17.54-8.6,21.88-16.49h0s5.2-4.3,5.2-4.3h0s4.06-5.83,1.96-9.89c-.14-.27-.16-.58-.04-.85.42-.93,1.6-2.99,3.93-3.36,0,0,10.18,0,6.07-16.49,0,0-3.9-2.87,4.98-7.17,0,0,2.82-1.91,3.68-4.54,0,0,11.91-2.82,13.39-10.77.03-.15.04-.29.03-.44-.03-1.52-.21-10.56-.21-13.4,0,0,3.23-2.45-1.61-4.98-.32-.17-.53-.48-.52-.84,0-1.16-.2-3.85-2.17-5.86-.02-.02-.02-.04,0-.06.33-.42,4.1-5.36-.67-8.33,0,0,1.39-9.22,9.01-17.15,1.77-1.84,3.47-3.75,4.99-5.8,2.67-3.61,7.67-9.23,13.73-10.5,0,0,18-18.44,17.34-38.62Zm-10.07,99.16s-5.17,10.63-14.95,12.79c0,0-3.91.46-4.19,5.24,0,0,2.37,8.32-1.68,12.94,0,0-3.49,3.7-1.68,11.09,0,0-1.3,3.73.49,6.35.12.18.29.33.47.46.65.46,2.28,1.7,2.39,2.44,0,0,4.89-3.08,7.26-2.62,0,0,5.87-14.18,10.06-26.04,0,0,3.21-5.7,3.77-12.02l.97,2.45s0,.01,0,0c.12-.15,4.11-5.37-.98-14.48,0,0-1.82-.46-1.95,1.39Z"/>
      <path class="cls-4" d="m256.37,78.89c.04-.72-.26-1.5-.54-2.2-10.58-25.89-26.54-47.24-51.61-60.86C185.26,5.54,164.95.38,143.42.03c-5.83-.1-11.58.01-17.37,1.68-6.64,1.92-13.7,2.37-20.37,4.22-30.73,8.52-55.68,25.75-74.28,51.56C10.14,86.98,2.9,119.92,9.65,155.75c.57,3.01,2.25,5.81,3.41,8.71l1.13-.32c0-1.56.1-3.12-.02-4.67-.27-3.46-.82-6.91-.97-10.37-.74-17.07,3.3-33.16,10.12-48.67,5.6-12.74,13.14-24.27,22.41-34.57,19.86-22.06,44.45-36.13,73.38-42.86,23.23-5.41,46.19-4.53,68.84,2.66,12.93,4.1,24.83,10.39,35.64,18.65,11.44,8.75,21.17,19,27.84,31.89.03.05.04.1.07.16-.01-.03-.03-.06-.04-.09.01.03.03.06.04.09.17.35.33.71.46,1.09,1.2,2.32,3.36,4.17,4.51,6.52.1.04.19.09.29.13-.33-1.66-.49-3.38-.39-5.19Z"/>
      <path class="cls-1" d="m269.35,113.4c.03-.72-.24-1.5-.5-2.2-9.84-25.89-24.69-47.24-48.02-60.86-17.64-10.29-36.53-15.45-56.56-15.81-5.43-.1-10.78.01-16.16,1.68-6.18,1.92-12.75,2.37-18.95,4.22-28.59,8.52-51.81,25.75-69.12,51.56-19.79,29.51-26.52,62.45-20.24,98.27.53,3.01,2.09,5.81,3.17,8.71l1.05-.32c0-1.56.09-3.12-.02-4.67-.25-3.46-.76-6.91-.9-10.37-.69-17.07,3.07-33.16,9.42-48.67,5.21-12.74,12.23-24.27,20.85-34.57,18.48-22.06,41.36-36.13,68.27-42.86,21.62-5.41,42.97-4.53,64.05,2.66,12.03,4.1,23.1,10.39,33.16,18.65,10.65,8.75,19.7,19,25.91,31.89.02.05.04.1.06.16,0-.03-.03-.06-.04-.09,0,.03.03.06.04.09.16.35.3.71.43,1.09,1.12,2.32,3.12,4.17,4.19,6.52.09.04.18.09.27.13-.3-1.66-.45-3.38-.37-5.19Z"/>
      <path class="cls-3" d="m12.27,235.35c-.06.73.22,1.52.48,2.22,9.88,26.3,25.3,48.19,50.09,62.58,18.74,10.88,38.98,16.63,60.59,17.6,5.85.26,11.63.32,17.48-1.19,6.72-1.73,13.83-1.99,20.57-3.65,31.1-7.68,56.64-24.27,76.05-49.65,22.19-29.02,30.4-61.89,24.64-98.05-.48-3.04-2.09-5.9-3.18-8.84l-1.14.29c-.04,1.56-.19,3.13-.11,4.69.18,3.48.62,6.96.68,10.44.26,17.16-4.26,33.2-11.55,48.58-5.99,12.63-13.89,23.99-23.49,34.07-20.57,21.58-45.66,35.01-74.9,40.95-23.48,4.77-46.5,3.23-69.05-4.63-12.87-4.48-24.63-11.14-35.25-19.75-11.24-9.11-20.71-19.68-27.05-32.81-.02-.05-.04-.11-.06-.16,0,.03.03.06.04.09,0-.03-.03-.06-.04-.09-.16-.36-.31-.73-.43-1.1-1.14-2.37-3.25-4.28-4.34-6.68-.1-.05-.19-.09-.29-.14.28,1.68.39,3.41.25,5.23Z"/>
      <path class="cls-2" d="m.22,200.33c-.05.73.2,1.52.44,2.22,9.15,26.28,23.44,48.14,46.48,62.47,17.41,10.84,36.24,16.55,56.34,17.48,5.45.25,10.82.3,16.27-1.22,6.26-1.75,12.87-2.01,19.15-3.69,28.95-7.74,52.75-24.38,70.87-49.8,20.71-29.06,28.41-61.94,23.12-98.09-.44-3.04-1.93-5.89-2.94-8.83l-1.06.29c-.04,1.56-.18,3.13-.11,4.69.16,3.48.57,6.96.61,10.44.21,17.16-4.03,33.21-10.84,48.6-5.6,12.64-12.97,24.02-21.92,34.11-19.18,21.62-42.56,35.1-69.77,41.09-21.86,4.81-43.28,3.32-64.24-4.49-11.96-4.46-22.9-11.09-32.76-19.68-10.44-9.09-19.23-19.63-25.1-32.76-.02-.05-.04-.11-.06-.16,0,.03.02.06.03.09,0-.03-.02-.06-.03-.09-.15-.36-.29-.73-.4-1.1-1.06-2.37-3.02-4.28-4.02-6.67-.09-.05-.18-.09-.27-.14.26,1.68.36,3.41.22,5.22Z"/>
    </g>
  </g>
</svg>