<?xml version="1.0" encoding="UTF-8"?>
<svg id="Calque_2" data-name="Calque 2" xmlns="http://www.w3.org/2000/svg" viewBox="0 0 580.76 325">
  <defs>
    <style>
      .cls-1 {
        fill: #f19328;
      }

      .cls-2 {
        fill: #fcdb1b;
      }

      .cls-3 {
        fill: #af1621;
      }

      .cls-4 {
        fill: #5a622c;
      }
    </style>
  </defs>
  <g id="Calque_1-2" data-name="Calque 1">
    <g>
      <path class="cls-4" d="m230.69,208.03c1.78-1.9,14.33-15.86,13.85-31.06,0-.19-.07-.38-.17-.55l-.17-.26c-.3-.46-.91-.61-1.39-.34-1.64.94-5.35,2.82-8.25,2.46-.26-.03-.51.02-.73.16l-1.45.98c-.29.19-.65.2-.96.06-.66-.3-2.02-.56-3.95.77-.47.32-1.11.24-1.44-.22-.66-.93-1.84-2.3-3.25-2.74-.73-.23-.99-1.12-.47-1.69h0c.29-.32.35-.77.17-1.15-.72-1.46-3.14-5.14-10.6-9.3-.13-.07-.24-.16-.32-.28-.47-.65-2.15-3.14-4.32-8.82-.07-.19-.2-.37-.37-.48l-3.23-2.27c-.24-.17-.4-.42-.43-.71-.15-1.14-.55-4.29-.96-7.62-.02-.18-.09-.35-.19-.49-.48-.64-1.95-2.45-3.62-2.95-.39-.12-.67-.43-.72-.83-.11-.75-.27-2.1-.38-4.08-.02-.33-.18-.64-.46-.81-.72-.44-2.28-1.9-4.3-6.75-.01-.03-.02-.05-.04-.08-.26-.49-3.09-5.88-4.07-6.84-.08-.07-.15-.15-.19-.25l-1.09-2.26c-.15-.32-.14-.69.05-.99l.41-.68s2.3,4.24,4.4,6.08c.53.47,1.36.23,1.63-.42.63-1.55,1.33-4.64-.36-8.96-.2-.5-.73-.79-1.25-.64-1.22.34-3.68.66-6.71-.9-.22-.11-.48-.15-.72-.09-.99.24-3.69.97-5.39,2.04-.33.21-.74.2-1.07,0-.61-.37-1.76-.82-3.5-.44-.41.09-.81-.12-1.03-.48-.46-.76-2.21-1.77-8.49-1.39l2.81-.77-4.6-.92c-.5-.1-.87-.54-.83-1.05.02-.25-.02-.56-.19-.94-.51-1.12-6.55-1.7-9.04,2.93-.17.31-.14.7.05,1,.47.77,1.09,2.39-1.13,3.55-.33.18-.74.17-1.06-.04-1.25-.8-4.77-2.88-7.82-2.82-.33,0-.64-.11-.85-.37-.5-.59-1.36-1.77-1.54-3.02-.05-.33-.27-.6-.57-.74-.94-.44-2.98-1.21-5.13-.69-.4.1-.81-.07-1.06-.4-.65-.88-2.08-2.36-3.93-1.87-.32.09-.67-.02-.92-.24-.83-.74-2.11-2.46.99-4.42.27-.17.46-.44.5-.76.09-.67.07-1.88-.84-2.91-.35-.4-.42-1-.05-1.39.24-.26.47-.63.63-1.18s-.15-1.14-.71-1.3c-1.08-.3-3-.53-4.79.87-.3.23-.71.26-1.05.1-1.01-.47-3.35-1.15-6.76.33-.25.11-.52.12-.78.03-1.58-.58-7.84-2.49-13.41,1.14-.17.11-.36.17-.56.17h-2.53c-.21,0-.4.06-.58.17-1.13.73-5.86,3.32-10.48-1.37-.34-.35-.89-.39-1.29-.12-.78.54-1.99,1.68-2.97,3.96-.07.17-.19.32-.33.43-.93.68-4.57,3.28-7.57,4.2-.2.06-.37.17-.5.34-.68.84-2.73,3.69-2.62,7.1,0,.26-.07.51-.23.71-.89,1.05-4.04,4.41-8.65,5.45-.15.03-.29.1-.41.2-.56.46-2.24,1.97-2.97,4.1-.12.34-.38.6-.73.69-1.01.28-3.18,1.36-4.63,5.65-.06.16-.15.32-.28.44-1.03.94-5.85,5.52-7.41,9.91-.08.23-.08.47,0,.7.61,1.65,2.86,9.47-4.37,20.86-.2.31-.22.71-.05,1.04l1.63,3.15c.13.25.15.54.06.81l-1.15,3.38c-.16.47.03.97.45,1.22,1.88,1.11,6.83,5.01,8.85,16.09.05.25.17.47.37.63,1.29,1.02,6.61,5.2,13.14,10.28.27.21.62.27.94.18,2.48-.75,13.42-3.79,17.83-.6.31.22.73.22,1.06.03,3.36-1.85,19.67-10.15,21.87,1.31,0,0-.17,2.05,8.62-.25.34-.09.69,0,.96.22,1.28,1.1,4.65,4.7,1.51,9.96-.12.21-.18.44-.14.68.14.94.37,3.66-1.21,6.24-.15.25-.21.55-.13.83.2.74.6,2.22.72,2.93.03.21.12.4.26.55,1.67,1.8,12,13.18,12.24,21.19,0,.29-.12.58-.33.78l-.35.33c-.32.3-.42.77-.24,1.17.83,1.85,2.98,7.11,1.98,9.8-1.22,3.27-4.87,1-5.09,17.89,0,.2.05.41.16.58,1.14,1.8,7.83,12.55,7.91,16.52,0,.05,0,.1,0,.15-.09.92-.91,10.78,5,17.06.07.07.12.15.16.24.44.9,3.03,6.28,3.4,8.05.05.22.16.42.33.57.68.59,2.24,2.28.69,4.46-.17.24-.26.53-.2.83.24,1.32,1.24,4.99,4.86,5.49.21.03.42-.01.61-.11,1.2-.62,6.21-2.92,12.02-1.4,6.62,1.73,14.1-6.83,17.65-13.2.06-.11.14-.2.24-.28l3.95-3.27c.08-.07.15-.14.21-.23.51-.78,2.98-4.82,1.55-7.78-.14-.29-.17-.62-.03-.92.38-.8,1.34-2.32,3.13-2.6,0,0,8.13,0,4.99-13.06-.04-.19-.15-.36-.28-.5-.56-.62-1.75-2.7,4.17-5.59.05-.02.09-.05.14-.08.34-.25,1.97-1.47,2.73-3.15.13-.29.37-.53.68-.62,1.99-.57,9.49-3.08,10.4-8.78,0,0-.16-7.65-.17-10.6,0-.27.1-.51.28-.71.55-.6,1.45-2.14-1.5-3.72-.32-.17-.52-.51-.52-.88-.01-.89-.19-2.61-1.3-4.07-.26-.34-.28-.8-.05-1.16.75-1.2,1.99-3.9-.46-5.82-.31-.24-.45-.64-.36-1.02.49-2.24,2.57-9.62,9.39-15.29.08-.07.16-.15.21-.24.69-1.14,5.73-9.23,12.44-10.84.19-.05.37-.14.5-.29Zm5.69,49.3s-4.19,8.62-12.12,10.37c0,0-3.17.37-3.4,4.25,0,0,1.93,6.75-1.36,10.49,0,0-2.75,2.91-1.42,8.73.04.17.04.35-.01.51-.22.79-.78,3.35.64,5.13,0,0,1.08.73,1.71,1.41.33.36.85.46,1.28.22,1.09-.61,3.01-1.56,4.4-1.66.41-.03.77-.25.93-.63,1.05-2.57,4.94-12.14,7.85-20.37.02-.05.04-.09.06-.14.31-.56,2.6-4.9,3.02-9.68l.79,2s3.19-3.98-.42-11.04c-.46-.89-1.83-.67-1.95.33,0,.03,0,.06,0,.09Z"/>
      <path class="cls-4" d="m207.84,63.95c.03-.59-.21-1.22-.44-1.78-8.58-20.99-21.51-38.3-41.84-49.34C150.19,4.49,133.73.31,116.27.02c-4.73-.08-9.39,0-14.08,1.36-5.39,1.55-11.11,1.92-16.52,3.42-24.92,6.91-45.14,20.88-60.22,41.8C8.22,70.52,2.35,97.22,7.82,126.27c.46,2.44,1.82,4.71,2.77,7.06l.91-.26c0-1.26.08-2.53-.02-3.79-.22-2.81-.66-5.6-.79-8.41-.6-13.84,2.68-26.88,8.21-39.46,4.54-10.33,10.66-19.68,18.17-28.02,16.1-17.88,36.04-29.29,59.49-34.75,18.83-4.38,37.44-3.67,55.81,2.15,10.48,3.32,20.13,8.42,28.89,15.12,9.28,7.09,17.16,15.4,22.57,25.85.02.04.04.08.06.13,0-.02-.02-.05-.03-.07,0,.03.02.05.03.07.14.29.27.58.37.88.97,1.88,2.72,3.38,3.65,5.29.08.03.16.07.24.1-.27-1.35-.39-2.74-.32-4.21Z"/>
      <path class="cls-1" d="m218.37,91.94c.03-.59-.2-1.22-.41-1.78-7.98-20.99-20.02-38.3-38.93-49.34-14.3-8.35-29.61-12.53-45.86-12.81-4.4-.08-8.74,0-13.1,1.36-5.01,1.55-10.34,1.92-15.37,3.42-23.18,6.91-42,20.88-56.03,41.8-16.04,23.92-21.5,50.63-16.41,79.67.43,2.44,1.7,4.71,2.57,7.06l.85-.26c0-1.26.08-2.53-.02-3.79-.21-2.81-.62-5.6-.73-8.41-.56-13.84,2.49-26.88,7.63-39.46,4.22-10.33,9.92-19.68,16.91-28.02,14.98-17.88,33.53-29.29,55.35-34.75,17.52-4.38,34.84-3.67,51.93,2.15,9.75,3.32,18.73,8.42,26.88,15.12,8.63,7.09,15.97,15.4,21,25.85.02.04.03.08.05.13,0-.02-.02-.05-.03-.07,0,.03.02.05.03.07.13.29.25.58.35.88.91,1.88,2.53,3.38,3.4,5.29.07.03.15.07.22.1-.25-1.35-.37-2.74-.3-4.21Z"/>
      <path class="cls-3" d="m9.95,190.81c-.05.59.18,1.23.39,1.8,8.01,21.32,20.51,39.07,40.61,50.73,15.19,8.82,31.6,13.48,49.12,14.27,4.75.21,9.43.26,14.18-.96,5.45-1.41,11.21-1.61,16.68-2.96,25.21-6.23,45.92-19.67,61.66-40.25,17.99-23.53,24.65-50.17,19.98-79.49-.39-2.46-1.7-4.78-2.58-7.17l-.92.23c-.04,1.27-.15,2.54-.09,3.8.14,2.82.51,5.64.55,8.47.21,13.91-3.45,26.92-9.36,39.39-4.85,10.24-11.26,19.45-19.04,27.62-16.67,17.5-37.02,28.39-60.72,33.19-19.04,3.86-37.7,2.62-55.98-3.75-10.43-3.64-19.97-9.03-28.58-16.01-9.11-7.39-16.79-15.95-21.93-26.6-.02-.04-.03-.09-.05-.13,0,.03.02.05.03.07,0-.03-.02-.05-.03-.07-.13-.29-.25-.59-.35-.89-.92-1.92-2.63-3.47-3.52-5.41-.08-.04-.16-.07-.24-.11.23,1.36.32,2.76.2,4.24Z"/>
      <path class="cls-2" d="m.18,162.41c-.04.59.16,1.23.36,1.8,7.41,21.31,19.01,39.02,37.68,50.65,14.12,8.79,29.38,13.42,45.68,14.17,4.42.2,8.77.24,13.19-.99,5.08-1.42,10.43-1.63,15.53-2.99,23.47-6.27,42.77-19.76,57.45-40.37,16.79-23.56,23.03-50.22,18.75-79.53-.36-2.46-1.57-4.78-2.38-7.16l-.86.23c-.04,1.27-.15,2.54-.09,3.8.13,2.82.46,5.64.49,8.47.17,13.91-3.27,26.92-8.79,39.4-4.54,10.25-10.52,19.47-17.77,27.66-15.55,17.53-34.5,28.46-56.56,33.31-17.72,3.9-35.09,2.69-52.08-3.64-9.7-3.61-18.57-8.99-26.56-15.95-8.46-7.37-15.59-15.92-20.35-26.56-.02-.04-.03-.09-.05-.13,0,.03.02.05.03.07,0-.03-.02-.05-.03-.07-.12-.29-.23-.59-.33-.89-.86-1.92-2.44-3.47-3.26-5.4-.07-.04-.15-.07-.22-.11.21,1.36.29,2.76.18,4.24Z"/>
      <g>
        <g>
          <path class="cls-3" d="m301.25,235.68h22.73l4.57,12.66h11.02l-21.59-59.6h-10.67l-21.67,59.6h11.02l4.57-12.66Zm3.2-9.03l8.17-22.83,8.17,22.83h-16.34Z"/>
          <path class="cls-3" d="m370.2,248.84c15.61,0,27.99-11.29,29.42-26.84v-7.35s-33.61,0-33.61,0v9.03h22.5c-1.61,9.59-8.5,15.47-18.31,15.47-11.66,0-19.5-8.36-19.5-20.81s7.84-20.89,19.5-20.89c7.39,0,13.06,3.41,15.96,9.6l.4.86h12.04l-.79-2.03c-4.4-11.34-14.72-18.11-27.61-18.11-17.15,0-30.09,13.14-30.09,30.58s12.93,30.49,30.09,30.49Z"/>
          <rect class="cls-3" x="404.4" y="188.42" width="10.42" height="59.93"/>
        </g>
        <g>
          <path class="cls-3" d="m440.19,199.39h-5.96l-1.1,2.89h-1.88l4.94-12.93h2.06l4.92,12.93h-1.88l-1.1-2.89Zm-2.98-7.95l-2.47,6.57h4.94l-2.47-6.57Z"/>
          <path class="cls-3" d="m445.18,193.45h-1.39v-1.4h1.39v-.73c0-2.28,1.18-3.3,3.92-3.3v1.42c-1.61,0-2.14.56-2.14,1.88v.73h2.25v1.4h-2.25v8.82h-1.78v-8.82Z"/>
          <path class="cls-3" d="m452.59,202.28h-1.78v-10.22h1.78v1.66c.61-1.14,1.76-1.85,3.47-1.85v1.75h-.47c-1.71,0-3,.73-3,3.1v5.56Z"/>
          <path class="cls-3" d="m457.33,189.24c0-.65.53-1.16,1.22-1.16.65,0,1.18.5,1.18,1.16s-.53,1.16-1.18,1.16c-.69,0-1.22-.5-1.22-1.16Zm.29,2.82h1.78v10.22h-1.78v-10.22Z"/>
          <path class="cls-3" d="m466.52,191.89c2.67,0,4.41,1.31,4.96,3.45h-1.92c-.37-1.23-1.45-2.01-3.04-2.01-1.96,0-3.41,1.32-3.41,3.82s1.45,3.86,3.41,3.86c1.59,0,2.65-.73,3.04-2.01h1.92c-.55,2.03-2.29,3.45-4.96,3.45-3.06,0-5.23-2.05-5.23-5.3s2.18-5.26,5.23-5.26Z"/>
          <path class="cls-3" d="m477.8,191.89c2,0,3.37.97,4,2.03v-1.87h1.8v10.22h-1.8v-1.9c-.65,1.1-2.04,2.07-4.02,2.07-2.86,0-5.08-2.15-5.08-5.32s2.21-5.24,5.1-5.24Zm.35,1.47c-1.96,0-3.63,1.36-3.63,3.77s1.67,3.82,3.63,3.82,3.65-1.4,3.65-3.81-1.69-3.79-3.65-3.79Z"/>
          <path class="cls-3" d="m444.6,215.43h-2.14c-.75-1.51-2.23-2.39-4.16-2.39-2.88,0-5.04,1.98-5.04,5.11s2.16,5.09,5.04,5.09c2.69,0,4.53-1.64,4.8-4.22h-5.45v-1.38h7.35v1.31c-.31,3.23-3,5.82-6.7,5.82s-6.86-2.72-6.86-6.62,3.02-6.64,6.86-6.64c2.88,0,5.27,1.42,6.29,3.92Z"/>
          <path class="cls-3" d="m451.57,224.84c-3.04,0-5.35-2.05-5.35-5.3s2.39-5.26,5.43-5.26,5.43,2.03,5.43,5.26-2.45,5.3-5.51,5.3Zm0-1.49c1.86,0,3.69-1.21,3.69-3.81s-1.78-3.79-3.63-3.79-3.59,1.21-3.59,3.79,1.67,3.81,3.53,3.81Z"/>
          <path class="cls-3" d="m459.58,214.44l3.35,8.66,3.33-8.66h1.9l-4.21,10.22h-2.08l-4.21-10.22h1.92Z"/>
          <path class="cls-3" d="m474.09,224.84c-3.06,0-5.31-2.05-5.31-5.3s2.18-5.26,5.31-5.26,5.16,2.09,5.16,4.89c0,.37-.02.67-.06,1.03h-8.59c.14,2.07,1.67,3.21,3.49,3.21,1.61,0,2.63-.78,3.02-1.88h1.92c-.55,1.87-2.27,3.32-4.94,3.32Zm-3.47-6.03h6.78c.02-2-1.55-3.1-3.39-3.1-1.74,0-3.2,1.1-3.39,3.1Z"/>
          <path class="cls-3" d="m482.89,224.67h-1.78v-10.22h1.78v1.66c.61-1.14,1.76-1.85,3.47-1.85v1.75h-.47c-1.71,0-3,.73-3,3.1v5.56Z"/>
          <path class="cls-3" d="m495.79,218.88c0-2.09-1.2-3.15-3-3.15s-3.08,1.08-3.08,3.28v5.65h-1.78v-10.22h1.78v1.46c.71-1.06,2-1.64,3.45-1.64,2.49,0,4.39,1.46,4.39,4.38v6.03h-1.76v-5.78Z"/>
          <path class="cls-3" d="m504.42,214.28c2,0,3.37.97,4,2.03v-1.87h1.8v10.22h-1.8v-1.9c-.65,1.1-2.04,2.07-4.02,2.07-2.86,0-5.08-2.15-5.08-5.32s2.21-5.24,5.1-5.24Zm.35,1.47c-1.96,0-3.63,1.36-3.63,3.77s1.67,3.82,3.63,3.82,3.65-1.4,3.65-3.81-1.69-3.79-3.65-3.79Z"/>
          <path class="cls-3" d="m520.61,218.88c0-2.09-1.2-3.15-3-3.15s-3.08,1.08-3.08,3.28v5.65h-1.78v-10.22h1.78v1.46c.71-1.06,2-1.64,3.45-1.64,2.49,0,4.39,1.46,4.39,4.38v6.03h-1.76v-5.78Z"/>
          <path class="cls-3" d="m529.38,214.28c2.67,0,4.41,1.31,4.96,3.45h-1.92c-.37-1.23-1.45-2.01-3.04-2.01-1.96,0-3.41,1.32-3.41,3.82s1.45,3.86,3.41,3.86c1.59,0,2.65-.73,3.04-2.01h1.92c-.55,2.03-2.29,3.45-4.96,3.45-3.06,0-5.23-2.05-5.23-5.3s2.18-5.26,5.23-5.26Z"/>
          <path class="cls-3" d="m540.87,224.84c-3.06,0-5.31-2.05-5.31-5.3s2.18-5.26,5.31-5.26,5.16,2.09,5.16,4.89c0,.37-.02.67-.06,1.03h-8.59c.14,2.07,1.67,3.21,3.49,3.21,1.61,0,2.63-.78,3.02-1.88h1.92c-.55,1.87-2.27,3.32-4.94,3.32Zm-3.47-6.03h6.78c.02-2-1.55-3.1-3.39-3.1-1.74,0-3.2,1.1-3.39,3.1Z"/>
          <path class="cls-3" d="m432.12,234.06h1.78v13h-1.78v-13Z"/>
          <path class="cls-3" d="m444.31,241.27c0-2.09-1.2-3.15-3-3.15s-3.08,1.08-3.08,3.28v5.65h-1.78v-10.22h1.78v1.46c.71-1.06,2-1.64,3.45-1.64,2.49,0,4.39,1.45,4.39,4.38v6.03h-1.76v-5.78Z"/>
          <path class="cls-3" d="m452.31,247.23c-2.51,0-4.27-1.31-4.39-3.17h1.84c.1.99,1.02,1.73,2.53,1.73,1.41,0,2.2-.67,2.2-1.51,0-2.28-6.35-.95-6.35-4.76,0-1.57,1.55-2.85,3.94-2.85s3.94,1.21,4.06,3.21h-1.78c-.08-1.03-.9-1.77-2.33-1.77-1.31,0-2.1.6-2.1,1.42,0,2.43,6.23,1.1,6.31,4.76,0,1.68-1.55,2.95-3.92,2.95Z"/>
          <path class="cls-3" d="m458.64,238.23h-1.39v-1.4h1.39v-2.57h1.78v2.57h2.8v1.4h-2.8v6.03c0,1.01.39,1.36,1.49,1.36h1.31v1.44h-1.61c-1.9,0-2.98-.75-2.98-2.8v-6.03Z"/>
          <path class="cls-3" d="m464.6,234.02c0-.65.53-1.16,1.22-1.16.65,0,1.18.5,1.18,1.16s-.53,1.16-1.18,1.16c-.69,0-1.22-.5-1.22-1.16Zm.29,2.82h1.78v10.22h-1.78v-10.22Z"/>
          <path class="cls-3" d="m469.62,238.23h-1.39v-1.4h1.39v-2.57h1.78v2.57h2.8v1.4h-2.8v6.03c0,1.01.39,1.36,1.49,1.36h1.31v1.44h-1.61c-1.9,0-2.98-.75-2.98-2.8v-6.03Z"/>
          <path class="cls-3" d="m485.4,247.06h-1.78v-1.51c-.69,1.06-2,1.66-3.43,1.66-2.47,0-4.41-1.45-4.41-4.38v-5.99h1.76v5.76c0,2.07,1.2,3.13,3,3.13s3.08-1.08,3.08-3.28v-5.62h1.78v10.22Z"/>
          <path class="cls-3" d="m488.32,238.23h-1.39v-1.4h1.39v-2.57h1.78v2.57h2.8v1.4h-2.8v6.03c0,1.01.39,1.36,1.49,1.36h1.31v1.44h-1.61c-1.9,0-2.98-.75-2.98-2.8v-6.03Z"/>
          <path class="cls-3" d="m499.22,247.23c-3.06,0-5.31-2.05-5.31-5.3s2.18-5.26,5.31-5.26,5.16,2.09,5.16,4.89c0,.37-.02.67-.06,1.03h-8.59c.14,2.07,1.67,3.21,3.49,3.21,1.61,0,2.63-.78,3.02-1.88h1.92c-.55,1.87-2.27,3.32-4.94,3.32Zm-3.47-6.03h6.78c.02-2-1.55-3.1-3.39-3.1-1.74,0-3.2,1.1-3.39,3.1Z"/>
        </g>
      </g>
      <g>
        <g>
          <rect class="cls-3" x="292.56" y="264.58" width="10.42" height="59.93"/>
          <path class="cls-3" d="m328.05,264.91l-21.67,59.6h11.02l4.57-12.66h22.73l4.57,12.66h11.02l-21.59-59.6h-10.67Zm13.47,37.9h-16.34l8.17-22.83,8.17,22.83Z"/>
          <path class="cls-3" d="m386.74,290.81v9.03h22.5c-1.61,9.59-8.5,15.47-18.31,15.47-11.66,0-19.5-8.36-19.5-20.81s7.84-20.89,19.5-20.89c7.39,0,13.06,3.41,15.96,9.6l.4.86h12.04l-.79-2.03c-4.4-11.34-14.72-18.11-27.61-18.11-17.15,0-30.09,13.14-30.09,30.58s12.93,30.49,30.09,30.49c15.61,0,27.99-11.29,29.42-26.84v-7.35s-33.61,0-33.61,0Z"/>
        </g>
        <g>
          <path class="cls-3" d="m432.96,262.96h1.78v13.74h-1.78v-13.74Z"/>
          <path class="cls-3" d="m445.15,270.58c0-2.21-1.2-3.33-3-3.33s-3.08,1.14-3.08,3.47v5.97h-1.78v-10.8h1.78v1.54c.71-1.12,2-1.73,3.45-1.73,2.49,0,4.39,1.54,4.39,4.63v6.37h-1.76v-6.11Z"/>
          <path class="cls-3" d="m453.15,276.87c-2.51,0-4.27-1.38-4.39-3.35h1.84c.1,1.04,1.02,1.83,2.53,1.83,1.41,0,2.2-.71,2.2-1.6,0-2.4-6.35-1-6.35-5.03,0-1.66,1.55-3.02,3.94-3.02s3.94,1.28,4.06,3.39h-1.78c-.08-1.08-.9-1.87-2.33-1.87-1.31,0-2.1.63-2.1,1.5,0,2.56,6.23,1.16,6.31,5.03,0,1.77-1.55,3.11-3.92,3.11Z"/>
          <path class="cls-3" d="m459.49,267.37h-1.39v-1.48h1.39v-2.72h1.78v2.72h2.8v1.48h-2.8v6.37c0,1.06.39,1.44,1.49,1.44h1.31v1.52h-1.61c-1.9,0-2.98-.79-2.98-2.96v-6.37Z"/>
          <path class="cls-3" d="m465.45,262.92c0-.69.53-1.22,1.22-1.22.65,0,1.18.53,1.18,1.22s-.53,1.22-1.18,1.22c-.69,0-1.22-.53-1.22-1.22Zm.29,2.98h1.78v10.8h-1.78v-10.8Z"/>
          <path class="cls-3" d="m470.46,267.37h-1.39v-1.48h1.39v-2.72h1.78v2.72h2.8v1.48h-2.8v6.37c0,1.06.39,1.44,1.49,1.44h1.31v1.52h-1.61c-1.9,0-2.98-.79-2.98-2.96v-6.37Z"/>
          <path class="cls-3" d="m486.24,276.69h-1.78v-1.6c-.69,1.12-2,1.75-3.43,1.75-2.47,0-4.41-1.54-4.41-4.63v-6.33h1.76v6.09c0,2.19,1.2,3.31,3,3.31s3.08-1.14,3.08-3.47v-5.93h1.78v10.8Z"/>
          <path class="cls-3" d="m489.17,267.37h-1.39v-1.48h1.39v-2.72h1.78v2.72h2.8v1.48h-2.8v6.37c0,1.06.39,1.44,1.49,1.44h1.31v1.52h-1.61c-1.9,0-2.98-.79-2.98-2.96v-6.37Z"/>
          <path class="cls-3" d="m441.04,297.3h-5.96l-1.1,3.06h-1.88l4.94-13.66h2.06l4.92,13.66h-1.88l-1.1-3.06Zm-2.98-8.4l-2.47,6.94h4.94l-2.47-6.94Z"/>
          <path class="cls-3" d="m446.02,291.03h-1.39v-1.48h1.39v-.77c0-2.4,1.18-3.49,3.92-3.49v1.5c-1.61,0-2.14.59-2.14,1.99v.77h2.25v1.48h-2.25v9.32h-1.78v-9.32Z"/>
          <path class="cls-3" d="m453.43,300.35h-1.78v-10.8h1.78v1.75c.61-1.2,1.76-1.95,3.47-1.95v1.85h-.47c-1.71,0-3,.77-3,3.27v5.87Z"/>
          <path class="cls-3" d="m458.17,286.57c0-.69.53-1.22,1.22-1.22.65,0,1.18.53,1.18,1.22s-.53,1.22-1.18,1.22c-.69,0-1.22-.53-1.22-1.22Zm.29,2.98h1.78v10.8h-1.78v-10.8Z"/>
          <path class="cls-3" d="m467.37,289.37c2.67,0,4.41,1.38,4.96,3.65h-1.92c-.37-1.3-1.45-2.13-3.04-2.13-1.96,0-3.41,1.4-3.41,4.04s1.45,4.08,3.41,4.08c1.59,0,2.65-.77,3.04-2.13h1.92c-.55,2.15-2.29,3.65-4.96,3.65-3.06,0-5.23-2.17-5.23-5.6s2.18-5.56,5.23-5.56Z"/>
          <path class="cls-3" d="m478.64,289.37c2,0,3.37,1.03,4,2.15v-1.97h1.8v10.8h-1.8v-2.01c-.65,1.16-2.04,2.19-4.02,2.19-2.86,0-5.08-2.27-5.08-5.62s2.21-5.54,5.1-5.54Zm.35,1.56c-1.96,0-3.63,1.44-3.63,3.98s1.67,4.04,3.63,4.04,3.65-1.48,3.65-4.02-1.69-4-3.65-4Z"/>
          <path class="cls-3" d="m486.68,286.57c0-.69.53-1.22,1.22-1.22.65,0,1.18.53,1.18,1.22s-.53,1.22-1.18,1.22c-.69,0-1.22-.53-1.22-1.22Zm.29,2.98h1.78v10.8h-1.78v-10.8Z"/>
          <path class="cls-3" d="m499.16,294.24c0-2.21-1.2-3.33-3-3.33s-3.08,1.14-3.08,3.47v5.97h-1.78v-10.8h1.78v1.54c.71-1.12,2-1.73,3.45-1.73,2.49,0,4.39,1.54,4.39,4.63v6.37h-1.76v-6.11Z"/>
          <path class="cls-3" d="m512.56,289.37c1.69,0,3.23.87,3.98,2.11v-5.72h1.8v14.59h-1.8v-2.03c-.65,1.2-2.04,2.21-4,2.21-2.88,0-5.1-2.27-5.1-5.62s2.21-5.54,5.12-5.54Zm.33,1.56c-1.96,0-3.63,1.44-3.63,3.98s1.67,4.04,3.63,4.04,3.65-1.48,3.65-4.02-1.69-4-3.65-4Z"/>
          <path class="cls-3" d="m525.51,300.53c-3.06,0-5.31-2.17-5.31-5.6s2.18-5.56,5.31-5.56,5.16,2.21,5.16,5.16c0,.39-.02.71-.06,1.08h-8.59c.14,2.19,1.67,3.39,3.49,3.39,1.61,0,2.63-.83,3.02-1.99h1.92c-.55,1.97-2.27,3.51-4.94,3.51Zm-3.47-6.37h6.78c.02-2.11-1.55-3.27-3.39-3.27-1.74,0-3.2,1.16-3.39,3.27Z"/>
          <path class="cls-3" d="m432.96,309.42h1.78v14.59h-1.78v-14.59Z"/>
          <path class="cls-3" d="m441.72,313.03c2,0,3.37,1.03,4,2.15v-1.97h1.8v10.8h-1.8v-2.01c-.65,1.16-2.04,2.19-4.02,2.19-2.86,0-5.08-2.27-5.08-5.62s2.21-5.54,5.1-5.54Zm.35,1.56c-1.96,0-3.63,1.44-3.63,3.98s1.67,4.04,3.63,4.04,3.65-1.48,3.65-4.02-1.69-4-3.65-4Z"/>
          <path class="cls-3" d="m467.29,314.25h-2.14c-.75-1.6-2.23-2.52-4.16-2.52-2.88,0-5.04,2.09-5.04,5.4s2.16,5.38,5.04,5.38c2.69,0,4.53-1.73,4.8-4.45h-5.45v-1.46h7.35v1.38c-.31,3.41-3,6.15-6.7,6.15s-6.86-2.88-6.86-7,3.02-7.02,6.86-7.02c2.88,0,5.27,1.5,6.29,4.14Z"/>
          <path class="cls-3" d="m474.25,324.18c-3.04,0-5.35-2.17-5.35-5.6s2.39-5.56,5.43-5.56,5.43,2.15,5.43,5.56-2.45,5.6-5.51,5.6Zm0-1.58c1.86,0,3.69-1.28,3.69-4.02s-1.78-4-3.63-4-3.59,1.28-3.59,4,1.67,4.02,3.53,4.02Z"/>
          <path class="cls-3" d="m491.15,324.01h-1.78v-1.6c-.69,1.12-2,1.75-3.43,1.75-2.47,0-4.41-1.54-4.41-4.63v-6.33h1.76v6.09c0,2.19,1.2,3.31,3,3.31s3.08-1.14,3.08-3.47v-5.93h1.78v10.8Z"/>
          <path class="cls-3" d="m494.32,313.2l3.35,9.15,3.33-9.15h1.9l-4.21,10.8h-2.08l-4.21-10.8h1.92Z"/>
          <path class="cls-3" d="m508.83,324.18c-3.06,0-5.31-2.17-5.31-5.6s2.18-5.56,5.31-5.56,5.16,2.21,5.16,5.16c0,.39-.02.71-.06,1.08h-8.59c.14,2.19,1.67,3.39,3.49,3.39,1.61,0,2.63-.83,3.02-1.99h1.92c-.55,1.97-2.27,3.51-4.94,3.51Zm-3.47-6.37h6.78c.02-2.11-1.55-3.27-3.39-3.27-1.74,0-3.2,1.16-3.39,3.27Z"/>
          <path class="cls-3" d="m517.63,324.01h-1.78v-10.8h1.78v1.75c.61-1.2,1.76-1.95,3.47-1.95v1.85h-.47c-1.71,0-3,.77-3,3.27v5.87Z"/>
          <path class="cls-3" d="m530.53,317.9c0-2.21-1.2-3.33-3-3.33s-3.08,1.14-3.08,3.47v5.97h-1.78v-10.8h1.78v1.54c.71-1.12,2-1.73,3.45-1.73,2.49,0,4.39,1.54,4.39,4.63v6.37h-1.76v-6.11Z"/>
          <path class="cls-3" d="m539.16,313.03c2,0,3.37,1.03,4,2.15v-1.97h1.8v10.8h-1.8v-2.01c-.65,1.16-2.04,2.19-4.02,2.19-2.86,0-5.08-2.27-5.08-5.62s2.21-5.54,5.1-5.54Zm.35,1.56c-1.96,0-3.63,1.44-3.63,3.98s1.67,4.04,3.63,4.04,3.65-1.48,3.65-4.02-1.69-4-3.65-4Z"/>
          <path class="cls-3" d="m555.35,317.9c0-2.21-1.2-3.33-3-3.33s-3.08,1.14-3.08,3.47v5.97h-1.78v-10.8h1.78v1.54c.71-1.12,2-1.73,3.45-1.73,2.49,0,4.39,1.54,4.39,4.63v6.37h-1.76v-6.11Z"/>
          <path class="cls-3" d="m564.12,313.03c2.67,0,4.41,1.38,4.96,3.65h-1.92c-.37-1.3-1.45-2.13-3.04-2.13-1.96,0-3.41,1.4-3.41,4.04s1.45,4.08,3.41,4.08c1.59,0,2.65-.77,3.04-2.13h1.92c-.55,2.15-2.29,3.65-4.96,3.65-3.06,0-5.23-2.17-5.23-5.6s2.18-5.56,5.23-5.56Z"/>
          <path class="cls-3" d="m575.6,324.18c-3.06,0-5.31-2.17-5.31-5.6s2.18-5.56,5.31-5.56,5.16,2.21,5.16,5.16c0,.39-.02.71-.06,1.08h-8.59c.14,2.19,1.67,3.39,3.49,3.39,1.61,0,2.63-.83,3.02-1.99h1.92c-.55,1.97-2.27,3.51-4.94,3.51Zm-3.47-6.37h6.78c.02-2.11-1.55-3.27-3.39-3.27-1.74,0-3.2,1.16-3.39,3.27Z"/>
        </g>
      </g>
    </g>
  </g>
</svg>