<?xml version="1.0" encoding="UTF-8"?>
<svg id="Calque_2" data-name="Calque 2" xmlns="http://www.w3.org/2000/svg" viewBox="0 0 302.23 400">
  <defs>
    <style>
      .cls-1 {
        fill: #fff;
      }
    </style>
  </defs>
  <g id="Calque_1-2" data-name="Calque 1">
    <g>
      <g>
        <g>
          <path class="cls-1" d="m18.11,384.73h26.39l5.31,14.7h12.79l-25.06-69.18h-12.39L0,399.43h12.8l5.31-14.7Zm3.71-10.48l9.48-26.5,9.49,26.5h-18.97Z"/>
          <path class="cls-1" d="m98.14,400c18.12,0,32.49-13.1,34.15-31.16v-8.53s-39.02,0-39.02,0v10.49h26.11c-1.87,11.13-9.87,17.96-21.25,17.96-13.54,0-22.63-9.71-22.63-24.15s9.1-24.25,22.63-24.25c8.58,0,15.16,3.96,18.53,11.14l.47,1h13.97l-.92-2.36c-5.11-13.16-17.09-21.02-32.05-21.02-19.91,0-34.92,15.26-34.92,35.49s15.01,35.4,34.92,35.4Z"/>
          <rect class="cls-1" x="137.84" y="329.87" width="12.1" height="69.56"/>
        </g>
        <g>
          <path class="cls-1" d="m179.39,342.6h-6.92l-1.27,3.36h-2.18l5.73-15.01h2.39l5.71,15.01h-2.18l-1.27-3.36Zm-3.46-9.22l-2.87,7.62h5.73l-2.87-7.62Z"/>
          <path class="cls-1" d="m185.17,335.72h-1.61v-1.62h1.61v-.84c0-2.64,1.37-3.83,4.55-3.83v1.65c-1.87,0-2.48.65-2.48,2.19v.84h2.62v1.62h-2.62v10.24h-2.07v-10.24Z"/>
          <path class="cls-1" d="m193.77,345.96h-2.07v-11.87h2.07v1.93c.71-1.32,2.05-2.14,4.03-2.14v2.04h-.55c-1.98,0-3.48.84-3.48,3.59v6.45Z"/>
          <path class="cls-1" d="m199.28,330.82c0-.76.61-1.34,1.41-1.34.75,0,1.37.58,1.37,1.34s-.61,1.34-1.37,1.34c-.8,0-1.41-.58-1.41-1.34Zm.34,3.27h2.07v11.87h-2.07v-11.87Z"/>
          <path class="cls-1" d="m209.95,333.9c3.09,0,5.12,1.52,5.76,4.01h-2.23c-.43-1.43-1.68-2.34-3.53-2.34-2.28,0-3.96,1.54-3.96,4.44s1.68,4.48,3.96,4.48c1.84,0,3.07-.84,3.53-2.34h2.23c-.64,2.36-2.66,4.01-5.76,4.01-3.55,0-6.08-2.38-6.08-6.15s2.53-6.11,6.08-6.11Z"/>
          <path class="cls-1" d="m223.04,333.9c2.32,0,3.91,1.13,4.64,2.36v-2.17h2.09v11.87h-2.09v-2.21c-.75,1.28-2.37,2.4-4.66,2.4-3.32,0-5.89-2.49-5.89-6.17s2.57-6.08,5.92-6.08Zm.41,1.71c-2.28,0-4.21,1.58-4.21,4.37s1.93,4.44,4.21,4.44,4.23-1.62,4.23-4.42-1.96-4.4-4.23-4.4Z"/>
          <path class="cls-1" d="m184.51,361.23h-2.48c-.86-1.75-2.59-2.77-4.82-2.77-3.34,0-5.85,2.29-5.85,5.93s2.5,5.91,5.85,5.91c3.12,0,5.26-1.91,5.57-4.89h-6.32v-1.6h8.53v1.52c-.36,3.75-3.48,6.76-7.78,6.76s-7.96-3.16-7.96-7.69,3.5-7.71,7.96-7.71c3.34,0,6.12,1.65,7.3,4.55Z"/>
          <path class="cls-1" d="m192.59,372.14c-3.53,0-6.21-2.38-6.21-6.15s2.78-6.11,6.3-6.11,6.3,2.36,6.3,6.11-2.84,6.15-6.39,6.15Zm0-1.73c2.16,0,4.28-1.41,4.28-4.42s-2.07-4.4-4.21-4.4-4.16,1.41-4.16,4.4,1.93,4.42,4.1,4.42Z"/>
          <path class="cls-1" d="m201.9,360.08l3.89,10.05,3.87-10.05h2.21l-4.89,11.87h-2.41l-4.89-11.87h2.23Z"/>
          <path class="cls-1" d="m218.74,372.14c-3.55,0-6.17-2.38-6.17-6.15s2.53-6.11,6.17-6.11,5.98,2.43,5.98,5.67c0,.43-.02.78-.07,1.19h-9.97c.16,2.4,1.93,3.72,4.05,3.72,1.87,0,3.05-.91,3.5-2.19h2.23c-.64,2.16-2.64,3.85-5.73,3.85Zm-4.03-6.99h7.87c.02-2.32-1.8-3.59-3.94-3.59-2.03,0-3.71,1.28-3.94,3.59Z"/>
          <path class="cls-1" d="m228.95,371.95h-2.07v-11.87h2.07v1.93c.71-1.32,2.05-2.14,4.03-2.14v2.04h-.55c-1.98,0-3.48.84-3.48,3.59v6.45Z"/>
          <path class="cls-1" d="m243.93,365.24c0-2.43-1.39-3.66-3.48-3.66s-3.57,1.26-3.57,3.81v6.56h-2.07v-11.87h2.07v1.69c.82-1.23,2.32-1.91,4-1.91,2.89,0,5.1,1.69,5.1,5.09v6.99h-2.05v-6.71Z"/>
          <path class="cls-1" d="m253.94,359.89c2.32,0,3.91,1.13,4.64,2.36v-2.17h2.09v11.87h-2.09v-2.21c-.75,1.28-2.37,2.4-4.66,2.4-3.32,0-5.89-2.49-5.89-6.17s2.57-6.08,5.92-6.08Zm.41,1.71c-2.28,0-4.21,1.58-4.21,4.37s1.93,4.44,4.21,4.44,4.23-1.62,4.23-4.42-1.96-4.4-4.23-4.4Z"/>
          <path class="cls-1" d="m272.73,365.24c0-2.43-1.39-3.66-3.48-3.66s-3.57,1.26-3.57,3.81v6.56h-2.07v-11.87h2.07v1.69c.82-1.23,2.32-1.91,4-1.91,2.89,0,5.1,1.69,5.1,5.09v6.99h-2.05v-6.71Z"/>
          <path class="cls-1" d="m282.91,359.89c3.09,0,5.12,1.52,5.76,4.01h-2.23c-.43-1.43-1.68-2.34-3.53-2.34-2.28,0-3.96,1.54-3.96,4.44s1.68,4.48,3.96,4.48c1.84,0,3.07-.84,3.53-2.34h2.23c-.64,2.36-2.66,4.01-5.76,4.01-3.55,0-6.08-2.38-6.08-6.15s2.53-6.11,6.08-6.11Z"/>
          <path class="cls-1" d="m296.24,372.14c-3.55,0-6.17-2.38-6.17-6.15s2.53-6.11,6.17-6.11,5.98,2.43,5.98,5.67c0,.43-.02.78-.07,1.19h-9.97c.16,2.4,1.93,3.72,4.05,3.72,1.87,0,3.05-.91,3.5-2.19h2.23c-.64,2.16-2.64,3.85-5.73,3.85Zm-4.03-6.99h7.87c.02-2.32-1.8-3.59-3.94-3.59-2.03,0-3.71,1.28-3.94,3.59Z"/>
          <path class="cls-1" d="m170.02,382.84h2.07v15.09h-2.07v-15.09Z"/>
          <path class="cls-1" d="m184.17,391.22c0-2.43-1.39-3.66-3.48-3.66s-3.57,1.26-3.57,3.81v6.56h-2.07v-11.87h2.07v1.69c.82-1.23,2.32-1.91,4-1.91,2.89,0,5.1,1.69,5.1,5.09v6.99h-2.05v-6.71Z"/>
          <path class="cls-1" d="m193.45,398.13c-2.91,0-4.96-1.52-5.1-3.68h2.14c.11,1.15,1.18,2.01,2.93,2.01,1.64,0,2.55-.78,2.55-1.75,0-2.64-7.37-1.1-7.37-5.52,0-1.82,1.8-3.31,4.57-3.31s4.57,1.41,4.71,3.72h-2.07c-.09-1.19-1.05-2.06-2.71-2.06-1.52,0-2.43.69-2.43,1.65,0,2.81,7.24,1.28,7.33,5.52,0,1.95-1.8,3.42-4.55,3.42Z"/>
          <path class="cls-1" d="m200.8,387.69h-1.62v-1.62h1.62v-2.99h2.07v2.99h3.25v1.62h-3.25v6.99c0,1.17.45,1.58,1.73,1.58h1.52v1.67h-1.87c-2.21,0-3.46-.87-3.46-3.25v-6.99Z"/>
          <path class="cls-1" d="m207.72,382.8c0-.76.61-1.34,1.41-1.34.75,0,1.37.58,1.37,1.34s-.61,1.34-1.37,1.34c-.8,0-1.41-.58-1.41-1.34Zm.34,3.27h2.07v11.87h-2.07v-11.87Z"/>
          <path class="cls-1" d="m213.55,387.69h-1.62v-1.62h1.62v-2.99h2.07v2.99h3.25v1.62h-3.25v6.99c0,1.17.45,1.58,1.73,1.58h1.52v1.67h-1.87c-2.21,0-3.46-.87-3.46-3.25v-6.99Z"/>
          <path class="cls-1" d="m231.86,397.94h-2.07v-1.75c-.8,1.23-2.32,1.93-3.98,1.93-2.87,0-5.12-1.69-5.12-5.09v-6.95h2.05v6.69c0,2.4,1.39,3.64,3.48,3.64s3.57-1.26,3.57-3.81v-6.52h2.07v11.87Z"/>
          <path class="cls-1" d="m235.26,387.69h-1.62v-1.62h1.62v-2.99h2.07v2.99h3.25v1.62h-3.25v6.99c0,1.17.45,1.58,1.73,1.58h1.52v1.67h-1.87c-2.21,0-3.46-.87-3.46-3.25v-6.99Z"/>
          <path class="cls-1" d="m247.91,398.13c-3.55,0-6.17-2.38-6.17-6.15s2.53-6.11,6.17-6.11,5.98,2.43,5.98,5.67c0,.43-.02.78-.07,1.19h-9.97c.16,2.4,1.93,3.72,4.05,3.72,1.87,0,3.05-.91,3.5-2.19h2.23c-.64,2.16-2.64,3.85-5.73,3.85Zm-4.03-6.99h7.87c.02-2.32-1.8-3.59-3.94-3.59-2.03,0-3.71,1.28-3.94,3.59Z"/>
        </g>
      </g>
      <g>
        <path class="cls-1" d="m252.39,194.92s13.81-14.14,13.15-29.55l-.82-1.27s-5.26,3.45-8.88,2.72l-2.14,1.45s-1.81-1.63-4.93,1.09c0,0-2.63-4.71-5.59-3.26l1.97-2.18s-1.15-4.35-10.36-9.43c0,0-1.81-2.18-4.27-8.7l-3.62-2.54s-.49-3.81-.99-7.8c0,0-1.97-2.9-4.11-3.08,0,0-.33-1.63-.49-5.08,0,0-1.81-.18-4.44-6.53,0,0-3.12-5.98-3.94-6.53l-1.32-2.72.66-1.09s2.96,5.44,5.1,6.35c0,0,2.79-3.81-.16-10.33,0,0-3.12,1.63-7.4-.73,0,0-4.11.91-5.92,2.36,0,0-1.48-1.63-4.6-.54,0,0,.99-2.54-8.05-1.99l2.63-.73-5.42-1.09s.66-.54.16-1.63c-.49-1.09-6.57-1.63-8.71,3.26,0,0,2.3,2.54-1.32,3.99,0,0-4.6-3.26-8.22-2.9,0,0-1.81-1.81-1.81-3.63,0,0-2.96-1.81-5.92-.73,0,0-1.81-3.26-4.44-2.18,0,0-3.62-2.18.82-4.71,0,0,.82-2.54-1.64-3.99,0,0,1.48-.18,1.64-2.54,0,0-3.12-1.63-5.75.91,0,0-2.63-1.99-7.23.18,0,0-7.07-3.08-13.15,1.09h-2.96s-5.42,4.17-10.52-1.63c0,0-2.14.73-3.62,4.35,0,0-4.27,3.26-7.56,4.17,0,0-2.96,3.26-2.63,7.25,0,0-3.29,4.35-8.55,5.44,0,0-2.47,1.81-3.12,4.53,0,0-3.12,0-4.93,5.62,0,0-5.75,5.08-7.23,9.79,0,0,3.78,7.98-4.27,20.31l1.97,3.81-1.48,4.35s6.74,2.54,9.04,15.77c0,0,5.75,4.53,12.98,10.15,0,0,13.31-4.35,17.59-.36,0,0,18.74-11.06,21.04.91,0,0-.16,1.99,8.55-.36,0,0,5.59,3.81,1.64,9.97,0,0,.82,3.44-1.32,6.53,0,0,.82,2.9.82,3.45,0,0,11.83,12.33,11.67,20.49l-1.15,1.09s3.29,6.71,2.14,9.79c-1.15,3.08-4.6.91-4.77,17.04,0,0,7.56,11.79,7.56,15.77,0,0-1.15,9.97,4.77,16.14,0,0,3.29,6.71,3.29,7.98,0,0,2.96,1.99.66,4.71,0,0,.49,5.26,4.93,5.62,0,0,5.26-3.08,11.51-1.45,6.25,1.63,13.31-6.53,16.6-12.51l3.95-3.26s3.29-4.71,1.32-7.8c0,0,.82-2.54,3.12-2.9,0,0,7.73,0,4.6-12.51,0,0-2.96-2.18,3.78-5.44,0,0,2.14-1.45,2.79-3.44,0,0,9.2-2.18,10.19-8.34,0,0-.16-7.98-.16-10.33,0,0,2.63-1.99-1.64-3.99,0,0,.33-2.9-1.64-4.9,0,0,3.29-3.99-.49-6.35,0,0,1.32-8.7,9.04-15.05,0,0,5.1-8.88,12-10.34Zm5.52,45.94s-3.92,8.07-11.34,9.71c0,0-2.97.35-3.18,3.98,0,0,1.8,6.31-1.27,9.82,0,0-2.65,2.81-1.27,8.42,0,0-1.06,3.04.53,5.03,0,0,1.91,1.29,2.01,1.99,0,0,3.71-2.34,5.51-1.99,0,0,4.45-10.76,7.63-19.76,0,0,2.44-4.33,2.86-9.12l.74,1.87s3.18-3.98-.74-10.99c0,0-1.38-.35-1.48,1.05Z"/>
        <path class="cls-1" d="m231.2,59.86c.03-.55-.2-1.14-.41-1.67-8.03-19.65-20.14-35.85-39.16-46.18C177.24,4.2,161.83.29,145.5.02c-4.43-.07-8.79,0-13.18,1.27-5.04,1.45-10.4,1.8-15.46,3.2-23.32,6.47-42.25,19.54-56.37,39.12-16.14,22.39-21.63,47.39-16.51,74.57.43,2.28,1.71,4.41,2.59,6.61l.85-.24c0-1.18.08-2.37-.02-3.54-.21-2.63-.62-5.24-.74-7.87-.56-12.95,2.5-25.16,7.68-36.93,4.25-9.66,9.97-18.42,17.01-26.23,15.07-16.74,33.73-27.42,55.68-32.52,17.63-4.1,35.05-3.44,52.24,2.01,9.81,3.11,18.84,7.88,27.04,14.16,8.68,6.64,16.06,14.41,21.13,24.2.02.04.03.08.05.12,0-.02-.02-.04-.03-.07,0,.02.02.04.03.07.13.27.25.54.35.82.91,1.76,2.55,3.17,3.42,4.95.07.03.15.06.22.1-.25-1.26-.37-2.57-.3-3.94Z"/>
        <path class="cls-1" d="m241.05,86.05c.03-.55-.18-1.14-.38-1.67-7.47-19.65-18.74-35.85-36.44-46.18-13.38-7.81-27.72-11.72-42.92-11.99-4.12-.07-8.18,0-12.26,1.27-4.69,1.45-9.68,1.8-14.38,3.2-21.7,6.47-39.31,19.54-52.45,39.12-15.01,22.39-20.12,47.39-15.36,74.57.4,2.28,1.59,4.41,2.41,6.61l.8-.24c0-1.18.07-2.37-.01-3.54-.19-2.63-.58-5.24-.68-7.87-.53-12.95,2.33-25.16,7.15-36.93,3.95-9.66,9.28-18.42,15.82-26.23,14.02-16.74,31.39-27.42,51.81-32.52,16.4-4.1,32.61-3.44,48.61,2.01,9.13,3.11,17.53,7.88,25.16,14.16,8.08,6.64,14.95,14.41,19.66,24.2.02.04.03.08.05.12,0-.02-.02-.04-.03-.07,0,.02.02.04.03.07.12.27.23.54.33.82.85,1.76,2.37,3.17,3.18,4.95.07.03.14.06.21.1-.23-1.26-.34-2.57-.28-3.94Z"/>
        <path class="cls-1" d="m45.98,178.59c-.04.55.16,1.15.37,1.69,7.5,19.96,19.2,36.57,38.01,47.48,14.22,8.25,29.58,12.62,45.98,13.36,4.44.2,8.83.24,13.27-.9,5.1-1.32,10.49-1.51,15.61-2.77,23.6-5.83,42.98-18.41,57.71-37.67,16.84-22.02,23.07-46.96,18.7-74.4-.37-2.31-1.59-4.48-2.41-6.71l-.86.22c-.03,1.19-.14,2.38-.09,3.56.13,2.64.47,5.28.51,7.92.2,13.02-3.23,25.19-8.76,36.87-4.54,9.58-10.54,18.21-17.82,25.85-15.61,16.38-34.65,26.57-56.83,31.07-17.82,3.62-35.29,2.45-52.39-3.51-9.76-3.4-18.69-8.45-26.75-14.98-8.53-6.91-15.72-14.93-20.52-24.9-.02-.04-.03-.08-.05-.12,0,.02.02.05.03.07,0-.02-.02-.05-.03-.07-.12-.27-.23-.55-.33-.84-.86-1.8-2.47-3.25-3.29-5.07-.07-.03-.15-.07-.22-.1.21,1.27.3,2.59.19,3.97Z"/>
        <path class="cls-1" d="m36.83,152.01c-.04.55.15,1.15.34,1.69,6.94,19.94,17.79,36.53,35.27,47.41,13.21,8.22,27.5,12.56,42.75,13.27,4.13.19,8.21.22,12.35-.93,4.75-1.33,9.77-1.53,14.53-2.8,21.97-5.87,40.03-18.5,53.77-37.79,15.71-22.05,21.56-47,17.55-74.43-.34-2.3-1.47-4.47-2.23-6.7l-.81.22c-.03,1.19-.14,2.38-.09,3.56.12,2.64.43,5.28.46,7.92.16,13.02-3.06,25.2-8.23,36.88-4.25,9.59-9.84,18.23-16.64,25.89-14.55,16.41-32.29,26.64-52.94,31.18-16.59,3.65-32.84,2.52-48.75-3.41-9.08-3.38-17.38-8.41-24.86-14.93-7.92-6.9-14.6-14.9-19.05-24.86-.02-.04-.03-.08-.05-.12,0,.02.02.04.03.07,0-.02-.02-.05-.03-.07-.12-.27-.22-.55-.3-.84-.8-1.79-2.29-3.25-3.05-5.06-.07-.03-.14-.07-.2-.1.2,1.27.27,2.59.17,3.96Z"/>
      </g>
    </g>
  </g>
</svg>